G04 #@! TF.FileFunction,Legend,Top*
%FSLAX46Y46*%
G04 Gerber Fmt 4.6, Leading zero omitted, Abs format (unit mm)*
G04 Created by KiCad (PCBNEW 4.0.5) date Sunday, 26 February 2017 'PMt' 15:03:11*
%MOMM*%
%LPD*%
G01*
G04 APERTURE LIST*
%ADD10C,0.100000*%
%ADD11C,0.200000*%
%ADD12C,0.150000*%
%ADD13C,0.300000*%
%ADD14C,0.120000*%
%ADD15C,0.203200*%
G04 APERTURE END LIST*
D10*
D11*
X158650000Y-94850000D02*
X161190000Y-96120000D01*
X151030000Y-96120000D02*
X153570000Y-94850000D01*
X143410000Y-94850000D02*
X145950000Y-96120000D01*
X138330000Y-94850000D02*
X135790000Y-96120000D01*
X154038571Y-94302381D02*
X154038571Y-95111905D01*
X154086190Y-95207143D01*
X154133809Y-95254762D01*
X154229047Y-95302381D01*
X154419524Y-95302381D01*
X154514762Y-95254762D01*
X154562381Y-95207143D01*
X154610000Y-95111905D01*
X154610000Y-94302381D01*
X155038571Y-95016667D02*
X155514762Y-95016667D01*
X154943333Y-95302381D02*
X155276666Y-94302381D01*
X155610000Y-95302381D01*
X156514762Y-95302381D02*
X156181428Y-94826190D01*
X155943333Y-95302381D02*
X155943333Y-94302381D01*
X156324286Y-94302381D01*
X156419524Y-94350000D01*
X156467143Y-94397619D01*
X156514762Y-94492857D01*
X156514762Y-94635714D01*
X156467143Y-94730952D01*
X156419524Y-94778571D01*
X156324286Y-94826190D01*
X155943333Y-94826190D01*
X156800476Y-94302381D02*
X157371905Y-94302381D01*
X157086190Y-95302381D02*
X157086190Y-94302381D01*
X158229048Y-95302381D02*
X157657619Y-95302381D01*
X157943333Y-95302381D02*
X157943333Y-94302381D01*
X157848095Y-94445238D01*
X157752857Y-94540476D01*
X157657619Y-94588095D01*
X138798571Y-94302381D02*
X138798571Y-95111905D01*
X138846190Y-95207143D01*
X138893809Y-95254762D01*
X138989047Y-95302381D01*
X139179524Y-95302381D01*
X139274762Y-95254762D01*
X139322381Y-95207143D01*
X139370000Y-95111905D01*
X139370000Y-94302381D01*
X139798571Y-95016667D02*
X140274762Y-95016667D01*
X139703333Y-95302381D02*
X140036666Y-94302381D01*
X140370000Y-95302381D01*
X141274762Y-95302381D02*
X140941428Y-94826190D01*
X140703333Y-95302381D02*
X140703333Y-94302381D01*
X141084286Y-94302381D01*
X141179524Y-94350000D01*
X141227143Y-94397619D01*
X141274762Y-94492857D01*
X141274762Y-94635714D01*
X141227143Y-94730952D01*
X141179524Y-94778571D01*
X141084286Y-94826190D01*
X140703333Y-94826190D01*
X141560476Y-94302381D02*
X142131905Y-94302381D01*
X141846190Y-95302381D02*
X141846190Y-94302381D01*
X142417619Y-94397619D02*
X142465238Y-94350000D01*
X142560476Y-94302381D01*
X142798572Y-94302381D01*
X142893810Y-94350000D01*
X142941429Y-94397619D01*
X142989048Y-94492857D01*
X142989048Y-94588095D01*
X142941429Y-94730952D01*
X142370000Y-95302381D01*
X142989048Y-95302381D01*
X146402381Y-97850476D02*
X145926190Y-98183810D01*
X146402381Y-98421905D02*
X145402381Y-98421905D01*
X145402381Y-98040952D01*
X145450000Y-97945714D01*
X145497619Y-97898095D01*
X145592857Y-97850476D01*
X145735714Y-97850476D01*
X145830952Y-97898095D01*
X145878571Y-97945714D01*
X145926190Y-98040952D01*
X145926190Y-98421905D01*
X145402381Y-97517143D02*
X146402381Y-96850476D01*
X145402381Y-96850476D02*
X146402381Y-97517143D01*
X161642381Y-97850476D02*
X161166190Y-98183810D01*
X161642381Y-98421905D02*
X160642381Y-98421905D01*
X160642381Y-98040952D01*
X160690000Y-97945714D01*
X160737619Y-97898095D01*
X160832857Y-97850476D01*
X160975714Y-97850476D01*
X161070952Y-97898095D01*
X161118571Y-97945714D01*
X161166190Y-98040952D01*
X161166190Y-98421905D01*
X160642381Y-97517143D02*
X161642381Y-96850476D01*
X160642381Y-96850476D02*
X161642381Y-97517143D01*
X158102381Y-98564762D02*
X158102381Y-97993333D01*
X159102381Y-98279048D02*
X158102381Y-98279048D01*
X158102381Y-97755238D02*
X159102381Y-97088571D01*
X158102381Y-97088571D02*
X159102381Y-97755238D01*
X142862381Y-98564762D02*
X142862381Y-97993333D01*
X143862381Y-98279048D02*
X142862381Y-98279048D01*
X142862381Y-97755238D02*
X143862381Y-97088571D01*
X142862381Y-97088571D02*
X143862381Y-97755238D01*
X140370000Y-97898095D02*
X140322381Y-97993333D01*
X140322381Y-98136190D01*
X140370000Y-98279048D01*
X140465238Y-98374286D01*
X140560476Y-98421905D01*
X140750952Y-98469524D01*
X140893810Y-98469524D01*
X141084286Y-98421905D01*
X141179524Y-98374286D01*
X141274762Y-98279048D01*
X141322381Y-98136190D01*
X141322381Y-98040952D01*
X141274762Y-97898095D01*
X141227143Y-97850476D01*
X140893810Y-97850476D01*
X140893810Y-98040952D01*
X140655714Y-97421905D02*
X141322381Y-97421905D01*
X140750952Y-97421905D02*
X140703333Y-97374286D01*
X140655714Y-97279048D01*
X140655714Y-97136190D01*
X140703333Y-97040952D01*
X140798571Y-96993333D01*
X141322381Y-96993333D01*
X141322381Y-96088571D02*
X140322381Y-96088571D01*
X141274762Y-96088571D02*
X141322381Y-96183809D01*
X141322381Y-96374286D01*
X141274762Y-96469524D01*
X141227143Y-96517143D01*
X141131905Y-96564762D01*
X140846190Y-96564762D01*
X140750952Y-96517143D01*
X140703333Y-96469524D01*
X140655714Y-96374286D01*
X140655714Y-96183809D01*
X140703333Y-96088571D01*
X155610000Y-97898095D02*
X155562381Y-97993333D01*
X155562381Y-98136190D01*
X155610000Y-98279048D01*
X155705238Y-98374286D01*
X155800476Y-98421905D01*
X155990952Y-98469524D01*
X156133810Y-98469524D01*
X156324286Y-98421905D01*
X156419524Y-98374286D01*
X156514762Y-98279048D01*
X156562381Y-98136190D01*
X156562381Y-98040952D01*
X156514762Y-97898095D01*
X156467143Y-97850476D01*
X156133810Y-97850476D01*
X156133810Y-98040952D01*
X155895714Y-97421905D02*
X156562381Y-97421905D01*
X155990952Y-97421905D02*
X155943333Y-97374286D01*
X155895714Y-97279048D01*
X155895714Y-97136190D01*
X155943333Y-97040952D01*
X156038571Y-96993333D01*
X156562381Y-96993333D01*
X156562381Y-96088571D02*
X155562381Y-96088571D01*
X156514762Y-96088571D02*
X156562381Y-96183809D01*
X156562381Y-96374286D01*
X156514762Y-96469524D01*
X156467143Y-96517143D01*
X156371905Y-96564762D01*
X156086190Y-96564762D01*
X155990952Y-96517143D01*
X155943333Y-96469524D01*
X155895714Y-96374286D01*
X155895714Y-96183809D01*
X155943333Y-96088571D01*
X153022381Y-98517143D02*
X153022381Y-97898095D01*
X153403333Y-98231429D01*
X153403333Y-98088571D01*
X153450952Y-97993333D01*
X153498571Y-97945714D01*
X153593810Y-97898095D01*
X153831905Y-97898095D01*
X153927143Y-97945714D01*
X153974762Y-97993333D01*
X154022381Y-98088571D01*
X154022381Y-98374286D01*
X153974762Y-98469524D01*
X153927143Y-98517143D01*
X153022381Y-97612381D02*
X154022381Y-97279048D01*
X153022381Y-96945714D01*
X153022381Y-96707619D02*
X153022381Y-96088571D01*
X153403333Y-96421905D01*
X153403333Y-96279047D01*
X153450952Y-96183809D01*
X153498571Y-96136190D01*
X153593810Y-96088571D01*
X153831905Y-96088571D01*
X153927143Y-96136190D01*
X153974762Y-96183809D01*
X154022381Y-96279047D01*
X154022381Y-96564762D01*
X153974762Y-96660000D01*
X153927143Y-96707619D01*
X137782381Y-98517143D02*
X137782381Y-97898095D01*
X138163333Y-98231429D01*
X138163333Y-98088571D01*
X138210952Y-97993333D01*
X138258571Y-97945714D01*
X138353810Y-97898095D01*
X138591905Y-97898095D01*
X138687143Y-97945714D01*
X138734762Y-97993333D01*
X138782381Y-98088571D01*
X138782381Y-98374286D01*
X138734762Y-98469524D01*
X138687143Y-98517143D01*
X137782381Y-97612381D02*
X138782381Y-97279048D01*
X137782381Y-96945714D01*
X137782381Y-96707619D02*
X137782381Y-96088571D01*
X138163333Y-96421905D01*
X138163333Y-96279047D01*
X138210952Y-96183809D01*
X138258571Y-96136190D01*
X138353810Y-96088571D01*
X138591905Y-96088571D01*
X138687143Y-96136190D01*
X138734762Y-96183809D01*
X138782381Y-96279047D01*
X138782381Y-96564762D01*
X138734762Y-96660000D01*
X138687143Y-96707619D01*
X150482381Y-97945714D02*
X150482381Y-98421905D01*
X150958571Y-98469524D01*
X150910952Y-98421905D01*
X150863333Y-98326667D01*
X150863333Y-98088571D01*
X150910952Y-97993333D01*
X150958571Y-97945714D01*
X151053810Y-97898095D01*
X151291905Y-97898095D01*
X151387143Y-97945714D01*
X151434762Y-97993333D01*
X151482381Y-98088571D01*
X151482381Y-98326667D01*
X151434762Y-98421905D01*
X151387143Y-98469524D01*
X150482381Y-97612381D02*
X151482381Y-97279048D01*
X150482381Y-96945714D01*
X135242381Y-97945714D02*
X135242381Y-98421905D01*
X135718571Y-98469524D01*
X135670952Y-98421905D01*
X135623333Y-98326667D01*
X135623333Y-98088571D01*
X135670952Y-97993333D01*
X135718571Y-97945714D01*
X135813810Y-97898095D01*
X136051905Y-97898095D01*
X136147143Y-97945714D01*
X136194762Y-97993333D01*
X136242381Y-98088571D01*
X136242381Y-98326667D01*
X136194762Y-98421905D01*
X136147143Y-98469524D01*
X135242381Y-97612381D02*
X136242381Y-97279048D01*
X135242381Y-96945714D01*
X160324762Y-85452024D02*
X160372381Y-85309167D01*
X160372381Y-85071071D01*
X160324762Y-84975833D01*
X160277143Y-84928214D01*
X160181905Y-84880595D01*
X160086667Y-84880595D01*
X159991429Y-84928214D01*
X159943810Y-84975833D01*
X159896190Y-85071071D01*
X159848571Y-85261548D01*
X159800952Y-85356786D01*
X159753333Y-85404405D01*
X159658095Y-85452024D01*
X159562857Y-85452024D01*
X159467619Y-85404405D01*
X159420000Y-85356786D01*
X159372381Y-85261548D01*
X159372381Y-85023452D01*
X159420000Y-84880595D01*
X160277143Y-83880595D02*
X160324762Y-83928214D01*
X160372381Y-84071071D01*
X160372381Y-84166309D01*
X160324762Y-84309167D01*
X160229524Y-84404405D01*
X160134286Y-84452024D01*
X159943810Y-84499643D01*
X159800952Y-84499643D01*
X159610476Y-84452024D01*
X159515238Y-84404405D01*
X159420000Y-84309167D01*
X159372381Y-84166309D01*
X159372381Y-84071071D01*
X159420000Y-83928214D01*
X159467619Y-83880595D01*
X160372381Y-83452024D02*
X159372381Y-83452024D01*
X160372381Y-82880595D02*
X159800952Y-83309167D01*
X159372381Y-82880595D02*
X159943810Y-83452024D01*
X145084762Y-85452024D02*
X145132381Y-85309167D01*
X145132381Y-85071071D01*
X145084762Y-84975833D01*
X145037143Y-84928214D01*
X144941905Y-84880595D01*
X144846667Y-84880595D01*
X144751429Y-84928214D01*
X144703810Y-84975833D01*
X144656190Y-85071071D01*
X144608571Y-85261548D01*
X144560952Y-85356786D01*
X144513333Y-85404405D01*
X144418095Y-85452024D01*
X144322857Y-85452024D01*
X144227619Y-85404405D01*
X144180000Y-85356786D01*
X144132381Y-85261548D01*
X144132381Y-85023452D01*
X144180000Y-84880595D01*
X145037143Y-83880595D02*
X145084762Y-83928214D01*
X145132381Y-84071071D01*
X145132381Y-84166309D01*
X145084762Y-84309167D01*
X144989524Y-84404405D01*
X144894286Y-84452024D01*
X144703810Y-84499643D01*
X144560952Y-84499643D01*
X144370476Y-84452024D01*
X144275238Y-84404405D01*
X144180000Y-84309167D01*
X144132381Y-84166309D01*
X144132381Y-84071071D01*
X144180000Y-83928214D01*
X144227619Y-83880595D01*
X145132381Y-83452024D02*
X144132381Y-83452024D01*
X145132381Y-82880595D02*
X144560952Y-83309167D01*
X144132381Y-82880595D02*
X144703810Y-83452024D01*
X156832381Y-85499643D02*
X156832381Y-84880595D01*
X157213333Y-85213929D01*
X157213333Y-85071071D01*
X157260952Y-84975833D01*
X157308571Y-84928214D01*
X157403810Y-84880595D01*
X157641905Y-84880595D01*
X157737143Y-84928214D01*
X157784762Y-84975833D01*
X157832381Y-85071071D01*
X157832381Y-85356786D01*
X157784762Y-85452024D01*
X157737143Y-85499643D01*
X156832381Y-84594881D02*
X157832381Y-84261548D01*
X156832381Y-83928214D01*
X156832381Y-83690119D02*
X156832381Y-83071071D01*
X157213333Y-83404405D01*
X157213333Y-83261547D01*
X157260952Y-83166309D01*
X157308571Y-83118690D01*
X157403810Y-83071071D01*
X157641905Y-83071071D01*
X157737143Y-83118690D01*
X157784762Y-83166309D01*
X157832381Y-83261547D01*
X157832381Y-83547262D01*
X157784762Y-83642500D01*
X157737143Y-83690119D01*
X141592381Y-85499643D02*
X141592381Y-84880595D01*
X141973333Y-85213929D01*
X141973333Y-85071071D01*
X142020952Y-84975833D01*
X142068571Y-84928214D01*
X142163810Y-84880595D01*
X142401905Y-84880595D01*
X142497143Y-84928214D01*
X142544762Y-84975833D01*
X142592381Y-85071071D01*
X142592381Y-85356786D01*
X142544762Y-85452024D01*
X142497143Y-85499643D01*
X141592381Y-84594881D02*
X142592381Y-84261548D01*
X141592381Y-83928214D01*
X141592381Y-83690119D02*
X141592381Y-83071071D01*
X141973333Y-83404405D01*
X141973333Y-83261547D01*
X142020952Y-83166309D01*
X142068571Y-83118690D01*
X142163810Y-83071071D01*
X142401905Y-83071071D01*
X142497143Y-83118690D01*
X142544762Y-83166309D01*
X142592381Y-83261547D01*
X142592381Y-83547262D01*
X142544762Y-83642500D01*
X142497143Y-83690119D01*
X139100000Y-84880595D02*
X139052381Y-84975833D01*
X139052381Y-85118690D01*
X139100000Y-85261548D01*
X139195238Y-85356786D01*
X139290476Y-85404405D01*
X139480952Y-85452024D01*
X139623810Y-85452024D01*
X139814286Y-85404405D01*
X139909524Y-85356786D01*
X140004762Y-85261548D01*
X140052381Y-85118690D01*
X140052381Y-85023452D01*
X140004762Y-84880595D01*
X139957143Y-84832976D01*
X139623810Y-84832976D01*
X139623810Y-85023452D01*
X139385714Y-84404405D02*
X140052381Y-84404405D01*
X139480952Y-84404405D02*
X139433333Y-84356786D01*
X139385714Y-84261548D01*
X139385714Y-84118690D01*
X139433333Y-84023452D01*
X139528571Y-83975833D01*
X140052381Y-83975833D01*
X140052381Y-83071071D02*
X139052381Y-83071071D01*
X140004762Y-83071071D02*
X140052381Y-83166309D01*
X140052381Y-83356786D01*
X140004762Y-83452024D01*
X139957143Y-83499643D01*
X139861905Y-83547262D01*
X139576190Y-83547262D01*
X139480952Y-83499643D01*
X139433333Y-83452024D01*
X139385714Y-83356786D01*
X139385714Y-83166309D01*
X139433333Y-83071071D01*
X154340000Y-84880595D02*
X154292381Y-84975833D01*
X154292381Y-85118690D01*
X154340000Y-85261548D01*
X154435238Y-85356786D01*
X154530476Y-85404405D01*
X154720952Y-85452024D01*
X154863810Y-85452024D01*
X155054286Y-85404405D01*
X155149524Y-85356786D01*
X155244762Y-85261548D01*
X155292381Y-85118690D01*
X155292381Y-85023452D01*
X155244762Y-84880595D01*
X155197143Y-84832976D01*
X154863810Y-84832976D01*
X154863810Y-85023452D01*
X154625714Y-84404405D02*
X155292381Y-84404405D01*
X154720952Y-84404405D02*
X154673333Y-84356786D01*
X154625714Y-84261548D01*
X154625714Y-84118690D01*
X154673333Y-84023452D01*
X154768571Y-83975833D01*
X155292381Y-83975833D01*
X155292381Y-83071071D02*
X154292381Y-83071071D01*
X155244762Y-83071071D02*
X155292381Y-83166309D01*
X155292381Y-83356786D01*
X155244762Y-83452024D01*
X155197143Y-83499643D01*
X155101905Y-83547262D01*
X154816190Y-83547262D01*
X154720952Y-83499643D01*
X154673333Y-83452024D01*
X154625714Y-83356786D01*
X154625714Y-83166309D01*
X154673333Y-83071071D01*
X152704762Y-85452024D02*
X152752381Y-85309167D01*
X152752381Y-85071071D01*
X152704762Y-84975833D01*
X152657143Y-84928214D01*
X152561905Y-84880595D01*
X152466667Y-84880595D01*
X152371429Y-84928214D01*
X152323810Y-84975833D01*
X152276190Y-85071071D01*
X152228571Y-85261548D01*
X152180952Y-85356786D01*
X152133333Y-85404405D01*
X152038095Y-85452024D01*
X151942857Y-85452024D01*
X151847619Y-85404405D01*
X151800000Y-85356786D01*
X151752381Y-85261548D01*
X151752381Y-85023452D01*
X151800000Y-84880595D01*
X152752381Y-84452024D02*
X151752381Y-84452024D01*
X151752381Y-84213929D01*
X151800000Y-84071071D01*
X151895238Y-83975833D01*
X151990476Y-83928214D01*
X152180952Y-83880595D01*
X152323810Y-83880595D01*
X152514286Y-83928214D01*
X152609524Y-83975833D01*
X152704762Y-84071071D01*
X152752381Y-84213929D01*
X152752381Y-84452024D01*
X152466667Y-83499643D02*
X152466667Y-83023452D01*
X152752381Y-83594881D02*
X151752381Y-83261548D01*
X152752381Y-82928214D01*
X137464762Y-85452024D02*
X137512381Y-85309167D01*
X137512381Y-85071071D01*
X137464762Y-84975833D01*
X137417143Y-84928214D01*
X137321905Y-84880595D01*
X137226667Y-84880595D01*
X137131429Y-84928214D01*
X137083810Y-84975833D01*
X137036190Y-85071071D01*
X136988571Y-85261548D01*
X136940952Y-85356786D01*
X136893333Y-85404405D01*
X136798095Y-85452024D01*
X136702857Y-85452024D01*
X136607619Y-85404405D01*
X136560000Y-85356786D01*
X136512381Y-85261548D01*
X136512381Y-85023452D01*
X136560000Y-84880595D01*
X137512381Y-84452024D02*
X136512381Y-84452024D01*
X136512381Y-84213929D01*
X136560000Y-84071071D01*
X136655238Y-83975833D01*
X136750476Y-83928214D01*
X136940952Y-83880595D01*
X137083810Y-83880595D01*
X137274286Y-83928214D01*
X137369524Y-83975833D01*
X137464762Y-84071071D01*
X137512381Y-84213929D01*
X137512381Y-84452024D01*
X137226667Y-83499643D02*
X137226667Y-83023452D01*
X137512381Y-83594881D02*
X136512381Y-83261548D01*
X137512381Y-82928214D01*
D12*
X161229667Y-50741191D02*
X161229667Y-50265000D01*
X161515381Y-50836429D02*
X160515381Y-50503096D01*
X161515381Y-50169762D01*
X160848714Y-49836429D02*
X161515381Y-49836429D01*
X160943952Y-49836429D02*
X160896333Y-49788810D01*
X160848714Y-49693572D01*
X160848714Y-49550714D01*
X160896333Y-49455476D01*
X160991571Y-49407857D01*
X161515381Y-49407857D01*
X160848714Y-49074524D02*
X160848714Y-48693572D01*
X160515381Y-48931667D02*
X161372524Y-48931667D01*
X161467762Y-48884048D01*
X161515381Y-48788810D01*
X161515381Y-48693572D01*
D11*
X134805714Y-49164857D02*
X134805714Y-48364857D01*
X134805714Y-48593429D02*
X134862857Y-48479143D01*
X134920000Y-48422000D01*
X135034286Y-48364857D01*
X135148571Y-48364857D01*
X136005714Y-49107714D02*
X135891428Y-49164857D01*
X135662857Y-49164857D01*
X135548571Y-49107714D01*
X135491428Y-48993429D01*
X135491428Y-48536286D01*
X135548571Y-48422000D01*
X135662857Y-48364857D01*
X135891428Y-48364857D01*
X136005714Y-48422000D01*
X136062857Y-48536286D01*
X136062857Y-48650571D01*
X135491428Y-48764857D01*
X136462857Y-48364857D02*
X136748571Y-49164857D01*
X137034285Y-48364857D01*
X139034286Y-49164857D02*
X138348571Y-49164857D01*
X138691429Y-49164857D02*
X138691429Y-47964857D01*
X138577143Y-48136286D01*
X138462857Y-48250571D01*
X138348571Y-48307714D01*
X141320000Y-48079143D02*
X141377143Y-48022000D01*
X141491429Y-47964857D01*
X141777143Y-47964857D01*
X141891429Y-48022000D01*
X141948572Y-48079143D01*
X142005715Y-48193429D01*
X142005715Y-48307714D01*
X141948572Y-48479143D01*
X141262858Y-49164857D01*
X142005715Y-49164857D01*
X142748572Y-47964857D02*
X142862857Y-47964857D01*
X142977143Y-48022000D01*
X143034286Y-48079143D01*
X143091429Y-48193429D01*
X143148572Y-48422000D01*
X143148572Y-48707714D01*
X143091429Y-48936286D01*
X143034286Y-49050571D01*
X142977143Y-49107714D01*
X142862857Y-49164857D01*
X142748572Y-49164857D01*
X142634286Y-49107714D01*
X142577143Y-49050571D01*
X142520000Y-48936286D01*
X142462857Y-48707714D01*
X142462857Y-48422000D01*
X142520000Y-48193429D01*
X142577143Y-48079143D01*
X142634286Y-48022000D01*
X142748572Y-47964857D01*
X144291429Y-49164857D02*
X143605714Y-49164857D01*
X143948572Y-49164857D02*
X143948572Y-47964857D01*
X143834286Y-48136286D01*
X143720000Y-48250571D01*
X143605714Y-48307714D01*
X144691429Y-47964857D02*
X145491429Y-47964857D01*
X144977143Y-49164857D01*
X146805714Y-47907714D02*
X145777143Y-49450571D01*
X147434286Y-47964857D02*
X147548571Y-47964857D01*
X147662857Y-48022000D01*
X147720000Y-48079143D01*
X147777143Y-48193429D01*
X147834286Y-48422000D01*
X147834286Y-48707714D01*
X147777143Y-48936286D01*
X147720000Y-49050571D01*
X147662857Y-49107714D01*
X147548571Y-49164857D01*
X147434286Y-49164857D01*
X147320000Y-49107714D01*
X147262857Y-49050571D01*
X147205714Y-48936286D01*
X147148571Y-48707714D01*
X147148571Y-48422000D01*
X147205714Y-48193429D01*
X147262857Y-48079143D01*
X147320000Y-48022000D01*
X147434286Y-47964857D01*
X148234286Y-47964857D02*
X148977143Y-47964857D01*
X148577143Y-48422000D01*
X148748571Y-48422000D01*
X148862857Y-48479143D01*
X148920000Y-48536286D01*
X148977143Y-48650571D01*
X148977143Y-48936286D01*
X148920000Y-49050571D01*
X148862857Y-49107714D01*
X148748571Y-49164857D01*
X148405714Y-49164857D01*
X148291428Y-49107714D01*
X148234286Y-49050571D01*
D12*
X161277382Y-60488571D02*
X160944048Y-60488571D01*
X160944048Y-61012381D02*
X160944048Y-60012381D01*
X161420239Y-60012381D01*
X161801191Y-60488571D02*
X162134525Y-60488571D01*
X162277382Y-61012381D02*
X161801191Y-61012381D01*
X161801191Y-60012381D01*
X162277382Y-60012381D01*
X162705953Y-61012381D02*
X162705953Y-60012381D01*
D13*
X135640714Y-47125714D02*
X135569285Y-47197143D01*
X135354999Y-47268571D01*
X135212142Y-47268571D01*
X134997857Y-47197143D01*
X134854999Y-47054286D01*
X134783571Y-46911429D01*
X134712142Y-46625714D01*
X134712142Y-46411429D01*
X134783571Y-46125714D01*
X134854999Y-45982857D01*
X134997857Y-45840000D01*
X135212142Y-45768571D01*
X135354999Y-45768571D01*
X135569285Y-45840000D01*
X135640714Y-45911429D01*
X136283571Y-47125714D02*
X136354999Y-47197143D01*
X136283571Y-47268571D01*
X136212142Y-47197143D01*
X136283571Y-47125714D01*
X136283571Y-47268571D01*
X136997857Y-47268571D02*
X136997857Y-45768571D01*
X136997857Y-46482857D02*
X137855000Y-46482857D01*
X137855000Y-47268571D02*
X137855000Y-45768571D01*
X138569286Y-47125714D02*
X138640714Y-47197143D01*
X138569286Y-47268571D01*
X138497857Y-47197143D01*
X138569286Y-47125714D01*
X138569286Y-47268571D01*
X139283572Y-47268571D02*
X139283572Y-45768571D01*
X139997858Y-47125714D02*
X140069286Y-47197143D01*
X139997858Y-47268571D01*
X139926429Y-47197143D01*
X139997858Y-47125714D01*
X139997858Y-47268571D01*
X140712144Y-47268571D02*
X140712144Y-45768571D01*
X141283572Y-45768571D01*
X141426430Y-45840000D01*
X141497858Y-45911429D01*
X141569287Y-46054286D01*
X141569287Y-46268571D01*
X141497858Y-46411429D01*
X141426430Y-46482857D01*
X141283572Y-46554286D01*
X140712144Y-46554286D01*
X142212144Y-47125714D02*
X142283572Y-47197143D01*
X142212144Y-47268571D01*
X142140715Y-47197143D01*
X142212144Y-47125714D01*
X142212144Y-47268571D01*
X144926430Y-47268571D02*
X144426430Y-46554286D01*
X144069287Y-47268571D02*
X144069287Y-45768571D01*
X144640715Y-45768571D01*
X144783573Y-45840000D01*
X144855001Y-45911429D01*
X144926430Y-46054286D01*
X144926430Y-46268571D01*
X144855001Y-46411429D01*
X144783573Y-46482857D01*
X144640715Y-46554286D01*
X144069287Y-46554286D01*
X146069287Y-46482857D02*
X145569287Y-46482857D01*
X145569287Y-47268571D02*
X145569287Y-45768571D01*
X146283573Y-45768571D01*
X146855001Y-47268571D02*
X146855001Y-45768571D01*
X147355001Y-46840000D01*
X147855001Y-45768571D01*
X147855001Y-47268571D01*
X149212144Y-45768571D02*
X148926430Y-45768571D01*
X148783573Y-45840000D01*
X148712144Y-45911429D01*
X148569287Y-46125714D01*
X148497858Y-46411429D01*
X148497858Y-46982857D01*
X148569287Y-47125714D01*
X148640715Y-47197143D01*
X148783573Y-47268571D01*
X149069287Y-47268571D01*
X149212144Y-47197143D01*
X149283573Y-47125714D01*
X149355001Y-46982857D01*
X149355001Y-46625714D01*
X149283573Y-46482857D01*
X149212144Y-46411429D01*
X149069287Y-46340000D01*
X148783573Y-46340000D01*
X148640715Y-46411429D01*
X148569287Y-46482857D01*
X148497858Y-46625714D01*
X150069286Y-47268571D02*
X150355001Y-47268571D01*
X150497858Y-47197143D01*
X150569286Y-47125714D01*
X150712144Y-46911429D01*
X150783572Y-46625714D01*
X150783572Y-46054286D01*
X150712144Y-45911429D01*
X150640715Y-45840000D01*
X150497858Y-45768571D01*
X150212144Y-45768571D01*
X150069286Y-45840000D01*
X149997858Y-45911429D01*
X149926429Y-46054286D01*
X149926429Y-46411429D01*
X149997858Y-46554286D01*
X150069286Y-46625714D01*
X150212144Y-46697143D01*
X150497858Y-46697143D01*
X150640715Y-46625714D01*
X150712144Y-46554286D01*
X150783572Y-46411429D01*
X153355000Y-45840000D02*
X153212143Y-45768571D01*
X152997857Y-45768571D01*
X152783572Y-45840000D01*
X152640714Y-45982857D01*
X152569286Y-46125714D01*
X152497857Y-46411429D01*
X152497857Y-46625714D01*
X152569286Y-46911429D01*
X152640714Y-47054286D01*
X152783572Y-47197143D01*
X152997857Y-47268571D01*
X153140714Y-47268571D01*
X153355000Y-47197143D01*
X153426429Y-47125714D01*
X153426429Y-46625714D01*
X153140714Y-46625714D01*
X154712143Y-47268571D02*
X154712143Y-46482857D01*
X154640714Y-46340000D01*
X154497857Y-46268571D01*
X154212143Y-46268571D01*
X154069286Y-46340000D01*
X154712143Y-47197143D02*
X154569286Y-47268571D01*
X154212143Y-47268571D01*
X154069286Y-47197143D01*
X153997857Y-47054286D01*
X153997857Y-46911429D01*
X154069286Y-46768571D01*
X154212143Y-46697143D01*
X154569286Y-46697143D01*
X154712143Y-46625714D01*
X155212143Y-46268571D02*
X155783572Y-46268571D01*
X155426429Y-45768571D02*
X155426429Y-47054286D01*
X155497857Y-47197143D01*
X155640715Y-47268571D01*
X155783572Y-47268571D01*
X156855000Y-47197143D02*
X156712143Y-47268571D01*
X156426429Y-47268571D01*
X156283572Y-47197143D01*
X156212143Y-47054286D01*
X156212143Y-46482857D01*
X156283572Y-46340000D01*
X156426429Y-46268571D01*
X156712143Y-46268571D01*
X156855000Y-46340000D01*
X156926429Y-46482857D01*
X156926429Y-46625714D01*
X156212143Y-46768571D01*
X157426429Y-46268571D02*
X157712143Y-47268571D01*
X157997857Y-46554286D01*
X158283572Y-47268571D01*
X158569286Y-46268571D01*
X159783572Y-47268571D02*
X159783572Y-46482857D01*
X159712143Y-46340000D01*
X159569286Y-46268571D01*
X159283572Y-46268571D01*
X159140715Y-46340000D01*
X159783572Y-47197143D02*
X159640715Y-47268571D01*
X159283572Y-47268571D01*
X159140715Y-47197143D01*
X159069286Y-47054286D01*
X159069286Y-46911429D01*
X159140715Y-46768571D01*
X159283572Y-46697143D01*
X159640715Y-46697143D01*
X159783572Y-46625714D01*
X160355001Y-46268571D02*
X160712144Y-47268571D01*
X161069286Y-46268571D02*
X160712144Y-47268571D01*
X160569286Y-47625714D01*
X160497858Y-47697143D01*
X160355001Y-47768571D01*
D11*
X161825000Y-96120000D02*
X161825000Y-85960000D01*
X150395000Y-85960000D02*
X150395000Y-96120000D01*
X146585000Y-96120000D02*
X146585000Y-85960000D01*
X135155000Y-85960000D02*
X135155000Y-96120000D01*
D13*
X137941429Y-90718571D02*
X137941429Y-92218571D01*
X138655715Y-91504286D02*
X138727143Y-91647143D01*
X138870000Y-91718571D01*
X137941429Y-91504286D02*
X138012857Y-91647143D01*
X138155715Y-91718571D01*
X138441429Y-91718571D01*
X138584286Y-91647143D01*
X138655715Y-91504286D01*
X138655715Y-90718571D01*
X139512858Y-91718571D02*
X139512858Y-90218571D01*
X140084286Y-90218571D01*
X140227144Y-90290000D01*
X140298572Y-90361429D01*
X140370001Y-90504286D01*
X140370001Y-90718571D01*
X140298572Y-90861429D01*
X140227144Y-90932857D01*
X140084286Y-91004286D01*
X139512858Y-91004286D01*
X141227144Y-91718571D02*
X141084286Y-91647143D01*
X141012858Y-91504286D01*
X141012858Y-90218571D01*
X142441429Y-90718571D02*
X142441429Y-91718571D01*
X141798572Y-90718571D02*
X141798572Y-91504286D01*
X141870000Y-91647143D01*
X142012858Y-91718571D01*
X142227143Y-91718571D01*
X142370000Y-91647143D01*
X142441429Y-91575714D01*
X143798572Y-90718571D02*
X143798572Y-91932857D01*
X143727143Y-92075714D01*
X143655715Y-92147143D01*
X143512858Y-92218571D01*
X143298572Y-92218571D01*
X143155715Y-92147143D01*
X143798572Y-91647143D02*
X143655715Y-91718571D01*
X143370001Y-91718571D01*
X143227143Y-91647143D01*
X143155715Y-91575714D01*
X143084286Y-91432857D01*
X143084286Y-91004286D01*
X143155715Y-90861429D01*
X143227143Y-90790000D01*
X143370001Y-90718571D01*
X143655715Y-90718571D01*
X143798572Y-90790000D01*
X153181429Y-90718571D02*
X153181429Y-92218571D01*
X153895715Y-91504286D02*
X153967143Y-91647143D01*
X154110000Y-91718571D01*
X153181429Y-91504286D02*
X153252857Y-91647143D01*
X153395715Y-91718571D01*
X153681429Y-91718571D01*
X153824286Y-91647143D01*
X153895715Y-91504286D01*
X153895715Y-90718571D01*
X154752858Y-91718571D02*
X154752858Y-90218571D01*
X155324286Y-90218571D01*
X155467144Y-90290000D01*
X155538572Y-90361429D01*
X155610001Y-90504286D01*
X155610001Y-90718571D01*
X155538572Y-90861429D01*
X155467144Y-90932857D01*
X155324286Y-91004286D01*
X154752858Y-91004286D01*
X156467144Y-91718571D02*
X156324286Y-91647143D01*
X156252858Y-91504286D01*
X156252858Y-90218571D01*
X157681429Y-90718571D02*
X157681429Y-91718571D01*
X157038572Y-90718571D02*
X157038572Y-91504286D01*
X157110000Y-91647143D01*
X157252858Y-91718571D01*
X157467143Y-91718571D01*
X157610000Y-91647143D01*
X157681429Y-91575714D01*
X159038572Y-90718571D02*
X159038572Y-91932857D01*
X158967143Y-92075714D01*
X158895715Y-92147143D01*
X158752858Y-92218571D01*
X158538572Y-92218571D01*
X158395715Y-92147143D01*
X159038572Y-91647143D02*
X158895715Y-91718571D01*
X158610001Y-91718571D01*
X158467143Y-91647143D01*
X158395715Y-91575714D01*
X158324286Y-91432857D01*
X158324286Y-91004286D01*
X158395715Y-90861429D01*
X158467143Y-90790000D01*
X158610001Y-90718571D01*
X158895715Y-90718571D01*
X159038572Y-90790000D01*
D12*
X157775000Y-64970000D02*
X157775000Y-63770000D01*
X159525000Y-63770000D02*
X159525000Y-64970000D01*
X144615000Y-71745000D02*
X144615000Y-72020000D01*
X152365000Y-71745000D02*
X152365000Y-72100000D01*
X152365000Y-82395000D02*
X152365000Y-82040000D01*
X144615000Y-82395000D02*
X144615000Y-82040000D01*
X144615000Y-71745000D02*
X152365000Y-71745000D01*
X144615000Y-82395000D02*
X152365000Y-82395000D01*
X144615000Y-72020000D02*
X143090000Y-72020000D01*
D14*
X163215000Y-64370000D02*
X163215000Y-61710000D01*
X163215000Y-61710000D02*
X160435000Y-61710000D01*
X160435000Y-61710000D02*
X160435000Y-64370000D01*
X160435000Y-64370000D02*
X163215000Y-64370000D01*
X163215000Y-65640000D02*
X163215000Y-67030000D01*
X163215000Y-67030000D02*
X161825000Y-67030000D01*
X153570000Y-88620000D02*
X161310000Y-88620000D01*
X161310000Y-88620000D02*
X161310000Y-85840000D01*
X161310000Y-85840000D02*
X153570000Y-85840000D01*
X153570000Y-85840000D02*
X153570000Y-88620000D01*
X152300000Y-88620000D02*
X150910000Y-88620000D01*
X150910000Y-88620000D02*
X150910000Y-87230000D01*
X138330000Y-88620000D02*
X146070000Y-88620000D01*
X146070000Y-88620000D02*
X146070000Y-85840000D01*
X146070000Y-85840000D02*
X138330000Y-85840000D01*
X138330000Y-85840000D02*
X138330000Y-88620000D01*
X137060000Y-88620000D02*
X135670000Y-88620000D01*
X135670000Y-88620000D02*
X135670000Y-87230000D01*
D12*
X145950000Y-54845000D02*
X145950000Y-56750000D01*
X149125000Y-54845000D02*
X145950000Y-54845000D01*
X149125000Y-56750000D02*
X149125000Y-54845000D01*
X145950000Y-56750000D02*
X149125000Y-56750000D01*
X145950000Y-58655000D02*
X145950000Y-63735000D01*
X151665000Y-58655000D02*
X145950000Y-58655000D01*
X151665000Y-63735000D02*
X151665000Y-58655000D01*
X145950000Y-63735000D02*
X151665000Y-63735000D01*
X140490000Y-51290000D02*
X140490000Y-67290000D01*
X156490000Y-51290000D02*
X140490000Y-51290000D01*
X156490000Y-67290000D02*
X156490000Y-51290000D01*
X140490000Y-67290000D02*
X156490000Y-67290000D01*
D15*
X159750000Y-50065000D02*
X159750000Y-49465000D01*
X160150000Y-50065000D02*
X159650000Y-50065000D01*
X160150000Y-50065000D02*
X160150000Y-49465000D01*
X160150000Y-49465000D02*
X159650000Y-49465000D01*
X158850000Y-49765000D02*
G75*
G03X158850000Y-49765000I-200000J0D01*
G01*
X159650000Y-49765000D02*
G75*
G03X159650000Y-49765000I-1000000J0D01*
G01*
X157350000Y-48465000D02*
X157350000Y-51065000D01*
X157350000Y-51065000D02*
X159950000Y-51065000D01*
X159950000Y-51065000D02*
X159950000Y-48465000D01*
X159950000Y-48465000D02*
X157350000Y-48465000D01*
D14*
X156110000Y-110550000D02*
X148510000Y-110550000D01*
X148510000Y-110550000D02*
X148510000Y-98750000D01*
X148510000Y-98750000D02*
X149710000Y-98750000D01*
X149710000Y-98750000D02*
X149710000Y-103250000D01*
X149710000Y-103250000D02*
X156110000Y-103250000D01*
X156110000Y-110550000D02*
X163710000Y-110550000D01*
X163710000Y-110550000D02*
X163710000Y-98750000D01*
X163710000Y-98750000D02*
X162510000Y-98750000D01*
X162510000Y-98750000D02*
X162510000Y-103250000D01*
X162510000Y-103250000D02*
X156110000Y-103250000D01*
X151110000Y-99700000D02*
X150810000Y-99100000D01*
X150810000Y-99100000D02*
X151410000Y-99100000D01*
X151410000Y-99100000D02*
X151110000Y-99700000D01*
X140950000Y-110550000D02*
X133350000Y-110550000D01*
X133350000Y-110550000D02*
X133350000Y-98750000D01*
X133350000Y-98750000D02*
X134550000Y-98750000D01*
X134550000Y-98750000D02*
X134550000Y-103250000D01*
X134550000Y-103250000D02*
X140950000Y-103250000D01*
X140950000Y-110550000D02*
X148550000Y-110550000D01*
X148550000Y-110550000D02*
X148550000Y-98750000D01*
X148550000Y-98750000D02*
X147350000Y-98750000D01*
X147350000Y-98750000D02*
X147350000Y-103250000D01*
X147350000Y-103250000D02*
X140950000Y-103250000D01*
X135950000Y-99700000D02*
X135650000Y-99100000D01*
X135650000Y-99100000D02*
X136250000Y-99100000D01*
X136250000Y-99100000D02*
X135950000Y-99700000D01*
D12*
X128181100Y-48503600D02*
X132181100Y-44503600D01*
X168821100Y-105003600D02*
X168821100Y-44503600D01*
X168821100Y-44503600D02*
X132181100Y-44503600D01*
X128181100Y-48503600D02*
X128181100Y-105003600D01*
X128181100Y-105003600D02*
X168821100Y-105003600D01*
X158483334Y-61647381D02*
X158150000Y-61171190D01*
X157911905Y-61647381D02*
X157911905Y-60647381D01*
X158292858Y-60647381D01*
X158388096Y-60695000D01*
X158435715Y-60742619D01*
X158483334Y-60837857D01*
X158483334Y-60980714D01*
X158435715Y-61075952D01*
X158388096Y-61123571D01*
X158292858Y-61171190D01*
X157911905Y-61171190D01*
X159435715Y-61647381D02*
X158864286Y-61647381D01*
X159150000Y-61647381D02*
X159150000Y-60647381D01*
X159054762Y-60790238D01*
X158959524Y-60885476D01*
X158864286Y-60933095D01*
M02*
