M48
INCH,TZ
T1C0.016
T2C0.030
T3C0.035
T4C0.039
%
G90
G05
T1
X51461Y-22343
X52663Y-27343
X52833Y-38720
X52907Y-39146
X54461Y-27093
X56211Y-21593
X56461Y-23343
X56711Y-24843
X57461Y-22843
X57461Y-25093
X57711Y-24343
X58461Y-22093
X58461Y-33343
X58961Y-23843
X59211Y-25343
X59711Y-21593
X60211Y-23593
X60711Y-22843
X60711Y-24843
X61211Y-25593
X61461Y-33593
X61716Y-35059
X61961Y-21093
X62711Y-26593
X62711Y-31843
X63313Y-28550
X63336Y-32843
X63336Y-33343
X64086Y-26593
X65461Y-27343
X65461Y-34343
T2
X50965Y-21840
X50965Y-22840
X50965Y-23840
X50965Y-24840
X50965Y-25840
X50965Y-26840
X50965Y-27840
X50965Y-28840
X50965Y-29840
X50965Y-30840
X50965Y-31840
X50965Y-32840
X50965Y-33840
X50965Y-34840
X50965Y-35840
X50965Y-36840
X50965Y-37840
X50965Y-38840
X50965Y-39840
X50965Y-40840
X51965Y-21840
X51965Y-22840
X51965Y-23840
X51965Y-24840
X51965Y-25840
X51965Y-26840
X51965Y-27840
X51965Y-28840
X51965Y-29840
X51965Y-30840
X51965Y-31840
X51965Y-32840
X51965Y-33840
X51965Y-34840
X51965Y-35840
X51965Y-36840
X51965Y-37840
X51965Y-38840
X51965Y-39840
X51965Y-40840
X61870Y-19593
X64965Y-21840
X64965Y-22840
X64965Y-23840
X64965Y-24840
X64965Y-25840
X64965Y-26840
X64965Y-27840
X64965Y-28840
X64965Y-29840
X64965Y-30840
X64965Y-31840
X64965Y-32840
X64965Y-33840
X64965Y-34840
X64965Y-35840
X64965Y-36840
X64965Y-37840
X64965Y-38840
X64965Y-39840
X64965Y-40840
X65965Y-21840
X65965Y-22840
X65965Y-23840
X65965Y-24840
X65965Y-25840
X65965Y-26840
X65965Y-27840
X65965Y-28840
X65965Y-29840
X65965Y-30840
X65965Y-31840
X65965Y-32840
X65965Y-33840
X65965Y-34840
X65965Y-35840
X65965Y-36840
X65965Y-37840
X65965Y-38840
X65965Y-39840
X65965Y-40840
T3
X53524Y-39843
X54508Y-39843
X55492Y-39843
X56476Y-39843
X57461Y-39843
X59492Y-39843
X60476Y-39843
X61461Y-39843
X62445Y-39843
X63429Y-39843
T4
X53961Y-34343
X54961Y-34343
X55961Y-34343
X56961Y-34343
X59961Y-34343
X60961Y-34343
X61961Y-34343
X62961Y-34343
X63711Y-24843
X63711Y-25843
T0
M30
