G04 #@! TF.FileFunction,Soldermask,Bot*
%FSLAX46Y46*%
G04 Gerber Fmt 4.6, Leading zero omitted, Abs format (unit mm)*
G04 Created by KiCad (PCBNEW 4.0.5) date Sunday, 19 February 2017 'PMt' 19:45:40*
%MOMM*%
%LPD*%
G01*
G04 APERTURE LIST*
%ADD10C,0.100000*%
%ADD11R,2.100000X2.100000*%
%ADD12O,2.100000X2.100000*%
%ADD13C,2.100000*%
%ADD14R,2.400000X6.400000*%
%ADD15R,10.400000X10.400000*%
%ADD16C,1.900000*%
%ADD17C,2.150000*%
%ADD18C,1.924000*%
G04 APERTURE END LIST*
D10*
D11*
X161825000Y-65640000D03*
D12*
X161825000Y-63100000D03*
D13*
X152300000Y-87230000D03*
D12*
X154840000Y-87230000D03*
X157380000Y-87230000D03*
X159920000Y-87230000D03*
D13*
X137060000Y-87230000D03*
D12*
X139600000Y-87230000D03*
X142140000Y-87230000D03*
X144680000Y-87230000D03*
D14*
X137615000Y-77070000D03*
X159365000Y-77070000D03*
D15*
X148490000Y-77070000D03*
D16*
X157150000Y-49765000D03*
D17*
X151110000Y-101200000D03*
X153610000Y-101200000D03*
X156110000Y-101200000D03*
X158610000Y-101200000D03*
X161110000Y-101200000D03*
X135950000Y-101200000D03*
X138450000Y-101200000D03*
X140950000Y-101200000D03*
X143450000Y-101200000D03*
X145950000Y-101200000D03*
D18*
X129451100Y-55473600D03*
X131991100Y-55473600D03*
X129451100Y-58013600D03*
X131991100Y-58013600D03*
X129451100Y-60553600D03*
X131991100Y-60553600D03*
X129451100Y-63093600D03*
X131991100Y-63093600D03*
X129451100Y-65633600D03*
X131991100Y-65633600D03*
X129451100Y-68173600D03*
X131991100Y-68173600D03*
X129451100Y-70713600D03*
X131991100Y-70713600D03*
X129451100Y-73253600D03*
X131991100Y-73253600D03*
X129451100Y-75793600D03*
X131991100Y-75793600D03*
X129451100Y-78333600D03*
X131991100Y-78333600D03*
X129451100Y-80873600D03*
X131991100Y-80873600D03*
X129451100Y-83413600D03*
X131991100Y-83413600D03*
X129451100Y-85953600D03*
X131991100Y-85953600D03*
X129451100Y-88493600D03*
X131991100Y-88493600D03*
X129451100Y-91033600D03*
X131991100Y-91033600D03*
X129451100Y-93573600D03*
X131991100Y-93573600D03*
X129451100Y-96113600D03*
X131991100Y-96113600D03*
X129451100Y-98653600D03*
X131991100Y-98653600D03*
X129451100Y-101193600D03*
X131991100Y-101193600D03*
X129451100Y-103733600D03*
X131991100Y-103733600D03*
X165011100Y-55473600D03*
X167551100Y-55473600D03*
X165011100Y-58013600D03*
X167551100Y-58013600D03*
X165011100Y-60553600D03*
X167551100Y-60553600D03*
X165011100Y-63093600D03*
X167551100Y-63093600D03*
X165011100Y-65633600D03*
X167551100Y-65633600D03*
X165011100Y-68173600D03*
X167551100Y-68173600D03*
X165011100Y-70713600D03*
X167551100Y-70713600D03*
X165011100Y-73253600D03*
X167551100Y-73253600D03*
X165011100Y-75793600D03*
X167551100Y-75793600D03*
X165011100Y-78333600D03*
X167551100Y-78333600D03*
X165011100Y-80873600D03*
X167551100Y-80873600D03*
X165011100Y-83413600D03*
X167551100Y-83413600D03*
X165011100Y-85953600D03*
X167551100Y-85953600D03*
X165011100Y-88493600D03*
X167551100Y-88493600D03*
X165011100Y-91033600D03*
X167551100Y-91033600D03*
X165011100Y-93573600D03*
X167551100Y-93573600D03*
X165011100Y-96113600D03*
X167551100Y-96113600D03*
X165011100Y-98653600D03*
X167551100Y-98653600D03*
X165011100Y-101193600D03*
X167551100Y-101193600D03*
X165011100Y-103733600D03*
X167551100Y-103733600D03*
M02*
