G04 #@! TF.FileFunction,Copper,L2,Bot,Signal*
%FSLAX46Y46*%
G04 Gerber Fmt 4.6, Leading zero omitted, Abs format (unit mm)*
G04 Created by KiCad (PCBNEW 4.0.5) date Sunday, 26 February 2017 'PMt' 15:03:11*
%MOMM*%
%LPD*%
G01*
G04 APERTURE LIST*
%ADD10C,0.100000*%
%ADD11R,1.700000X1.700000*%
%ADD12O,1.700000X1.700000*%
%ADD13C,1.700000*%
%ADD14R,2.000000X6.000000*%
%ADD15R,10.000000X10.000000*%
%ADD16C,1.500000*%
%ADD17C,1.750000*%
%ADD18C,1.524000*%
%ADD19C,0.600000*%
%ADD20C,0.254000*%
%ADD21C,0.250000*%
%ADD22C,0.508000*%
G04 APERTURE END LIST*
D10*
D11*
X161825000Y-65640000D03*
D12*
X161825000Y-63100000D03*
D13*
X152300000Y-87230000D03*
D12*
X154840000Y-87230000D03*
X157380000Y-87230000D03*
X159920000Y-87230000D03*
D13*
X137060000Y-87230000D03*
D12*
X139600000Y-87230000D03*
X142140000Y-87230000D03*
X144680000Y-87230000D03*
D14*
X137615000Y-77070000D03*
X159365000Y-77070000D03*
D15*
X148490000Y-77070000D03*
D16*
X157150000Y-49765000D03*
D17*
X151110000Y-101200000D03*
X153610000Y-101200000D03*
X156110000Y-101200000D03*
X158610000Y-101200000D03*
X161110000Y-101200000D03*
X135950000Y-101200000D03*
X138450000Y-101200000D03*
X140950000Y-101200000D03*
X143450000Y-101200000D03*
X145950000Y-101200000D03*
D18*
X129451100Y-55473600D03*
X131991100Y-55473600D03*
X129451100Y-58013600D03*
X131991100Y-58013600D03*
X129451100Y-60553600D03*
X131991100Y-60553600D03*
X129451100Y-63093600D03*
X131991100Y-63093600D03*
X129451100Y-65633600D03*
X131991100Y-65633600D03*
X129451100Y-68173600D03*
X131991100Y-68173600D03*
X129451100Y-70713600D03*
X131991100Y-70713600D03*
X129451100Y-73253600D03*
X131991100Y-73253600D03*
X129451100Y-75793600D03*
X131991100Y-75793600D03*
X129451100Y-78333600D03*
X131991100Y-78333600D03*
X129451100Y-80873600D03*
X131991100Y-80873600D03*
X129451100Y-83413600D03*
X131991100Y-83413600D03*
X129451100Y-85953600D03*
X131991100Y-85953600D03*
X129451100Y-88493600D03*
X131991100Y-88493600D03*
X129451100Y-91033600D03*
X131991100Y-91033600D03*
X129451100Y-93573600D03*
X131991100Y-93573600D03*
X129451100Y-96113600D03*
X131991100Y-96113600D03*
X129451100Y-98653600D03*
X131991100Y-98653600D03*
X129451100Y-101193600D03*
X131991100Y-101193600D03*
X129451100Y-103733600D03*
X131991100Y-103733600D03*
X165011100Y-55473600D03*
X167551100Y-55473600D03*
X165011100Y-58013600D03*
X167551100Y-58013600D03*
X165011100Y-60553600D03*
X167551100Y-60553600D03*
X165011100Y-63093600D03*
X167551100Y-63093600D03*
X165011100Y-65633600D03*
X167551100Y-65633600D03*
X165011100Y-68173600D03*
X167551100Y-68173600D03*
X165011100Y-70713600D03*
X167551100Y-70713600D03*
X165011100Y-73253600D03*
X167551100Y-73253600D03*
X165011100Y-75793600D03*
X167551100Y-75793600D03*
X165011100Y-78333600D03*
X167551100Y-78333600D03*
X165011100Y-80873600D03*
X167551100Y-80873600D03*
X165011100Y-83413600D03*
X167551100Y-83413600D03*
X165011100Y-85953600D03*
X167551100Y-85953600D03*
X165011100Y-88493600D03*
X167551100Y-88493600D03*
X165011100Y-91033600D03*
X167551100Y-91033600D03*
X165011100Y-93573600D03*
X167551100Y-93573600D03*
X165011100Y-96113600D03*
X167551100Y-96113600D03*
X165011100Y-98653600D03*
X167551100Y-98653600D03*
X165011100Y-101193600D03*
X167551100Y-101193600D03*
X165011100Y-103733600D03*
X167551100Y-103733600D03*
D19*
X166270000Y-69450000D03*
X151665000Y-54845000D03*
X148490000Y-56115000D03*
X142775000Y-54845000D03*
X143410000Y-59290000D03*
X145950000Y-58020000D03*
X152935000Y-59925000D03*
X154205000Y-58020000D03*
X149760000Y-60560000D03*
X146585000Y-61830000D03*
X144045000Y-63100000D03*
X145950000Y-63735000D03*
X150395000Y-64370000D03*
X154205000Y-63100000D03*
X155475000Y-65005000D03*
X148490000Y-84690000D03*
X159285000Y-80880000D03*
X133762790Y-69450000D03*
X138330000Y-68815000D03*
X130710000Y-56750000D03*
X157380000Y-53575000D03*
X160813790Y-72517273D03*
X159285000Y-67545000D03*
X160872500Y-83420000D03*
X160872500Y-84690000D03*
X166270000Y-87230000D03*
X134384479Y-99430521D03*
X134195105Y-98349895D03*
X162777500Y-67545000D03*
X156110000Y-85325000D03*
X156757621Y-89049991D03*
D20*
X166270000Y-79592500D02*
X166270000Y-69450000D01*
X167551100Y-80873600D02*
X166270000Y-79592500D01*
X148490000Y-56115000D02*
X150395000Y-56115000D01*
X150395000Y-56115000D02*
X151665000Y-54845000D01*
X143410000Y-59290000D02*
X143410000Y-55480000D01*
X143410000Y-55480000D02*
X142775000Y-54845000D01*
X150395000Y-62465000D02*
X145950000Y-58020000D01*
X152935000Y-59925000D02*
X150395000Y-62465000D01*
X149760000Y-60560000D02*
X152300000Y-58020000D01*
X152300000Y-58020000D02*
X154205000Y-58020000D01*
X144045000Y-63100000D02*
X145315000Y-63100000D01*
X145315000Y-63100000D02*
X146585000Y-61830000D01*
X150395000Y-64370000D02*
X149760000Y-63735000D01*
X149760000Y-63735000D02*
X145950000Y-63735000D01*
X155475000Y-65005000D02*
X155475000Y-64370000D01*
X155475000Y-64370000D02*
X154205000Y-63100000D01*
X148490000Y-75800000D02*
X148490000Y-84690000D01*
X140711000Y-70720000D02*
X149506000Y-70720000D01*
X149506000Y-70720000D02*
X149760000Y-70720000D01*
X159365000Y-73816000D02*
X156269000Y-70720000D01*
X159365000Y-77070000D02*
X159365000Y-73816000D01*
X156269000Y-70720000D02*
X149506000Y-70720000D01*
X137615000Y-77070000D02*
X137615000Y-73816000D01*
X137615000Y-73816000D02*
X140711000Y-70720000D01*
X159365000Y-77070000D02*
X159365000Y-80800000D01*
X159365000Y-80800000D02*
X159285000Y-80880000D01*
X159285000Y-75880000D02*
X159365000Y-75800000D01*
X133762790Y-69450000D02*
X133762790Y-67422790D01*
X133762790Y-67422790D02*
X133250000Y-66910000D01*
X129451100Y-65633600D02*
X130727500Y-66910000D01*
X130727500Y-66910000D02*
X133250000Y-66910000D01*
X137060000Y-87230000D02*
X138330000Y-88500000D01*
X145246497Y-86049799D02*
X146426698Y-87230000D01*
X138330000Y-88500000D02*
X142616698Y-88500000D01*
X142616698Y-88500000D02*
X143410000Y-87706698D01*
X143410000Y-86753302D02*
X144113503Y-86049799D01*
X143410000Y-87706698D02*
X143410000Y-86753302D01*
X144113503Y-86049799D02*
X145246497Y-86049799D01*
X146426698Y-87230000D02*
X152300000Y-87230000D01*
X158650000Y-53575000D02*
X159920000Y-54845000D01*
X157380000Y-53575000D02*
X158650000Y-53575000D01*
X159285000Y-54210000D02*
X159920000Y-54845000D01*
X159920000Y-54845000D02*
X163730000Y-58655000D01*
X164231601Y-64871601D02*
X164249101Y-64871601D01*
X163730000Y-58655000D02*
X163730000Y-64370000D01*
X163730000Y-64370000D02*
X164231601Y-64871601D01*
X164249101Y-64871601D02*
X165011100Y-65633600D01*
X159920000Y-87230000D02*
X159920000Y-88500000D01*
X159920000Y-88500000D02*
X158739799Y-89680201D01*
X158739799Y-89680201D02*
X147130201Y-89680201D01*
X147130201Y-89680201D02*
X145315000Y-87865000D01*
X145315000Y-87865000D02*
X144680000Y-87230000D01*
D21*
X160513791Y-72217274D02*
X160813790Y-72517273D01*
X159285000Y-70988483D02*
X160513791Y-72217274D01*
X159285000Y-67545000D02*
X159285000Y-70988483D01*
D20*
X166287500Y-84690000D02*
X164047500Y-84690000D01*
X164047500Y-84690000D02*
X162142500Y-84690000D01*
X162142500Y-84690000D02*
X160872500Y-83420000D01*
X167551100Y-85953600D02*
X166287500Y-84690000D01*
X160872500Y-84690000D02*
X161329710Y-85147210D01*
X161329710Y-85147210D02*
X164204710Y-85147210D01*
X164204710Y-85147210D02*
X165011100Y-85953600D01*
X166270000Y-89770000D02*
X166270000Y-87230000D01*
X166771601Y-90271601D02*
X166270000Y-89770000D01*
X167551100Y-91033600D02*
X166789101Y-90271601D01*
X166789101Y-90271601D02*
X166771601Y-90271601D01*
X167551100Y-91033600D02*
X166898600Y-91033600D01*
X133250000Y-98296042D02*
X134084480Y-99130522D01*
X130727500Y-78957500D02*
X131345000Y-79575000D01*
X134084480Y-99130522D02*
X134384479Y-99430521D01*
X129451100Y-75793600D02*
X130727500Y-77070000D01*
X130727500Y-77070000D02*
X130727500Y-78957500D01*
X133250000Y-80245000D02*
X133250000Y-98296042D01*
X132580000Y-79575000D02*
X133250000Y-80245000D01*
X131345000Y-79575000D02*
X132580000Y-79575000D01*
X133895106Y-98049896D02*
X134195105Y-98349895D01*
X133885000Y-98039790D02*
X133895106Y-98049896D01*
X133885000Y-80227500D02*
X133885000Y-98039790D01*
X131991100Y-78333600D02*
X133885000Y-80227500D01*
X156110000Y-85325000D02*
X162460000Y-78975000D01*
X162460000Y-78975000D02*
X162460000Y-67862500D01*
X162460000Y-67862500D02*
X162777500Y-67545000D01*
X156110000Y-86277500D02*
X156110000Y-88402370D01*
X156757621Y-89049991D02*
X156110000Y-88402370D01*
X156110000Y-86277500D02*
X163095000Y-79292500D01*
X163095000Y-68180000D02*
X164365000Y-66910000D01*
X163095000Y-79292500D02*
X163095000Y-68180000D01*
X166270000Y-61812500D02*
X165011100Y-60553600D01*
X164365000Y-66910000D02*
X165635000Y-66910000D01*
X165635000Y-66910000D02*
X166270000Y-66275000D01*
X166270000Y-66275000D02*
X166270000Y-61812500D01*
D22*
X129451100Y-58013600D02*
X130727500Y-59290000D01*
X130727500Y-59290000D02*
X130727500Y-63717500D01*
X130727500Y-63717500D02*
X130710000Y-63735000D01*
X130710000Y-63735000D02*
X131345000Y-64370000D01*
X131345000Y-64370000D02*
X132615000Y-64370000D01*
X132615000Y-64370000D02*
X134520000Y-66275000D01*
X134520000Y-66275000D02*
X134520000Y-97390000D01*
X134520000Y-97390000D02*
X135950000Y-98820000D01*
X135950000Y-98820000D02*
X135950000Y-101200000D01*
X149953000Y-103740000D02*
X137107000Y-103740000D01*
X137107000Y-103740000D02*
X135950000Y-102583000D01*
X135950000Y-102583000D02*
X135950000Y-101200000D01*
X151110000Y-101200000D02*
X151110000Y-102583000D01*
X151110000Y-102583000D02*
X149953000Y-103740000D01*
D20*
G36*
X139803200Y-67545000D02*
X139832730Y-67701941D01*
X139925482Y-67846082D01*
X140067006Y-67942780D01*
X140235000Y-67976800D01*
X156745000Y-67976800D01*
X156901941Y-67947270D01*
X157046082Y-67854518D01*
X157142780Y-67712994D01*
X157149488Y-67679865D01*
X158603882Y-67679865D01*
X158707339Y-67930252D01*
X158779000Y-68002038D01*
X158779000Y-70988483D01*
X158817517Y-71182121D01*
X158927204Y-71346279D01*
X160132759Y-72551834D01*
X160132672Y-72652138D01*
X160236129Y-72902525D01*
X160427531Y-73094260D01*
X160677736Y-73198155D01*
X160948655Y-73198391D01*
X161199042Y-73094934D01*
X161390777Y-72903532D01*
X161494672Y-72653327D01*
X161494908Y-72382408D01*
X161391451Y-72132021D01*
X161200049Y-71940286D01*
X160949844Y-71836391D01*
X160848412Y-71836303D01*
X159791000Y-70778891D01*
X159791000Y-68002123D01*
X159861987Y-67931259D01*
X159965882Y-67681054D01*
X159966118Y-67410135D01*
X159862661Y-67159748D01*
X159671259Y-66968013D01*
X159421054Y-66864118D01*
X159150135Y-66863882D01*
X158899748Y-66967339D01*
X158708013Y-67158741D01*
X158604118Y-67408946D01*
X158603882Y-67679865D01*
X157149488Y-67679865D01*
X157176800Y-67545000D01*
X157176800Y-63100000D01*
X160569883Y-63100000D01*
X160663587Y-63571083D01*
X160930435Y-63970448D01*
X161329800Y-64237296D01*
X161800883Y-64331000D01*
X161849117Y-64331000D01*
X162320200Y-64237296D01*
X162719565Y-63970448D01*
X162986413Y-63571083D01*
X163080117Y-63100000D01*
X162986413Y-62628917D01*
X162719565Y-62229552D01*
X162320200Y-61962704D01*
X161849117Y-61869000D01*
X161800883Y-61869000D01*
X161329800Y-61962704D01*
X160930435Y-62229552D01*
X160663587Y-62628917D01*
X160569883Y-63100000D01*
X157176800Y-63100000D01*
X157176800Y-60103858D01*
X159040699Y-58239959D01*
X163867902Y-58239959D01*
X164041546Y-58660212D01*
X164362797Y-58982023D01*
X164782746Y-59156401D01*
X165237459Y-59156798D01*
X165657712Y-58983154D01*
X165979523Y-58661903D01*
X166153901Y-58241954D01*
X166154298Y-57787241D01*
X165980654Y-57366988D01*
X165659403Y-57045177D01*
X165239454Y-56870799D01*
X164784741Y-56870402D01*
X164364488Y-57044046D01*
X164042677Y-57365297D01*
X163868299Y-57785246D01*
X163867902Y-58239959D01*
X159040699Y-58239959D01*
X162614658Y-54666000D01*
X164202252Y-54666000D01*
X164042677Y-54825297D01*
X163868299Y-55245246D01*
X163867902Y-55699959D01*
X164041546Y-56120212D01*
X164362797Y-56442023D01*
X164782746Y-56616401D01*
X165237459Y-56616798D01*
X165657712Y-56443154D01*
X165979523Y-56121903D01*
X166153901Y-55701954D01*
X166154298Y-55247241D01*
X165980654Y-54826988D01*
X165819946Y-54666000D01*
X166742252Y-54666000D01*
X166582677Y-54825297D01*
X166408299Y-55245246D01*
X166407902Y-55699959D01*
X166581546Y-56120212D01*
X166902797Y-56442023D01*
X167322746Y-56616401D01*
X167777459Y-56616798D01*
X168197712Y-56443154D01*
X168354000Y-56287138D01*
X168354000Y-57200043D01*
X168199403Y-57045177D01*
X167779454Y-56870799D01*
X167324741Y-56870402D01*
X166904488Y-57044046D01*
X166582677Y-57365297D01*
X166408299Y-57785246D01*
X166407902Y-58239959D01*
X166581546Y-58660212D01*
X166902797Y-58982023D01*
X167322746Y-59156401D01*
X167777459Y-59156798D01*
X168197712Y-58983154D01*
X168354000Y-58827138D01*
X168354000Y-59740043D01*
X168199403Y-59585177D01*
X167779454Y-59410799D01*
X167324741Y-59410402D01*
X166904488Y-59584046D01*
X166582677Y-59905297D01*
X166408299Y-60325246D01*
X166407902Y-60779959D01*
X166581546Y-61200212D01*
X166902797Y-61522023D01*
X167322746Y-61696401D01*
X167777459Y-61696798D01*
X168197712Y-61523154D01*
X168354000Y-61367138D01*
X168354000Y-62280043D01*
X168199403Y-62125177D01*
X167779454Y-61950799D01*
X167324741Y-61950402D01*
X166904488Y-62124046D01*
X166778000Y-62250314D01*
X166778000Y-61812500D01*
X166739331Y-61618097D01*
X166675136Y-61522023D01*
X166629210Y-61453289D01*
X166096386Y-60920465D01*
X166153901Y-60781954D01*
X166154298Y-60327241D01*
X165980654Y-59906988D01*
X165659403Y-59585177D01*
X165239454Y-59410799D01*
X164784741Y-59410402D01*
X164364488Y-59584046D01*
X164042677Y-59905297D01*
X163868299Y-60325246D01*
X163867902Y-60779959D01*
X164041546Y-61200212D01*
X164362797Y-61522023D01*
X164782746Y-61696401D01*
X165237459Y-61696798D01*
X165377864Y-61638784D01*
X165762000Y-62022921D01*
X165762000Y-62227953D01*
X165659403Y-62125177D01*
X165239454Y-61950799D01*
X164784741Y-61950402D01*
X164364488Y-62124046D01*
X164042677Y-62445297D01*
X163868299Y-62865246D01*
X163867902Y-63319959D01*
X164041546Y-63740212D01*
X164362797Y-64062023D01*
X164782746Y-64236401D01*
X165237459Y-64236798D01*
X165657712Y-64063154D01*
X165762000Y-63959047D01*
X165762000Y-64703092D01*
X165742216Y-64722876D01*
X165665797Y-64516421D01*
X165188436Y-64350919D01*
X164684077Y-64380694D01*
X164356403Y-64516421D01*
X164279983Y-64722878D01*
X165011100Y-65453995D01*
X165025243Y-65439853D01*
X165204848Y-65619458D01*
X165190705Y-65633600D01*
X165204848Y-65647743D01*
X165025243Y-65827348D01*
X165011100Y-65813205D01*
X164996958Y-65827348D01*
X164817353Y-65647743D01*
X164831495Y-65633600D01*
X164100378Y-64902483D01*
X163893921Y-64978903D01*
X163728419Y-65456264D01*
X163758194Y-65960623D01*
X163893921Y-66288297D01*
X164100376Y-66364716D01*
X164007436Y-66457656D01*
X164062606Y-66512826D01*
X164005790Y-66550790D01*
X163367345Y-67189235D01*
X163355161Y-67159748D01*
X163163759Y-66968013D01*
X162913554Y-66864118D01*
X162751990Y-66863977D01*
X162816190Y-66851897D01*
X162945865Y-66768454D01*
X163032859Y-66641134D01*
X163063464Y-66490000D01*
X163063464Y-64790000D01*
X163036897Y-64648810D01*
X162953454Y-64519135D01*
X162826134Y-64432141D01*
X162675000Y-64401536D01*
X160975000Y-64401536D01*
X160833810Y-64428103D01*
X160704135Y-64511546D01*
X160617141Y-64638866D01*
X160586536Y-64790000D01*
X160586536Y-66490000D01*
X160613103Y-66631190D01*
X160696546Y-66760865D01*
X160823866Y-66847859D01*
X160975000Y-66878464D01*
X162607344Y-66878464D01*
X162392248Y-66967339D01*
X162200513Y-67158741D01*
X162096618Y-67408946D01*
X162096530Y-67509665D01*
X161990669Y-67668097D01*
X161952000Y-67862500D01*
X161952000Y-78764580D01*
X160753464Y-79963116D01*
X160753464Y-74070000D01*
X160726897Y-73928810D01*
X160643454Y-73799135D01*
X160516134Y-73712141D01*
X160365000Y-73681536D01*
X159846254Y-73681536D01*
X159834331Y-73621597D01*
X159834331Y-73621596D01*
X159724210Y-73456790D01*
X156628210Y-70360790D01*
X156463403Y-70250669D01*
X156269000Y-70212000D01*
X140711000Y-70212000D01*
X140516596Y-70250669D01*
X140351790Y-70360790D01*
X137255790Y-73456790D01*
X137145669Y-73621597D01*
X137133746Y-73681536D01*
X136615000Y-73681536D01*
X136473810Y-73708103D01*
X136344135Y-73791546D01*
X136257141Y-73918866D01*
X136226536Y-74070000D01*
X136226536Y-80070000D01*
X136253103Y-80211190D01*
X136336546Y-80340865D01*
X136463866Y-80427859D01*
X136615000Y-80458464D01*
X138615000Y-80458464D01*
X138756190Y-80431897D01*
X138885865Y-80348454D01*
X138972859Y-80221134D01*
X139003464Y-80070000D01*
X139003464Y-74070000D01*
X138976897Y-73928810D01*
X138893454Y-73799135D01*
X138766134Y-73712141D01*
X138615000Y-73681536D01*
X138467884Y-73681536D01*
X140079420Y-72070000D01*
X143101536Y-72070000D01*
X143101536Y-82070000D01*
X143128103Y-82211190D01*
X143211546Y-82340865D01*
X143338866Y-82427859D01*
X143490000Y-82458464D01*
X147982000Y-82458464D01*
X147982000Y-84234874D01*
X147913013Y-84303741D01*
X147809118Y-84553946D01*
X147808882Y-84824865D01*
X147912339Y-85075252D01*
X148103741Y-85266987D01*
X148353946Y-85370882D01*
X148624865Y-85371118D01*
X148875252Y-85267661D01*
X149066987Y-85076259D01*
X149170882Y-84826054D01*
X149171118Y-84555135D01*
X149067661Y-84304748D01*
X148998000Y-84234966D01*
X148998000Y-82458464D01*
X153490000Y-82458464D01*
X153631190Y-82431897D01*
X153760865Y-82348454D01*
X153847859Y-82221134D01*
X153878464Y-82070000D01*
X153878464Y-72070000D01*
X153851897Y-71928810D01*
X153768454Y-71799135D01*
X153641134Y-71712141D01*
X153490000Y-71681536D01*
X143490000Y-71681536D01*
X143348810Y-71708103D01*
X143219135Y-71791546D01*
X143132141Y-71918866D01*
X143101536Y-72070000D01*
X140079420Y-72070000D01*
X140921420Y-71228000D01*
X156058580Y-71228000D01*
X158512116Y-73681536D01*
X158365000Y-73681536D01*
X158223810Y-73708103D01*
X158094135Y-73791546D01*
X158007141Y-73918866D01*
X157976536Y-74070000D01*
X157976536Y-80070000D01*
X158003103Y-80211190D01*
X158086546Y-80340865D01*
X158213866Y-80427859D01*
X158365000Y-80458464D01*
X158743351Y-80458464D01*
X158708013Y-80493741D01*
X158604118Y-80743946D01*
X158603882Y-81014865D01*
X158707339Y-81265252D01*
X158898741Y-81456987D01*
X159148946Y-81560882D01*
X159155692Y-81560888D01*
X156072613Y-84643967D01*
X155975135Y-84643882D01*
X155724748Y-84747339D01*
X155533013Y-84938741D01*
X155429118Y-85188946D01*
X155428882Y-85459865D01*
X155532339Y-85710252D01*
X155723741Y-85901987D01*
X155754373Y-85914707D01*
X155750790Y-85918290D01*
X155640669Y-86083097D01*
X155604551Y-86264676D01*
X155311083Y-86068587D01*
X154840000Y-85974883D01*
X154368917Y-86068587D01*
X153969552Y-86335435D01*
X153702704Y-86734800D01*
X153609000Y-87205883D01*
X153609000Y-87254117D01*
X153702704Y-87725200D01*
X153969552Y-88124565D01*
X154368917Y-88391413D01*
X154840000Y-88485117D01*
X155311083Y-88391413D01*
X155602000Y-88197028D01*
X155602000Y-88402370D01*
X155640669Y-88596773D01*
X155750790Y-88761580D01*
X156076588Y-89087378D01*
X156076514Y-89172201D01*
X147340621Y-89172201D01*
X145829959Y-87661539D01*
X145881368Y-87403090D01*
X146067488Y-87589210D01*
X146232294Y-87699331D01*
X146264548Y-87705746D01*
X146426698Y-87738000D01*
X151177957Y-87738000D01*
X151255800Y-87926395D01*
X151601784Y-88272983D01*
X152054065Y-88460786D01*
X152543787Y-88461213D01*
X152996395Y-88274200D01*
X153342983Y-87928216D01*
X153530786Y-87475935D01*
X153531213Y-86986213D01*
X153344200Y-86533605D01*
X152998216Y-86187017D01*
X152545935Y-85999214D01*
X152056213Y-85998787D01*
X151603605Y-86185800D01*
X151257017Y-86531784D01*
X151178033Y-86722000D01*
X146637118Y-86722000D01*
X145605707Y-85690589D01*
X145440900Y-85580468D01*
X145246497Y-85541799D01*
X144113503Y-85541799D01*
X143919100Y-85580468D01*
X143865113Y-85616541D01*
X143754292Y-85690589D01*
X143122681Y-86322201D01*
X142831976Y-86061513D01*
X142476943Y-85914465D01*
X142267000Y-86005569D01*
X142267000Y-87103000D01*
X142287000Y-87103000D01*
X142287000Y-87357000D01*
X142267000Y-87357000D01*
X142267000Y-87377000D01*
X142013000Y-87377000D01*
X142013000Y-87357000D01*
X141993000Y-87357000D01*
X141993000Y-87103000D01*
X142013000Y-87103000D01*
X142013000Y-86005569D01*
X141803057Y-85914465D01*
X141448024Y-86061513D01*
X141053537Y-86415266D01*
X140824454Y-86893055D01*
X140914940Y-87102998D01*
X140810535Y-87102998D01*
X140737296Y-86734800D01*
X140470448Y-86335435D01*
X140071083Y-86068587D01*
X139600000Y-85974883D01*
X139128917Y-86068587D01*
X138729552Y-86335435D01*
X138462704Y-86734800D01*
X138369000Y-87205883D01*
X138369000Y-87254117D01*
X138462704Y-87725200D01*
X138640975Y-87992000D01*
X138540420Y-87992000D01*
X138212614Y-87664194D01*
X138290786Y-87475935D01*
X138291213Y-86986213D01*
X138104200Y-86533605D01*
X137758216Y-86187017D01*
X137305935Y-85999214D01*
X136816213Y-85998787D01*
X136363605Y-86185800D01*
X136017017Y-86531784D01*
X135829214Y-86984065D01*
X135828787Y-87473787D01*
X136015800Y-87926395D01*
X136361784Y-88272983D01*
X136814065Y-88460786D01*
X137303787Y-88461213D01*
X137494141Y-88382561D01*
X137970790Y-88859210D01*
X138135596Y-88969331D01*
X138167850Y-88975746D01*
X138330000Y-89008000D01*
X142616698Y-89008000D01*
X142811101Y-88969331D01*
X142975908Y-88859210D01*
X143769210Y-88065909D01*
X143769785Y-88065049D01*
X143809552Y-88124565D01*
X144208917Y-88391413D01*
X144680000Y-88485117D01*
X145127653Y-88396073D01*
X146770991Y-90039411D01*
X146935798Y-90149532D01*
X147130201Y-90188201D01*
X158739799Y-90188201D01*
X158934202Y-90149532D01*
X159099009Y-90039411D01*
X160279210Y-88859210D01*
X160389331Y-88694404D01*
X160395746Y-88662150D01*
X160428000Y-88500000D01*
X160428000Y-88366746D01*
X160790448Y-88124565D01*
X161057296Y-87725200D01*
X161151000Y-87254117D01*
X161151000Y-87205883D01*
X161057296Y-86734800D01*
X160790448Y-86335435D01*
X160391083Y-86068587D01*
X159920000Y-85974883D01*
X159448917Y-86068587D01*
X159049552Y-86335435D01*
X158782704Y-86734800D01*
X158709465Y-87102998D01*
X158605060Y-87102998D01*
X158695546Y-86893055D01*
X158466463Y-86415266D01*
X158071976Y-86061513D01*
X157716943Y-85914465D01*
X157507000Y-86005569D01*
X157507000Y-87103000D01*
X157527000Y-87103000D01*
X157527000Y-87357000D01*
X157507000Y-87357000D01*
X157507000Y-88454431D01*
X157716943Y-88545535D01*
X158071976Y-88398487D01*
X158466463Y-88044734D01*
X158695546Y-87566945D01*
X158605060Y-87357002D01*
X158709465Y-87357002D01*
X158782704Y-87725200D01*
X159049552Y-88124565D01*
X159365743Y-88335837D01*
X158529379Y-89172201D01*
X157438515Y-89172201D01*
X157438739Y-88915126D01*
X157335282Y-88664739D01*
X157163926Y-88493085D01*
X157253000Y-88454431D01*
X157253000Y-87357000D01*
X157233000Y-87357000D01*
X157233000Y-87103000D01*
X157253000Y-87103000D01*
X157253000Y-86005569D01*
X157146546Y-85959374D01*
X162005961Y-81099959D01*
X163867902Y-81099959D01*
X164041546Y-81520212D01*
X164362797Y-81842023D01*
X164782746Y-82016401D01*
X165237459Y-82016798D01*
X165657712Y-81843154D01*
X165979523Y-81521903D01*
X166153901Y-81101954D01*
X166154298Y-80647241D01*
X165980654Y-80226988D01*
X165659403Y-79905177D01*
X165239454Y-79730799D01*
X164784741Y-79730402D01*
X164364488Y-79904046D01*
X164042677Y-80225297D01*
X163868299Y-80645246D01*
X163867902Y-81099959D01*
X162005961Y-81099959D01*
X163454210Y-79651710D01*
X163564331Y-79486903D01*
X163603000Y-79292500D01*
X163603000Y-68390420D01*
X163868142Y-68125278D01*
X163867902Y-68399959D01*
X164041546Y-68820212D01*
X164362797Y-69142023D01*
X164782746Y-69316401D01*
X165237459Y-69316798D01*
X165657712Y-69143154D01*
X165661684Y-69139189D01*
X165589118Y-69313946D01*
X165588882Y-69584865D01*
X165654234Y-69743031D01*
X165239454Y-69570799D01*
X164784741Y-69570402D01*
X164364488Y-69744046D01*
X164042677Y-70065297D01*
X163868299Y-70485246D01*
X163867902Y-70939959D01*
X164041546Y-71360212D01*
X164362797Y-71682023D01*
X164782746Y-71856401D01*
X165237459Y-71856798D01*
X165657712Y-71683154D01*
X165762000Y-71579047D01*
X165762000Y-72387953D01*
X165659403Y-72285177D01*
X165239454Y-72110799D01*
X164784741Y-72110402D01*
X164364488Y-72284046D01*
X164042677Y-72605297D01*
X163868299Y-73025246D01*
X163867902Y-73479959D01*
X164041546Y-73900212D01*
X164362797Y-74222023D01*
X164782746Y-74396401D01*
X165237459Y-74396798D01*
X165657712Y-74223154D01*
X165762000Y-74119047D01*
X165762000Y-74927953D01*
X165659403Y-74825177D01*
X165239454Y-74650799D01*
X164784741Y-74650402D01*
X164364488Y-74824046D01*
X164042677Y-75145297D01*
X163868299Y-75565246D01*
X163867902Y-76019959D01*
X164041546Y-76440212D01*
X164362797Y-76762023D01*
X164782746Y-76936401D01*
X165237459Y-76936798D01*
X165657712Y-76763154D01*
X165762000Y-76659047D01*
X165762000Y-77467953D01*
X165659403Y-77365177D01*
X165239454Y-77190799D01*
X164784741Y-77190402D01*
X164364488Y-77364046D01*
X164042677Y-77685297D01*
X163868299Y-78105246D01*
X163867902Y-78559959D01*
X164041546Y-78980212D01*
X164362797Y-79302023D01*
X164782746Y-79476401D01*
X165237459Y-79476798D01*
X165657712Y-79303154D01*
X165762000Y-79199047D01*
X165762000Y-79592500D01*
X165800669Y-79786903D01*
X165910790Y-79951710D01*
X166465814Y-80506734D01*
X166408299Y-80645246D01*
X166407902Y-81099959D01*
X166581546Y-81520212D01*
X166902797Y-81842023D01*
X167322746Y-82016401D01*
X167777459Y-82016798D01*
X168197712Y-81843154D01*
X168354000Y-81687138D01*
X168354000Y-82600043D01*
X168199403Y-82445177D01*
X167779454Y-82270799D01*
X167324741Y-82270402D01*
X166904488Y-82444046D01*
X166582677Y-82765297D01*
X166408299Y-83185246D01*
X166407902Y-83639959D01*
X166581546Y-84060212D01*
X166902797Y-84382023D01*
X167322746Y-84556401D01*
X167777459Y-84556798D01*
X168197712Y-84383154D01*
X168354000Y-84227138D01*
X168354000Y-85140043D01*
X168199403Y-84985177D01*
X167779454Y-84810799D01*
X167324741Y-84810402D01*
X167184336Y-84868416D01*
X166646710Y-84330790D01*
X166481903Y-84220669D01*
X166287500Y-84182000D01*
X165859217Y-84182000D01*
X165979523Y-84061903D01*
X166153901Y-83641954D01*
X166154298Y-83187241D01*
X165980654Y-82766988D01*
X165659403Y-82445177D01*
X165239454Y-82270799D01*
X164784741Y-82270402D01*
X164364488Y-82444046D01*
X164042677Y-82765297D01*
X163868299Y-83185246D01*
X163867902Y-83639959D01*
X164041546Y-84060212D01*
X164163122Y-84182000D01*
X162352920Y-84182000D01*
X161553533Y-83382613D01*
X161553618Y-83285135D01*
X161450161Y-83034748D01*
X161258759Y-82843013D01*
X161008554Y-82739118D01*
X160737635Y-82738882D01*
X160487248Y-82842339D01*
X160295513Y-83033741D01*
X160191618Y-83283946D01*
X160191382Y-83554865D01*
X160294839Y-83805252D01*
X160486241Y-83996987D01*
X160625985Y-84055014D01*
X160487248Y-84112339D01*
X160295513Y-84303741D01*
X160191618Y-84553946D01*
X160191382Y-84824865D01*
X160294839Y-85075252D01*
X160486241Y-85266987D01*
X160736446Y-85370882D01*
X160835047Y-85370968D01*
X160970500Y-85506421D01*
X161102156Y-85594390D01*
X161135307Y-85616541D01*
X161329710Y-85655210D01*
X163897380Y-85655210D01*
X163868299Y-85725246D01*
X163867902Y-86179959D01*
X164041546Y-86600212D01*
X164362797Y-86922023D01*
X164782746Y-87096401D01*
X165237459Y-87096798D01*
X165657712Y-86923154D01*
X165661684Y-86919189D01*
X165589118Y-87093946D01*
X165588882Y-87364865D01*
X165654234Y-87523031D01*
X165239454Y-87350799D01*
X164784741Y-87350402D01*
X164364488Y-87524046D01*
X164042677Y-87845297D01*
X163868299Y-88265246D01*
X163867902Y-88719959D01*
X164041546Y-89140212D01*
X164362797Y-89462023D01*
X164782746Y-89636401D01*
X165237459Y-89636798D01*
X165657712Y-89463154D01*
X165762000Y-89359047D01*
X165762000Y-89770000D01*
X165800669Y-89964403D01*
X165910790Y-90129210D01*
X166412391Y-90630811D01*
X166465131Y-90666051D01*
X166465814Y-90666734D01*
X166408299Y-90805246D01*
X166408177Y-90945235D01*
X166390600Y-91033600D01*
X166408023Y-91121192D01*
X166407902Y-91259959D01*
X166581546Y-91680212D01*
X166902797Y-92002023D01*
X167322746Y-92176401D01*
X167777459Y-92176798D01*
X168197712Y-92003154D01*
X168354000Y-91847138D01*
X168354000Y-92760043D01*
X168199403Y-92605177D01*
X167779454Y-92430799D01*
X167324741Y-92430402D01*
X166904488Y-92604046D01*
X166582677Y-92925297D01*
X166408299Y-93345246D01*
X166407902Y-93799959D01*
X166581546Y-94220212D01*
X166902797Y-94542023D01*
X167322746Y-94716401D01*
X167777459Y-94716798D01*
X168197712Y-94543154D01*
X168354000Y-94387138D01*
X168354000Y-95300043D01*
X168199403Y-95145177D01*
X167779454Y-94970799D01*
X167324741Y-94970402D01*
X166904488Y-95144046D01*
X166582677Y-95465297D01*
X166408299Y-95885246D01*
X166407902Y-96339959D01*
X166581546Y-96760212D01*
X166902797Y-97082023D01*
X167322746Y-97256401D01*
X167777459Y-97256798D01*
X168197712Y-97083154D01*
X168354000Y-96927138D01*
X168354000Y-97840043D01*
X168199403Y-97685177D01*
X167779454Y-97510799D01*
X167324741Y-97510402D01*
X166904488Y-97684046D01*
X166582677Y-98005297D01*
X166408299Y-98425246D01*
X166407902Y-98879959D01*
X166581546Y-99300212D01*
X166902797Y-99622023D01*
X167322746Y-99796401D01*
X167777459Y-99796798D01*
X168197712Y-99623154D01*
X168354000Y-99467138D01*
X168354000Y-100380043D01*
X168199403Y-100225177D01*
X167779454Y-100050799D01*
X167324741Y-100050402D01*
X166904488Y-100224046D01*
X166582677Y-100545297D01*
X166408299Y-100965246D01*
X166407902Y-101419959D01*
X166581546Y-101840212D01*
X166902797Y-102162023D01*
X167322746Y-102336401D01*
X167777459Y-102336798D01*
X168197712Y-102163154D01*
X168354000Y-102007138D01*
X168354000Y-102920043D01*
X168199403Y-102765177D01*
X167779454Y-102590799D01*
X167324741Y-102590402D01*
X166904488Y-102764046D01*
X166582677Y-103085297D01*
X166408299Y-103505246D01*
X166407902Y-103959959D01*
X166581546Y-104380212D01*
X166755032Y-104554000D01*
X165807126Y-104554000D01*
X165979523Y-104381903D01*
X166153901Y-103961954D01*
X166154298Y-103507241D01*
X165980654Y-103086988D01*
X165659403Y-102765177D01*
X165239454Y-102590799D01*
X164784741Y-102590402D01*
X164364488Y-102764046D01*
X164042677Y-103085297D01*
X163868299Y-103505246D01*
X163867902Y-103959959D01*
X164041546Y-104380212D01*
X164215032Y-104554000D01*
X132787126Y-104554000D01*
X132959523Y-104381903D01*
X133133901Y-103961954D01*
X133134298Y-103507241D01*
X132960654Y-103086988D01*
X132639403Y-102765177D01*
X132219454Y-102590799D01*
X131764741Y-102590402D01*
X131344488Y-102764046D01*
X131022677Y-103085297D01*
X130848299Y-103505246D01*
X130847902Y-103959959D01*
X131021546Y-104380212D01*
X131195032Y-104554000D01*
X130247126Y-104554000D01*
X130419523Y-104381903D01*
X130593901Y-103961954D01*
X130594298Y-103507241D01*
X130420654Y-103086988D01*
X130099403Y-102765177D01*
X129679454Y-102590799D01*
X129224741Y-102590402D01*
X128804488Y-102764046D01*
X128626000Y-102942223D01*
X128626000Y-101984918D01*
X128802797Y-102162023D01*
X129222746Y-102336401D01*
X129677459Y-102336798D01*
X130097712Y-102163154D01*
X130419523Y-101841903D01*
X130593901Y-101421954D01*
X130593902Y-101419959D01*
X130847902Y-101419959D01*
X131021546Y-101840212D01*
X131342797Y-102162023D01*
X131762746Y-102336401D01*
X132217459Y-102336798D01*
X132637712Y-102163154D01*
X132959523Y-101841903D01*
X133133901Y-101421954D01*
X133134298Y-100967241D01*
X132960654Y-100546988D01*
X132639403Y-100225177D01*
X132219454Y-100050799D01*
X131764741Y-100050402D01*
X131344488Y-100224046D01*
X131022677Y-100545297D01*
X130848299Y-100965246D01*
X130847902Y-101419959D01*
X130593902Y-101419959D01*
X130594298Y-100967241D01*
X130420654Y-100546988D01*
X130099403Y-100225177D01*
X129679454Y-100050799D01*
X129224741Y-100050402D01*
X128804488Y-100224046D01*
X128626000Y-100402223D01*
X128626000Y-99444918D01*
X128802797Y-99622023D01*
X129222746Y-99796401D01*
X129677459Y-99796798D01*
X130097712Y-99623154D01*
X130419523Y-99301903D01*
X130593901Y-98881954D01*
X130594298Y-98427241D01*
X130420654Y-98006988D01*
X130099403Y-97685177D01*
X129679454Y-97510799D01*
X129224741Y-97510402D01*
X128804488Y-97684046D01*
X128626000Y-97862223D01*
X128626000Y-96904918D01*
X128802797Y-97082023D01*
X129222746Y-97256401D01*
X129677459Y-97256798D01*
X130097712Y-97083154D01*
X130419523Y-96761903D01*
X130593901Y-96341954D01*
X130594298Y-95887241D01*
X130420654Y-95466988D01*
X130099403Y-95145177D01*
X129679454Y-94970799D01*
X129224741Y-94970402D01*
X128804488Y-95144046D01*
X128626000Y-95322223D01*
X128626000Y-94364918D01*
X128802797Y-94542023D01*
X129222746Y-94716401D01*
X129677459Y-94716798D01*
X130097712Y-94543154D01*
X130419523Y-94221903D01*
X130593901Y-93801954D01*
X130594298Y-93347241D01*
X130420654Y-92926988D01*
X130099403Y-92605177D01*
X129679454Y-92430799D01*
X129224741Y-92430402D01*
X128804488Y-92604046D01*
X128626000Y-92782223D01*
X128626000Y-91824918D01*
X128802797Y-92002023D01*
X129222746Y-92176401D01*
X129677459Y-92176798D01*
X130097712Y-92003154D01*
X130419523Y-91681903D01*
X130593901Y-91261954D01*
X130594298Y-90807241D01*
X130420654Y-90386988D01*
X130099403Y-90065177D01*
X129679454Y-89890799D01*
X129224741Y-89890402D01*
X128804488Y-90064046D01*
X128626000Y-90242223D01*
X128626000Y-89284918D01*
X128802797Y-89462023D01*
X129222746Y-89636401D01*
X129677459Y-89636798D01*
X130097712Y-89463154D01*
X130419523Y-89141903D01*
X130593901Y-88721954D01*
X130594298Y-88267241D01*
X130420654Y-87846988D01*
X130099403Y-87525177D01*
X129679454Y-87350799D01*
X129224741Y-87350402D01*
X128804488Y-87524046D01*
X128626000Y-87702223D01*
X128626000Y-86744918D01*
X128802797Y-86922023D01*
X129222746Y-87096401D01*
X129677459Y-87096798D01*
X130097712Y-86923154D01*
X130419523Y-86601903D01*
X130593901Y-86181954D01*
X130594298Y-85727241D01*
X130420654Y-85306988D01*
X130099403Y-84985177D01*
X129679454Y-84810799D01*
X129224741Y-84810402D01*
X128804488Y-84984046D01*
X128626000Y-85162223D01*
X128626000Y-84204918D01*
X128802797Y-84382023D01*
X129222746Y-84556401D01*
X129677459Y-84556798D01*
X130097712Y-84383154D01*
X130419523Y-84061903D01*
X130593901Y-83641954D01*
X130594298Y-83187241D01*
X130420654Y-82766988D01*
X130099403Y-82445177D01*
X129679454Y-82270799D01*
X129224741Y-82270402D01*
X128804488Y-82444046D01*
X128626000Y-82622223D01*
X128626000Y-81664918D01*
X128802797Y-81842023D01*
X129222746Y-82016401D01*
X129677459Y-82016798D01*
X130097712Y-81843154D01*
X130419523Y-81521903D01*
X130593901Y-81101954D01*
X130594298Y-80647241D01*
X130420654Y-80226988D01*
X130099403Y-79905177D01*
X129679454Y-79730799D01*
X129224741Y-79730402D01*
X128804488Y-79904046D01*
X128626000Y-80082223D01*
X128626000Y-79124918D01*
X128802797Y-79302023D01*
X129222746Y-79476401D01*
X129677459Y-79476798D01*
X130097712Y-79303154D01*
X130256688Y-79144455D01*
X130258169Y-79151903D01*
X130368290Y-79316710D01*
X130985790Y-79934210D01*
X131150597Y-80044331D01*
X131195092Y-80053182D01*
X131022677Y-80225297D01*
X130848299Y-80645246D01*
X130847902Y-81099959D01*
X131021546Y-81520212D01*
X131342797Y-81842023D01*
X131762746Y-82016401D01*
X132217459Y-82016798D01*
X132637712Y-81843154D01*
X132742000Y-81739047D01*
X132742000Y-82547953D01*
X132639403Y-82445177D01*
X132219454Y-82270799D01*
X131764741Y-82270402D01*
X131344488Y-82444046D01*
X131022677Y-82765297D01*
X130848299Y-83185246D01*
X130847902Y-83639959D01*
X131021546Y-84060212D01*
X131342797Y-84382023D01*
X131762746Y-84556401D01*
X132217459Y-84556798D01*
X132637712Y-84383154D01*
X132742000Y-84279047D01*
X132742000Y-85087953D01*
X132639403Y-84985177D01*
X132219454Y-84810799D01*
X131764741Y-84810402D01*
X131344488Y-84984046D01*
X131022677Y-85305297D01*
X130848299Y-85725246D01*
X130847902Y-86179959D01*
X131021546Y-86600212D01*
X131342797Y-86922023D01*
X131762746Y-87096401D01*
X132217459Y-87096798D01*
X132637712Y-86923154D01*
X132742000Y-86819047D01*
X132742000Y-87627953D01*
X132639403Y-87525177D01*
X132219454Y-87350799D01*
X131764741Y-87350402D01*
X131344488Y-87524046D01*
X131022677Y-87845297D01*
X130848299Y-88265246D01*
X130847902Y-88719959D01*
X131021546Y-89140212D01*
X131342797Y-89462023D01*
X131762746Y-89636401D01*
X132217459Y-89636798D01*
X132637712Y-89463154D01*
X132742000Y-89359047D01*
X132742000Y-90167953D01*
X132639403Y-90065177D01*
X132219454Y-89890799D01*
X131764741Y-89890402D01*
X131344488Y-90064046D01*
X131022677Y-90385297D01*
X130848299Y-90805246D01*
X130847902Y-91259959D01*
X131021546Y-91680212D01*
X131342797Y-92002023D01*
X131762746Y-92176401D01*
X132217459Y-92176798D01*
X132637712Y-92003154D01*
X132742000Y-91899047D01*
X132742000Y-92707953D01*
X132639403Y-92605177D01*
X132219454Y-92430799D01*
X131764741Y-92430402D01*
X131344488Y-92604046D01*
X131022677Y-92925297D01*
X130848299Y-93345246D01*
X130847902Y-93799959D01*
X131021546Y-94220212D01*
X131342797Y-94542023D01*
X131762746Y-94716401D01*
X132217459Y-94716798D01*
X132637712Y-94543154D01*
X132742000Y-94439047D01*
X132742000Y-95247953D01*
X132639403Y-95145177D01*
X132219454Y-94970799D01*
X131764741Y-94970402D01*
X131344488Y-95144046D01*
X131022677Y-95465297D01*
X130848299Y-95885246D01*
X130847902Y-96339959D01*
X131021546Y-96760212D01*
X131342797Y-97082023D01*
X131762746Y-97256401D01*
X132217459Y-97256798D01*
X132637712Y-97083154D01*
X132742000Y-96979047D01*
X132742000Y-97787953D01*
X132639403Y-97685177D01*
X132219454Y-97510799D01*
X131764741Y-97510402D01*
X131344488Y-97684046D01*
X131022677Y-98005297D01*
X130848299Y-98425246D01*
X130847902Y-98879959D01*
X131021546Y-99300212D01*
X131342797Y-99622023D01*
X131762746Y-99796401D01*
X132217459Y-99796798D01*
X132637712Y-99623154D01*
X132959523Y-99301903D01*
X133129087Y-98893549D01*
X133703446Y-99467908D01*
X133703361Y-99565386D01*
X133806818Y-99815773D01*
X133998220Y-100007508D01*
X134248425Y-100111403D01*
X134519344Y-100111639D01*
X134769731Y-100008182D01*
X134961466Y-99816780D01*
X135065361Y-99566575D01*
X135065597Y-99295656D01*
X134962140Y-99045269D01*
X134770738Y-98853534D01*
X134688652Y-98819449D01*
X134772092Y-98736154D01*
X134829610Y-98597636D01*
X135315000Y-99083026D01*
X135315000Y-100103384D01*
X135239463Y-100134595D01*
X134885836Y-100487604D01*
X134694219Y-100949070D01*
X134693783Y-101448738D01*
X134884595Y-101910537D01*
X135237604Y-102264164D01*
X135315000Y-102296302D01*
X135315000Y-102583000D01*
X135363336Y-102826004D01*
X135500987Y-103032013D01*
X136657987Y-104189013D01*
X136863996Y-104326664D01*
X137107000Y-104375000D01*
X149953000Y-104375000D01*
X150196004Y-104326664D01*
X150402013Y-104189013D01*
X151559013Y-103032013D01*
X151696664Y-102826004D01*
X151745000Y-102583000D01*
X151745000Y-102296616D01*
X151820537Y-102265405D01*
X151893437Y-102192632D01*
X152796973Y-102192632D01*
X152887280Y-102410803D01*
X153405648Y-102595209D01*
X153955127Y-102567207D01*
X154332720Y-102410803D01*
X154423027Y-102192632D01*
X153610000Y-101379605D01*
X152796973Y-102192632D01*
X151893437Y-102192632D01*
X152174164Y-101912396D01*
X152284678Y-101646247D01*
X152399197Y-101922720D01*
X152617368Y-102013027D01*
X153430395Y-101200000D01*
X153789605Y-101200000D01*
X154602632Y-102013027D01*
X154820803Y-101922720D01*
X154926668Y-101625132D01*
X155044595Y-101910537D01*
X155397604Y-102264164D01*
X155859070Y-102455781D01*
X156358738Y-102456217D01*
X156820537Y-102265405D01*
X157174164Y-101912396D01*
X157360221Y-101464320D01*
X157544595Y-101910537D01*
X157897604Y-102264164D01*
X158359070Y-102455781D01*
X158858738Y-102456217D01*
X159320537Y-102265405D01*
X159674164Y-101912396D01*
X159860221Y-101464320D01*
X160044595Y-101910537D01*
X160397604Y-102264164D01*
X160859070Y-102455781D01*
X161358738Y-102456217D01*
X161820537Y-102265405D01*
X162174164Y-101912396D01*
X162365781Y-101450930D01*
X162365808Y-101419959D01*
X163867902Y-101419959D01*
X164041546Y-101840212D01*
X164362797Y-102162023D01*
X164782746Y-102336401D01*
X165237459Y-102336798D01*
X165657712Y-102163154D01*
X165979523Y-101841903D01*
X166153901Y-101421954D01*
X166154298Y-100967241D01*
X165980654Y-100546988D01*
X165659403Y-100225177D01*
X165239454Y-100050799D01*
X164784741Y-100050402D01*
X164364488Y-100224046D01*
X164042677Y-100545297D01*
X163868299Y-100965246D01*
X163867902Y-101419959D01*
X162365808Y-101419959D01*
X162366217Y-100951262D01*
X162175405Y-100489463D01*
X161822396Y-100135836D01*
X161360930Y-99944219D01*
X160861262Y-99943783D01*
X160399463Y-100134595D01*
X160045836Y-100487604D01*
X159859779Y-100935680D01*
X159675405Y-100489463D01*
X159322396Y-100135836D01*
X158860930Y-99944219D01*
X158361262Y-99943783D01*
X157899463Y-100134595D01*
X157545836Y-100487604D01*
X157359779Y-100935680D01*
X157175405Y-100489463D01*
X156822396Y-100135836D01*
X156360930Y-99944219D01*
X155861262Y-99943783D01*
X155399463Y-100134595D01*
X155045836Y-100487604D01*
X154935322Y-100753753D01*
X154820803Y-100477280D01*
X154602632Y-100386973D01*
X153789605Y-101200000D01*
X153430395Y-101200000D01*
X152617368Y-100386973D01*
X152399197Y-100477280D01*
X152293332Y-100774868D01*
X152175405Y-100489463D01*
X151893803Y-100207368D01*
X152796973Y-100207368D01*
X153610000Y-101020395D01*
X154423027Y-100207368D01*
X154332720Y-99989197D01*
X153814352Y-99804791D01*
X153264873Y-99832793D01*
X152887280Y-99989197D01*
X152796973Y-100207368D01*
X151893803Y-100207368D01*
X151822396Y-100135836D01*
X151360930Y-99944219D01*
X150861262Y-99943783D01*
X150399463Y-100134595D01*
X150045836Y-100487604D01*
X149854219Y-100949070D01*
X149853783Y-101448738D01*
X150044595Y-101910537D01*
X150397604Y-102264164D01*
X150475000Y-102296302D01*
X150475000Y-102319974D01*
X149689974Y-103105000D01*
X137370026Y-103105000D01*
X136585000Y-102319974D01*
X136585000Y-102296616D01*
X136660537Y-102265405D01*
X136733437Y-102192632D01*
X137636973Y-102192632D01*
X137727280Y-102410803D01*
X138245648Y-102595209D01*
X138795127Y-102567207D01*
X139172720Y-102410803D01*
X139263027Y-102192632D01*
X138450000Y-101379605D01*
X137636973Y-102192632D01*
X136733437Y-102192632D01*
X137014164Y-101912396D01*
X137124678Y-101646247D01*
X137239197Y-101922720D01*
X137457368Y-102013027D01*
X138270395Y-101200000D01*
X138629605Y-101200000D01*
X139442632Y-102013027D01*
X139660803Y-101922720D01*
X139766668Y-101625132D01*
X139884595Y-101910537D01*
X140237604Y-102264164D01*
X140699070Y-102455781D01*
X141198738Y-102456217D01*
X141660537Y-102265405D01*
X142014164Y-101912396D01*
X142200221Y-101464320D01*
X142384595Y-101910537D01*
X142737604Y-102264164D01*
X143199070Y-102455781D01*
X143698738Y-102456217D01*
X144160537Y-102265405D01*
X144514164Y-101912396D01*
X144700221Y-101464320D01*
X144884595Y-101910537D01*
X145237604Y-102264164D01*
X145699070Y-102455781D01*
X146198738Y-102456217D01*
X146660537Y-102265405D01*
X147014164Y-101912396D01*
X147205781Y-101450930D01*
X147206217Y-100951262D01*
X147015405Y-100489463D01*
X146662396Y-100135836D01*
X146200930Y-99944219D01*
X145701262Y-99943783D01*
X145239463Y-100134595D01*
X144885836Y-100487604D01*
X144699779Y-100935680D01*
X144515405Y-100489463D01*
X144162396Y-100135836D01*
X143700930Y-99944219D01*
X143201262Y-99943783D01*
X142739463Y-100134595D01*
X142385836Y-100487604D01*
X142199779Y-100935680D01*
X142015405Y-100489463D01*
X141662396Y-100135836D01*
X141200930Y-99944219D01*
X140701262Y-99943783D01*
X140239463Y-100134595D01*
X139885836Y-100487604D01*
X139775322Y-100753753D01*
X139660803Y-100477280D01*
X139442632Y-100386973D01*
X138629605Y-101200000D01*
X138270395Y-101200000D01*
X137457368Y-100386973D01*
X137239197Y-100477280D01*
X137133332Y-100774868D01*
X137015405Y-100489463D01*
X136733803Y-100207368D01*
X137636973Y-100207368D01*
X138450000Y-101020395D01*
X139263027Y-100207368D01*
X139172720Y-99989197D01*
X138654352Y-99804791D01*
X138104873Y-99832793D01*
X137727280Y-99989197D01*
X137636973Y-100207368D01*
X136733803Y-100207368D01*
X136662396Y-100135836D01*
X136585000Y-100103698D01*
X136585000Y-98879959D01*
X163867902Y-98879959D01*
X164041546Y-99300212D01*
X164362797Y-99622023D01*
X164782746Y-99796401D01*
X165237459Y-99796798D01*
X165657712Y-99623154D01*
X165979523Y-99301903D01*
X166153901Y-98881954D01*
X166154298Y-98427241D01*
X165980654Y-98006988D01*
X165659403Y-97685177D01*
X165239454Y-97510799D01*
X164784741Y-97510402D01*
X164364488Y-97684046D01*
X164042677Y-98005297D01*
X163868299Y-98425246D01*
X163867902Y-98879959D01*
X136585000Y-98879959D01*
X136585000Y-98820000D01*
X136574134Y-98765373D01*
X136536664Y-98576995D01*
X136399013Y-98370987D01*
X135155000Y-97126974D01*
X135155000Y-96339959D01*
X163867902Y-96339959D01*
X164041546Y-96760212D01*
X164362797Y-97082023D01*
X164782746Y-97256401D01*
X165237459Y-97256798D01*
X165657712Y-97083154D01*
X165979523Y-96761903D01*
X166153901Y-96341954D01*
X166154298Y-95887241D01*
X165980654Y-95466988D01*
X165659403Y-95145177D01*
X165239454Y-94970799D01*
X164784741Y-94970402D01*
X164364488Y-95144046D01*
X164042677Y-95465297D01*
X163868299Y-95885246D01*
X163867902Y-96339959D01*
X135155000Y-96339959D01*
X135155000Y-93799959D01*
X163867902Y-93799959D01*
X164041546Y-94220212D01*
X164362797Y-94542023D01*
X164782746Y-94716401D01*
X165237459Y-94716798D01*
X165657712Y-94543154D01*
X165979523Y-94221903D01*
X166153901Y-93801954D01*
X166154298Y-93347241D01*
X165980654Y-92926988D01*
X165659403Y-92605177D01*
X165239454Y-92430799D01*
X164784741Y-92430402D01*
X164364488Y-92604046D01*
X164042677Y-92925297D01*
X163868299Y-93345246D01*
X163867902Y-93799959D01*
X135155000Y-93799959D01*
X135155000Y-91259959D01*
X163867902Y-91259959D01*
X164041546Y-91680212D01*
X164362797Y-92002023D01*
X164782746Y-92176401D01*
X165237459Y-92176798D01*
X165657712Y-92003154D01*
X165979523Y-91681903D01*
X166153901Y-91261954D01*
X166154298Y-90807241D01*
X165980654Y-90386988D01*
X165659403Y-90065177D01*
X165239454Y-89890799D01*
X164784741Y-89890402D01*
X164364488Y-90064046D01*
X164042677Y-90385297D01*
X163868299Y-90805246D01*
X163867902Y-91259959D01*
X135155000Y-91259959D01*
X135155000Y-66275000D01*
X135106664Y-66031996D01*
X134969013Y-65825987D01*
X133064013Y-63920987D01*
X132893955Y-63807357D01*
X132959523Y-63741903D01*
X133133901Y-63321954D01*
X133134298Y-62867241D01*
X132960654Y-62446988D01*
X132639403Y-62125177D01*
X132219454Y-61950799D01*
X131764741Y-61950402D01*
X131362500Y-62116604D01*
X131362500Y-61530204D01*
X131762746Y-61696401D01*
X132217459Y-61696798D01*
X132637712Y-61523154D01*
X132959523Y-61201903D01*
X133133901Y-60781954D01*
X133134298Y-60327241D01*
X132960654Y-59906988D01*
X132639403Y-59585177D01*
X132219454Y-59410799D01*
X131764741Y-59410402D01*
X131362500Y-59576604D01*
X131362500Y-59290000D01*
X131314164Y-59046996D01*
X131176513Y-58840987D01*
X130589083Y-58253557D01*
X130593901Y-58241954D01*
X130593902Y-58239959D01*
X130847902Y-58239959D01*
X131021546Y-58660212D01*
X131342797Y-58982023D01*
X131762746Y-59156401D01*
X132217459Y-59156798D01*
X132637712Y-58983154D01*
X132959523Y-58661903D01*
X133133901Y-58241954D01*
X133134298Y-57787241D01*
X132960654Y-57366988D01*
X132639403Y-57045177D01*
X132219454Y-56870799D01*
X131764741Y-56870402D01*
X131344488Y-57044046D01*
X131022677Y-57365297D01*
X130848299Y-57785246D01*
X130847902Y-58239959D01*
X130593902Y-58239959D01*
X130594298Y-57787241D01*
X130420654Y-57366988D01*
X130099403Y-57045177D01*
X129679454Y-56870799D01*
X129224741Y-56870402D01*
X128804488Y-57044046D01*
X128626000Y-57222223D01*
X128626000Y-56264918D01*
X128802797Y-56442023D01*
X129222746Y-56616401D01*
X129677459Y-56616798D01*
X130097712Y-56443154D01*
X130419523Y-56121903D01*
X130593901Y-55701954D01*
X130593902Y-55699959D01*
X130847902Y-55699959D01*
X131021546Y-56120212D01*
X131342797Y-56442023D01*
X131762746Y-56616401D01*
X132217459Y-56616798D01*
X132637712Y-56443154D01*
X132959523Y-56121903D01*
X133133901Y-55701954D01*
X133134298Y-55247241D01*
X132960654Y-54826988D01*
X132639403Y-54505177D01*
X132219454Y-54330799D01*
X131764741Y-54330402D01*
X131344488Y-54504046D01*
X131022677Y-54825297D01*
X130848299Y-55245246D01*
X130847902Y-55699959D01*
X130593902Y-55699959D01*
X130594298Y-55247241D01*
X130420654Y-54826988D01*
X130099403Y-54505177D01*
X129679454Y-54330799D01*
X129224741Y-54330402D01*
X128804488Y-54504046D01*
X128626000Y-54682223D01*
X128626000Y-48683882D01*
X132168881Y-45141000D01*
X139803200Y-45141000D01*
X139803200Y-67545000D01*
X139803200Y-67545000D01*
G37*
X139803200Y-67545000D02*
X139832730Y-67701941D01*
X139925482Y-67846082D01*
X140067006Y-67942780D01*
X140235000Y-67976800D01*
X156745000Y-67976800D01*
X156901941Y-67947270D01*
X157046082Y-67854518D01*
X157142780Y-67712994D01*
X157149488Y-67679865D01*
X158603882Y-67679865D01*
X158707339Y-67930252D01*
X158779000Y-68002038D01*
X158779000Y-70988483D01*
X158817517Y-71182121D01*
X158927204Y-71346279D01*
X160132759Y-72551834D01*
X160132672Y-72652138D01*
X160236129Y-72902525D01*
X160427531Y-73094260D01*
X160677736Y-73198155D01*
X160948655Y-73198391D01*
X161199042Y-73094934D01*
X161390777Y-72903532D01*
X161494672Y-72653327D01*
X161494908Y-72382408D01*
X161391451Y-72132021D01*
X161200049Y-71940286D01*
X160949844Y-71836391D01*
X160848412Y-71836303D01*
X159791000Y-70778891D01*
X159791000Y-68002123D01*
X159861987Y-67931259D01*
X159965882Y-67681054D01*
X159966118Y-67410135D01*
X159862661Y-67159748D01*
X159671259Y-66968013D01*
X159421054Y-66864118D01*
X159150135Y-66863882D01*
X158899748Y-66967339D01*
X158708013Y-67158741D01*
X158604118Y-67408946D01*
X158603882Y-67679865D01*
X157149488Y-67679865D01*
X157176800Y-67545000D01*
X157176800Y-63100000D01*
X160569883Y-63100000D01*
X160663587Y-63571083D01*
X160930435Y-63970448D01*
X161329800Y-64237296D01*
X161800883Y-64331000D01*
X161849117Y-64331000D01*
X162320200Y-64237296D01*
X162719565Y-63970448D01*
X162986413Y-63571083D01*
X163080117Y-63100000D01*
X162986413Y-62628917D01*
X162719565Y-62229552D01*
X162320200Y-61962704D01*
X161849117Y-61869000D01*
X161800883Y-61869000D01*
X161329800Y-61962704D01*
X160930435Y-62229552D01*
X160663587Y-62628917D01*
X160569883Y-63100000D01*
X157176800Y-63100000D01*
X157176800Y-60103858D01*
X159040699Y-58239959D01*
X163867902Y-58239959D01*
X164041546Y-58660212D01*
X164362797Y-58982023D01*
X164782746Y-59156401D01*
X165237459Y-59156798D01*
X165657712Y-58983154D01*
X165979523Y-58661903D01*
X166153901Y-58241954D01*
X166154298Y-57787241D01*
X165980654Y-57366988D01*
X165659403Y-57045177D01*
X165239454Y-56870799D01*
X164784741Y-56870402D01*
X164364488Y-57044046D01*
X164042677Y-57365297D01*
X163868299Y-57785246D01*
X163867902Y-58239959D01*
X159040699Y-58239959D01*
X162614658Y-54666000D01*
X164202252Y-54666000D01*
X164042677Y-54825297D01*
X163868299Y-55245246D01*
X163867902Y-55699959D01*
X164041546Y-56120212D01*
X164362797Y-56442023D01*
X164782746Y-56616401D01*
X165237459Y-56616798D01*
X165657712Y-56443154D01*
X165979523Y-56121903D01*
X166153901Y-55701954D01*
X166154298Y-55247241D01*
X165980654Y-54826988D01*
X165819946Y-54666000D01*
X166742252Y-54666000D01*
X166582677Y-54825297D01*
X166408299Y-55245246D01*
X166407902Y-55699959D01*
X166581546Y-56120212D01*
X166902797Y-56442023D01*
X167322746Y-56616401D01*
X167777459Y-56616798D01*
X168197712Y-56443154D01*
X168354000Y-56287138D01*
X168354000Y-57200043D01*
X168199403Y-57045177D01*
X167779454Y-56870799D01*
X167324741Y-56870402D01*
X166904488Y-57044046D01*
X166582677Y-57365297D01*
X166408299Y-57785246D01*
X166407902Y-58239959D01*
X166581546Y-58660212D01*
X166902797Y-58982023D01*
X167322746Y-59156401D01*
X167777459Y-59156798D01*
X168197712Y-58983154D01*
X168354000Y-58827138D01*
X168354000Y-59740043D01*
X168199403Y-59585177D01*
X167779454Y-59410799D01*
X167324741Y-59410402D01*
X166904488Y-59584046D01*
X166582677Y-59905297D01*
X166408299Y-60325246D01*
X166407902Y-60779959D01*
X166581546Y-61200212D01*
X166902797Y-61522023D01*
X167322746Y-61696401D01*
X167777459Y-61696798D01*
X168197712Y-61523154D01*
X168354000Y-61367138D01*
X168354000Y-62280043D01*
X168199403Y-62125177D01*
X167779454Y-61950799D01*
X167324741Y-61950402D01*
X166904488Y-62124046D01*
X166778000Y-62250314D01*
X166778000Y-61812500D01*
X166739331Y-61618097D01*
X166675136Y-61522023D01*
X166629210Y-61453289D01*
X166096386Y-60920465D01*
X166153901Y-60781954D01*
X166154298Y-60327241D01*
X165980654Y-59906988D01*
X165659403Y-59585177D01*
X165239454Y-59410799D01*
X164784741Y-59410402D01*
X164364488Y-59584046D01*
X164042677Y-59905297D01*
X163868299Y-60325246D01*
X163867902Y-60779959D01*
X164041546Y-61200212D01*
X164362797Y-61522023D01*
X164782746Y-61696401D01*
X165237459Y-61696798D01*
X165377864Y-61638784D01*
X165762000Y-62022921D01*
X165762000Y-62227953D01*
X165659403Y-62125177D01*
X165239454Y-61950799D01*
X164784741Y-61950402D01*
X164364488Y-62124046D01*
X164042677Y-62445297D01*
X163868299Y-62865246D01*
X163867902Y-63319959D01*
X164041546Y-63740212D01*
X164362797Y-64062023D01*
X164782746Y-64236401D01*
X165237459Y-64236798D01*
X165657712Y-64063154D01*
X165762000Y-63959047D01*
X165762000Y-64703092D01*
X165742216Y-64722876D01*
X165665797Y-64516421D01*
X165188436Y-64350919D01*
X164684077Y-64380694D01*
X164356403Y-64516421D01*
X164279983Y-64722878D01*
X165011100Y-65453995D01*
X165025243Y-65439853D01*
X165204848Y-65619458D01*
X165190705Y-65633600D01*
X165204848Y-65647743D01*
X165025243Y-65827348D01*
X165011100Y-65813205D01*
X164996958Y-65827348D01*
X164817353Y-65647743D01*
X164831495Y-65633600D01*
X164100378Y-64902483D01*
X163893921Y-64978903D01*
X163728419Y-65456264D01*
X163758194Y-65960623D01*
X163893921Y-66288297D01*
X164100376Y-66364716D01*
X164007436Y-66457656D01*
X164062606Y-66512826D01*
X164005790Y-66550790D01*
X163367345Y-67189235D01*
X163355161Y-67159748D01*
X163163759Y-66968013D01*
X162913554Y-66864118D01*
X162751990Y-66863977D01*
X162816190Y-66851897D01*
X162945865Y-66768454D01*
X163032859Y-66641134D01*
X163063464Y-66490000D01*
X163063464Y-64790000D01*
X163036897Y-64648810D01*
X162953454Y-64519135D01*
X162826134Y-64432141D01*
X162675000Y-64401536D01*
X160975000Y-64401536D01*
X160833810Y-64428103D01*
X160704135Y-64511546D01*
X160617141Y-64638866D01*
X160586536Y-64790000D01*
X160586536Y-66490000D01*
X160613103Y-66631190D01*
X160696546Y-66760865D01*
X160823866Y-66847859D01*
X160975000Y-66878464D01*
X162607344Y-66878464D01*
X162392248Y-66967339D01*
X162200513Y-67158741D01*
X162096618Y-67408946D01*
X162096530Y-67509665D01*
X161990669Y-67668097D01*
X161952000Y-67862500D01*
X161952000Y-78764580D01*
X160753464Y-79963116D01*
X160753464Y-74070000D01*
X160726897Y-73928810D01*
X160643454Y-73799135D01*
X160516134Y-73712141D01*
X160365000Y-73681536D01*
X159846254Y-73681536D01*
X159834331Y-73621597D01*
X159834331Y-73621596D01*
X159724210Y-73456790D01*
X156628210Y-70360790D01*
X156463403Y-70250669D01*
X156269000Y-70212000D01*
X140711000Y-70212000D01*
X140516596Y-70250669D01*
X140351790Y-70360790D01*
X137255790Y-73456790D01*
X137145669Y-73621597D01*
X137133746Y-73681536D01*
X136615000Y-73681536D01*
X136473810Y-73708103D01*
X136344135Y-73791546D01*
X136257141Y-73918866D01*
X136226536Y-74070000D01*
X136226536Y-80070000D01*
X136253103Y-80211190D01*
X136336546Y-80340865D01*
X136463866Y-80427859D01*
X136615000Y-80458464D01*
X138615000Y-80458464D01*
X138756190Y-80431897D01*
X138885865Y-80348454D01*
X138972859Y-80221134D01*
X139003464Y-80070000D01*
X139003464Y-74070000D01*
X138976897Y-73928810D01*
X138893454Y-73799135D01*
X138766134Y-73712141D01*
X138615000Y-73681536D01*
X138467884Y-73681536D01*
X140079420Y-72070000D01*
X143101536Y-72070000D01*
X143101536Y-82070000D01*
X143128103Y-82211190D01*
X143211546Y-82340865D01*
X143338866Y-82427859D01*
X143490000Y-82458464D01*
X147982000Y-82458464D01*
X147982000Y-84234874D01*
X147913013Y-84303741D01*
X147809118Y-84553946D01*
X147808882Y-84824865D01*
X147912339Y-85075252D01*
X148103741Y-85266987D01*
X148353946Y-85370882D01*
X148624865Y-85371118D01*
X148875252Y-85267661D01*
X149066987Y-85076259D01*
X149170882Y-84826054D01*
X149171118Y-84555135D01*
X149067661Y-84304748D01*
X148998000Y-84234966D01*
X148998000Y-82458464D01*
X153490000Y-82458464D01*
X153631190Y-82431897D01*
X153760865Y-82348454D01*
X153847859Y-82221134D01*
X153878464Y-82070000D01*
X153878464Y-72070000D01*
X153851897Y-71928810D01*
X153768454Y-71799135D01*
X153641134Y-71712141D01*
X153490000Y-71681536D01*
X143490000Y-71681536D01*
X143348810Y-71708103D01*
X143219135Y-71791546D01*
X143132141Y-71918866D01*
X143101536Y-72070000D01*
X140079420Y-72070000D01*
X140921420Y-71228000D01*
X156058580Y-71228000D01*
X158512116Y-73681536D01*
X158365000Y-73681536D01*
X158223810Y-73708103D01*
X158094135Y-73791546D01*
X158007141Y-73918866D01*
X157976536Y-74070000D01*
X157976536Y-80070000D01*
X158003103Y-80211190D01*
X158086546Y-80340865D01*
X158213866Y-80427859D01*
X158365000Y-80458464D01*
X158743351Y-80458464D01*
X158708013Y-80493741D01*
X158604118Y-80743946D01*
X158603882Y-81014865D01*
X158707339Y-81265252D01*
X158898741Y-81456987D01*
X159148946Y-81560882D01*
X159155692Y-81560888D01*
X156072613Y-84643967D01*
X155975135Y-84643882D01*
X155724748Y-84747339D01*
X155533013Y-84938741D01*
X155429118Y-85188946D01*
X155428882Y-85459865D01*
X155532339Y-85710252D01*
X155723741Y-85901987D01*
X155754373Y-85914707D01*
X155750790Y-85918290D01*
X155640669Y-86083097D01*
X155604551Y-86264676D01*
X155311083Y-86068587D01*
X154840000Y-85974883D01*
X154368917Y-86068587D01*
X153969552Y-86335435D01*
X153702704Y-86734800D01*
X153609000Y-87205883D01*
X153609000Y-87254117D01*
X153702704Y-87725200D01*
X153969552Y-88124565D01*
X154368917Y-88391413D01*
X154840000Y-88485117D01*
X155311083Y-88391413D01*
X155602000Y-88197028D01*
X155602000Y-88402370D01*
X155640669Y-88596773D01*
X155750790Y-88761580D01*
X156076588Y-89087378D01*
X156076514Y-89172201D01*
X147340621Y-89172201D01*
X145829959Y-87661539D01*
X145881368Y-87403090D01*
X146067488Y-87589210D01*
X146232294Y-87699331D01*
X146264548Y-87705746D01*
X146426698Y-87738000D01*
X151177957Y-87738000D01*
X151255800Y-87926395D01*
X151601784Y-88272983D01*
X152054065Y-88460786D01*
X152543787Y-88461213D01*
X152996395Y-88274200D01*
X153342983Y-87928216D01*
X153530786Y-87475935D01*
X153531213Y-86986213D01*
X153344200Y-86533605D01*
X152998216Y-86187017D01*
X152545935Y-85999214D01*
X152056213Y-85998787D01*
X151603605Y-86185800D01*
X151257017Y-86531784D01*
X151178033Y-86722000D01*
X146637118Y-86722000D01*
X145605707Y-85690589D01*
X145440900Y-85580468D01*
X145246497Y-85541799D01*
X144113503Y-85541799D01*
X143919100Y-85580468D01*
X143865113Y-85616541D01*
X143754292Y-85690589D01*
X143122681Y-86322201D01*
X142831976Y-86061513D01*
X142476943Y-85914465D01*
X142267000Y-86005569D01*
X142267000Y-87103000D01*
X142287000Y-87103000D01*
X142287000Y-87357000D01*
X142267000Y-87357000D01*
X142267000Y-87377000D01*
X142013000Y-87377000D01*
X142013000Y-87357000D01*
X141993000Y-87357000D01*
X141993000Y-87103000D01*
X142013000Y-87103000D01*
X142013000Y-86005569D01*
X141803057Y-85914465D01*
X141448024Y-86061513D01*
X141053537Y-86415266D01*
X140824454Y-86893055D01*
X140914940Y-87102998D01*
X140810535Y-87102998D01*
X140737296Y-86734800D01*
X140470448Y-86335435D01*
X140071083Y-86068587D01*
X139600000Y-85974883D01*
X139128917Y-86068587D01*
X138729552Y-86335435D01*
X138462704Y-86734800D01*
X138369000Y-87205883D01*
X138369000Y-87254117D01*
X138462704Y-87725200D01*
X138640975Y-87992000D01*
X138540420Y-87992000D01*
X138212614Y-87664194D01*
X138290786Y-87475935D01*
X138291213Y-86986213D01*
X138104200Y-86533605D01*
X137758216Y-86187017D01*
X137305935Y-85999214D01*
X136816213Y-85998787D01*
X136363605Y-86185800D01*
X136017017Y-86531784D01*
X135829214Y-86984065D01*
X135828787Y-87473787D01*
X136015800Y-87926395D01*
X136361784Y-88272983D01*
X136814065Y-88460786D01*
X137303787Y-88461213D01*
X137494141Y-88382561D01*
X137970790Y-88859210D01*
X138135596Y-88969331D01*
X138167850Y-88975746D01*
X138330000Y-89008000D01*
X142616698Y-89008000D01*
X142811101Y-88969331D01*
X142975908Y-88859210D01*
X143769210Y-88065909D01*
X143769785Y-88065049D01*
X143809552Y-88124565D01*
X144208917Y-88391413D01*
X144680000Y-88485117D01*
X145127653Y-88396073D01*
X146770991Y-90039411D01*
X146935798Y-90149532D01*
X147130201Y-90188201D01*
X158739799Y-90188201D01*
X158934202Y-90149532D01*
X159099009Y-90039411D01*
X160279210Y-88859210D01*
X160389331Y-88694404D01*
X160395746Y-88662150D01*
X160428000Y-88500000D01*
X160428000Y-88366746D01*
X160790448Y-88124565D01*
X161057296Y-87725200D01*
X161151000Y-87254117D01*
X161151000Y-87205883D01*
X161057296Y-86734800D01*
X160790448Y-86335435D01*
X160391083Y-86068587D01*
X159920000Y-85974883D01*
X159448917Y-86068587D01*
X159049552Y-86335435D01*
X158782704Y-86734800D01*
X158709465Y-87102998D01*
X158605060Y-87102998D01*
X158695546Y-86893055D01*
X158466463Y-86415266D01*
X158071976Y-86061513D01*
X157716943Y-85914465D01*
X157507000Y-86005569D01*
X157507000Y-87103000D01*
X157527000Y-87103000D01*
X157527000Y-87357000D01*
X157507000Y-87357000D01*
X157507000Y-88454431D01*
X157716943Y-88545535D01*
X158071976Y-88398487D01*
X158466463Y-88044734D01*
X158695546Y-87566945D01*
X158605060Y-87357002D01*
X158709465Y-87357002D01*
X158782704Y-87725200D01*
X159049552Y-88124565D01*
X159365743Y-88335837D01*
X158529379Y-89172201D01*
X157438515Y-89172201D01*
X157438739Y-88915126D01*
X157335282Y-88664739D01*
X157163926Y-88493085D01*
X157253000Y-88454431D01*
X157253000Y-87357000D01*
X157233000Y-87357000D01*
X157233000Y-87103000D01*
X157253000Y-87103000D01*
X157253000Y-86005569D01*
X157146546Y-85959374D01*
X162005961Y-81099959D01*
X163867902Y-81099959D01*
X164041546Y-81520212D01*
X164362797Y-81842023D01*
X164782746Y-82016401D01*
X165237459Y-82016798D01*
X165657712Y-81843154D01*
X165979523Y-81521903D01*
X166153901Y-81101954D01*
X166154298Y-80647241D01*
X165980654Y-80226988D01*
X165659403Y-79905177D01*
X165239454Y-79730799D01*
X164784741Y-79730402D01*
X164364488Y-79904046D01*
X164042677Y-80225297D01*
X163868299Y-80645246D01*
X163867902Y-81099959D01*
X162005961Y-81099959D01*
X163454210Y-79651710D01*
X163564331Y-79486903D01*
X163603000Y-79292500D01*
X163603000Y-68390420D01*
X163868142Y-68125278D01*
X163867902Y-68399959D01*
X164041546Y-68820212D01*
X164362797Y-69142023D01*
X164782746Y-69316401D01*
X165237459Y-69316798D01*
X165657712Y-69143154D01*
X165661684Y-69139189D01*
X165589118Y-69313946D01*
X165588882Y-69584865D01*
X165654234Y-69743031D01*
X165239454Y-69570799D01*
X164784741Y-69570402D01*
X164364488Y-69744046D01*
X164042677Y-70065297D01*
X163868299Y-70485246D01*
X163867902Y-70939959D01*
X164041546Y-71360212D01*
X164362797Y-71682023D01*
X164782746Y-71856401D01*
X165237459Y-71856798D01*
X165657712Y-71683154D01*
X165762000Y-71579047D01*
X165762000Y-72387953D01*
X165659403Y-72285177D01*
X165239454Y-72110799D01*
X164784741Y-72110402D01*
X164364488Y-72284046D01*
X164042677Y-72605297D01*
X163868299Y-73025246D01*
X163867902Y-73479959D01*
X164041546Y-73900212D01*
X164362797Y-74222023D01*
X164782746Y-74396401D01*
X165237459Y-74396798D01*
X165657712Y-74223154D01*
X165762000Y-74119047D01*
X165762000Y-74927953D01*
X165659403Y-74825177D01*
X165239454Y-74650799D01*
X164784741Y-74650402D01*
X164364488Y-74824046D01*
X164042677Y-75145297D01*
X163868299Y-75565246D01*
X163867902Y-76019959D01*
X164041546Y-76440212D01*
X164362797Y-76762023D01*
X164782746Y-76936401D01*
X165237459Y-76936798D01*
X165657712Y-76763154D01*
X165762000Y-76659047D01*
X165762000Y-77467953D01*
X165659403Y-77365177D01*
X165239454Y-77190799D01*
X164784741Y-77190402D01*
X164364488Y-77364046D01*
X164042677Y-77685297D01*
X163868299Y-78105246D01*
X163867902Y-78559959D01*
X164041546Y-78980212D01*
X164362797Y-79302023D01*
X164782746Y-79476401D01*
X165237459Y-79476798D01*
X165657712Y-79303154D01*
X165762000Y-79199047D01*
X165762000Y-79592500D01*
X165800669Y-79786903D01*
X165910790Y-79951710D01*
X166465814Y-80506734D01*
X166408299Y-80645246D01*
X166407902Y-81099959D01*
X166581546Y-81520212D01*
X166902797Y-81842023D01*
X167322746Y-82016401D01*
X167777459Y-82016798D01*
X168197712Y-81843154D01*
X168354000Y-81687138D01*
X168354000Y-82600043D01*
X168199403Y-82445177D01*
X167779454Y-82270799D01*
X167324741Y-82270402D01*
X166904488Y-82444046D01*
X166582677Y-82765297D01*
X166408299Y-83185246D01*
X166407902Y-83639959D01*
X166581546Y-84060212D01*
X166902797Y-84382023D01*
X167322746Y-84556401D01*
X167777459Y-84556798D01*
X168197712Y-84383154D01*
X168354000Y-84227138D01*
X168354000Y-85140043D01*
X168199403Y-84985177D01*
X167779454Y-84810799D01*
X167324741Y-84810402D01*
X167184336Y-84868416D01*
X166646710Y-84330790D01*
X166481903Y-84220669D01*
X166287500Y-84182000D01*
X165859217Y-84182000D01*
X165979523Y-84061903D01*
X166153901Y-83641954D01*
X166154298Y-83187241D01*
X165980654Y-82766988D01*
X165659403Y-82445177D01*
X165239454Y-82270799D01*
X164784741Y-82270402D01*
X164364488Y-82444046D01*
X164042677Y-82765297D01*
X163868299Y-83185246D01*
X163867902Y-83639959D01*
X164041546Y-84060212D01*
X164163122Y-84182000D01*
X162352920Y-84182000D01*
X161553533Y-83382613D01*
X161553618Y-83285135D01*
X161450161Y-83034748D01*
X161258759Y-82843013D01*
X161008554Y-82739118D01*
X160737635Y-82738882D01*
X160487248Y-82842339D01*
X160295513Y-83033741D01*
X160191618Y-83283946D01*
X160191382Y-83554865D01*
X160294839Y-83805252D01*
X160486241Y-83996987D01*
X160625985Y-84055014D01*
X160487248Y-84112339D01*
X160295513Y-84303741D01*
X160191618Y-84553946D01*
X160191382Y-84824865D01*
X160294839Y-85075252D01*
X160486241Y-85266987D01*
X160736446Y-85370882D01*
X160835047Y-85370968D01*
X160970500Y-85506421D01*
X161102156Y-85594390D01*
X161135307Y-85616541D01*
X161329710Y-85655210D01*
X163897380Y-85655210D01*
X163868299Y-85725246D01*
X163867902Y-86179959D01*
X164041546Y-86600212D01*
X164362797Y-86922023D01*
X164782746Y-87096401D01*
X165237459Y-87096798D01*
X165657712Y-86923154D01*
X165661684Y-86919189D01*
X165589118Y-87093946D01*
X165588882Y-87364865D01*
X165654234Y-87523031D01*
X165239454Y-87350799D01*
X164784741Y-87350402D01*
X164364488Y-87524046D01*
X164042677Y-87845297D01*
X163868299Y-88265246D01*
X163867902Y-88719959D01*
X164041546Y-89140212D01*
X164362797Y-89462023D01*
X164782746Y-89636401D01*
X165237459Y-89636798D01*
X165657712Y-89463154D01*
X165762000Y-89359047D01*
X165762000Y-89770000D01*
X165800669Y-89964403D01*
X165910790Y-90129210D01*
X166412391Y-90630811D01*
X166465131Y-90666051D01*
X166465814Y-90666734D01*
X166408299Y-90805246D01*
X166408177Y-90945235D01*
X166390600Y-91033600D01*
X166408023Y-91121192D01*
X166407902Y-91259959D01*
X166581546Y-91680212D01*
X166902797Y-92002023D01*
X167322746Y-92176401D01*
X167777459Y-92176798D01*
X168197712Y-92003154D01*
X168354000Y-91847138D01*
X168354000Y-92760043D01*
X168199403Y-92605177D01*
X167779454Y-92430799D01*
X167324741Y-92430402D01*
X166904488Y-92604046D01*
X166582677Y-92925297D01*
X166408299Y-93345246D01*
X166407902Y-93799959D01*
X166581546Y-94220212D01*
X166902797Y-94542023D01*
X167322746Y-94716401D01*
X167777459Y-94716798D01*
X168197712Y-94543154D01*
X168354000Y-94387138D01*
X168354000Y-95300043D01*
X168199403Y-95145177D01*
X167779454Y-94970799D01*
X167324741Y-94970402D01*
X166904488Y-95144046D01*
X166582677Y-95465297D01*
X166408299Y-95885246D01*
X166407902Y-96339959D01*
X166581546Y-96760212D01*
X166902797Y-97082023D01*
X167322746Y-97256401D01*
X167777459Y-97256798D01*
X168197712Y-97083154D01*
X168354000Y-96927138D01*
X168354000Y-97840043D01*
X168199403Y-97685177D01*
X167779454Y-97510799D01*
X167324741Y-97510402D01*
X166904488Y-97684046D01*
X166582677Y-98005297D01*
X166408299Y-98425246D01*
X166407902Y-98879959D01*
X166581546Y-99300212D01*
X166902797Y-99622023D01*
X167322746Y-99796401D01*
X167777459Y-99796798D01*
X168197712Y-99623154D01*
X168354000Y-99467138D01*
X168354000Y-100380043D01*
X168199403Y-100225177D01*
X167779454Y-100050799D01*
X167324741Y-100050402D01*
X166904488Y-100224046D01*
X166582677Y-100545297D01*
X166408299Y-100965246D01*
X166407902Y-101419959D01*
X166581546Y-101840212D01*
X166902797Y-102162023D01*
X167322746Y-102336401D01*
X167777459Y-102336798D01*
X168197712Y-102163154D01*
X168354000Y-102007138D01*
X168354000Y-102920043D01*
X168199403Y-102765177D01*
X167779454Y-102590799D01*
X167324741Y-102590402D01*
X166904488Y-102764046D01*
X166582677Y-103085297D01*
X166408299Y-103505246D01*
X166407902Y-103959959D01*
X166581546Y-104380212D01*
X166755032Y-104554000D01*
X165807126Y-104554000D01*
X165979523Y-104381903D01*
X166153901Y-103961954D01*
X166154298Y-103507241D01*
X165980654Y-103086988D01*
X165659403Y-102765177D01*
X165239454Y-102590799D01*
X164784741Y-102590402D01*
X164364488Y-102764046D01*
X164042677Y-103085297D01*
X163868299Y-103505246D01*
X163867902Y-103959959D01*
X164041546Y-104380212D01*
X164215032Y-104554000D01*
X132787126Y-104554000D01*
X132959523Y-104381903D01*
X133133901Y-103961954D01*
X133134298Y-103507241D01*
X132960654Y-103086988D01*
X132639403Y-102765177D01*
X132219454Y-102590799D01*
X131764741Y-102590402D01*
X131344488Y-102764046D01*
X131022677Y-103085297D01*
X130848299Y-103505246D01*
X130847902Y-103959959D01*
X131021546Y-104380212D01*
X131195032Y-104554000D01*
X130247126Y-104554000D01*
X130419523Y-104381903D01*
X130593901Y-103961954D01*
X130594298Y-103507241D01*
X130420654Y-103086988D01*
X130099403Y-102765177D01*
X129679454Y-102590799D01*
X129224741Y-102590402D01*
X128804488Y-102764046D01*
X128626000Y-102942223D01*
X128626000Y-101984918D01*
X128802797Y-102162023D01*
X129222746Y-102336401D01*
X129677459Y-102336798D01*
X130097712Y-102163154D01*
X130419523Y-101841903D01*
X130593901Y-101421954D01*
X130593902Y-101419959D01*
X130847902Y-101419959D01*
X131021546Y-101840212D01*
X131342797Y-102162023D01*
X131762746Y-102336401D01*
X132217459Y-102336798D01*
X132637712Y-102163154D01*
X132959523Y-101841903D01*
X133133901Y-101421954D01*
X133134298Y-100967241D01*
X132960654Y-100546988D01*
X132639403Y-100225177D01*
X132219454Y-100050799D01*
X131764741Y-100050402D01*
X131344488Y-100224046D01*
X131022677Y-100545297D01*
X130848299Y-100965246D01*
X130847902Y-101419959D01*
X130593902Y-101419959D01*
X130594298Y-100967241D01*
X130420654Y-100546988D01*
X130099403Y-100225177D01*
X129679454Y-100050799D01*
X129224741Y-100050402D01*
X128804488Y-100224046D01*
X128626000Y-100402223D01*
X128626000Y-99444918D01*
X128802797Y-99622023D01*
X129222746Y-99796401D01*
X129677459Y-99796798D01*
X130097712Y-99623154D01*
X130419523Y-99301903D01*
X130593901Y-98881954D01*
X130594298Y-98427241D01*
X130420654Y-98006988D01*
X130099403Y-97685177D01*
X129679454Y-97510799D01*
X129224741Y-97510402D01*
X128804488Y-97684046D01*
X128626000Y-97862223D01*
X128626000Y-96904918D01*
X128802797Y-97082023D01*
X129222746Y-97256401D01*
X129677459Y-97256798D01*
X130097712Y-97083154D01*
X130419523Y-96761903D01*
X130593901Y-96341954D01*
X130594298Y-95887241D01*
X130420654Y-95466988D01*
X130099403Y-95145177D01*
X129679454Y-94970799D01*
X129224741Y-94970402D01*
X128804488Y-95144046D01*
X128626000Y-95322223D01*
X128626000Y-94364918D01*
X128802797Y-94542023D01*
X129222746Y-94716401D01*
X129677459Y-94716798D01*
X130097712Y-94543154D01*
X130419523Y-94221903D01*
X130593901Y-93801954D01*
X130594298Y-93347241D01*
X130420654Y-92926988D01*
X130099403Y-92605177D01*
X129679454Y-92430799D01*
X129224741Y-92430402D01*
X128804488Y-92604046D01*
X128626000Y-92782223D01*
X128626000Y-91824918D01*
X128802797Y-92002023D01*
X129222746Y-92176401D01*
X129677459Y-92176798D01*
X130097712Y-92003154D01*
X130419523Y-91681903D01*
X130593901Y-91261954D01*
X130594298Y-90807241D01*
X130420654Y-90386988D01*
X130099403Y-90065177D01*
X129679454Y-89890799D01*
X129224741Y-89890402D01*
X128804488Y-90064046D01*
X128626000Y-90242223D01*
X128626000Y-89284918D01*
X128802797Y-89462023D01*
X129222746Y-89636401D01*
X129677459Y-89636798D01*
X130097712Y-89463154D01*
X130419523Y-89141903D01*
X130593901Y-88721954D01*
X130594298Y-88267241D01*
X130420654Y-87846988D01*
X130099403Y-87525177D01*
X129679454Y-87350799D01*
X129224741Y-87350402D01*
X128804488Y-87524046D01*
X128626000Y-87702223D01*
X128626000Y-86744918D01*
X128802797Y-86922023D01*
X129222746Y-87096401D01*
X129677459Y-87096798D01*
X130097712Y-86923154D01*
X130419523Y-86601903D01*
X130593901Y-86181954D01*
X130594298Y-85727241D01*
X130420654Y-85306988D01*
X130099403Y-84985177D01*
X129679454Y-84810799D01*
X129224741Y-84810402D01*
X128804488Y-84984046D01*
X128626000Y-85162223D01*
X128626000Y-84204918D01*
X128802797Y-84382023D01*
X129222746Y-84556401D01*
X129677459Y-84556798D01*
X130097712Y-84383154D01*
X130419523Y-84061903D01*
X130593901Y-83641954D01*
X130594298Y-83187241D01*
X130420654Y-82766988D01*
X130099403Y-82445177D01*
X129679454Y-82270799D01*
X129224741Y-82270402D01*
X128804488Y-82444046D01*
X128626000Y-82622223D01*
X128626000Y-81664918D01*
X128802797Y-81842023D01*
X129222746Y-82016401D01*
X129677459Y-82016798D01*
X130097712Y-81843154D01*
X130419523Y-81521903D01*
X130593901Y-81101954D01*
X130594298Y-80647241D01*
X130420654Y-80226988D01*
X130099403Y-79905177D01*
X129679454Y-79730799D01*
X129224741Y-79730402D01*
X128804488Y-79904046D01*
X128626000Y-80082223D01*
X128626000Y-79124918D01*
X128802797Y-79302023D01*
X129222746Y-79476401D01*
X129677459Y-79476798D01*
X130097712Y-79303154D01*
X130256688Y-79144455D01*
X130258169Y-79151903D01*
X130368290Y-79316710D01*
X130985790Y-79934210D01*
X131150597Y-80044331D01*
X131195092Y-80053182D01*
X131022677Y-80225297D01*
X130848299Y-80645246D01*
X130847902Y-81099959D01*
X131021546Y-81520212D01*
X131342797Y-81842023D01*
X131762746Y-82016401D01*
X132217459Y-82016798D01*
X132637712Y-81843154D01*
X132742000Y-81739047D01*
X132742000Y-82547953D01*
X132639403Y-82445177D01*
X132219454Y-82270799D01*
X131764741Y-82270402D01*
X131344488Y-82444046D01*
X131022677Y-82765297D01*
X130848299Y-83185246D01*
X130847902Y-83639959D01*
X131021546Y-84060212D01*
X131342797Y-84382023D01*
X131762746Y-84556401D01*
X132217459Y-84556798D01*
X132637712Y-84383154D01*
X132742000Y-84279047D01*
X132742000Y-85087953D01*
X132639403Y-84985177D01*
X132219454Y-84810799D01*
X131764741Y-84810402D01*
X131344488Y-84984046D01*
X131022677Y-85305297D01*
X130848299Y-85725246D01*
X130847902Y-86179959D01*
X131021546Y-86600212D01*
X131342797Y-86922023D01*
X131762746Y-87096401D01*
X132217459Y-87096798D01*
X132637712Y-86923154D01*
X132742000Y-86819047D01*
X132742000Y-87627953D01*
X132639403Y-87525177D01*
X132219454Y-87350799D01*
X131764741Y-87350402D01*
X131344488Y-87524046D01*
X131022677Y-87845297D01*
X130848299Y-88265246D01*
X130847902Y-88719959D01*
X131021546Y-89140212D01*
X131342797Y-89462023D01*
X131762746Y-89636401D01*
X132217459Y-89636798D01*
X132637712Y-89463154D01*
X132742000Y-89359047D01*
X132742000Y-90167953D01*
X132639403Y-90065177D01*
X132219454Y-89890799D01*
X131764741Y-89890402D01*
X131344488Y-90064046D01*
X131022677Y-90385297D01*
X130848299Y-90805246D01*
X130847902Y-91259959D01*
X131021546Y-91680212D01*
X131342797Y-92002023D01*
X131762746Y-92176401D01*
X132217459Y-92176798D01*
X132637712Y-92003154D01*
X132742000Y-91899047D01*
X132742000Y-92707953D01*
X132639403Y-92605177D01*
X132219454Y-92430799D01*
X131764741Y-92430402D01*
X131344488Y-92604046D01*
X131022677Y-92925297D01*
X130848299Y-93345246D01*
X130847902Y-93799959D01*
X131021546Y-94220212D01*
X131342797Y-94542023D01*
X131762746Y-94716401D01*
X132217459Y-94716798D01*
X132637712Y-94543154D01*
X132742000Y-94439047D01*
X132742000Y-95247953D01*
X132639403Y-95145177D01*
X132219454Y-94970799D01*
X131764741Y-94970402D01*
X131344488Y-95144046D01*
X131022677Y-95465297D01*
X130848299Y-95885246D01*
X130847902Y-96339959D01*
X131021546Y-96760212D01*
X131342797Y-97082023D01*
X131762746Y-97256401D01*
X132217459Y-97256798D01*
X132637712Y-97083154D01*
X132742000Y-96979047D01*
X132742000Y-97787953D01*
X132639403Y-97685177D01*
X132219454Y-97510799D01*
X131764741Y-97510402D01*
X131344488Y-97684046D01*
X131022677Y-98005297D01*
X130848299Y-98425246D01*
X130847902Y-98879959D01*
X131021546Y-99300212D01*
X131342797Y-99622023D01*
X131762746Y-99796401D01*
X132217459Y-99796798D01*
X132637712Y-99623154D01*
X132959523Y-99301903D01*
X133129087Y-98893549D01*
X133703446Y-99467908D01*
X133703361Y-99565386D01*
X133806818Y-99815773D01*
X133998220Y-100007508D01*
X134248425Y-100111403D01*
X134519344Y-100111639D01*
X134769731Y-100008182D01*
X134961466Y-99816780D01*
X135065361Y-99566575D01*
X135065597Y-99295656D01*
X134962140Y-99045269D01*
X134770738Y-98853534D01*
X134688652Y-98819449D01*
X134772092Y-98736154D01*
X134829610Y-98597636D01*
X135315000Y-99083026D01*
X135315000Y-100103384D01*
X135239463Y-100134595D01*
X134885836Y-100487604D01*
X134694219Y-100949070D01*
X134693783Y-101448738D01*
X134884595Y-101910537D01*
X135237604Y-102264164D01*
X135315000Y-102296302D01*
X135315000Y-102583000D01*
X135363336Y-102826004D01*
X135500987Y-103032013D01*
X136657987Y-104189013D01*
X136863996Y-104326664D01*
X137107000Y-104375000D01*
X149953000Y-104375000D01*
X150196004Y-104326664D01*
X150402013Y-104189013D01*
X151559013Y-103032013D01*
X151696664Y-102826004D01*
X151745000Y-102583000D01*
X151745000Y-102296616D01*
X151820537Y-102265405D01*
X151893437Y-102192632D01*
X152796973Y-102192632D01*
X152887280Y-102410803D01*
X153405648Y-102595209D01*
X153955127Y-102567207D01*
X154332720Y-102410803D01*
X154423027Y-102192632D01*
X153610000Y-101379605D01*
X152796973Y-102192632D01*
X151893437Y-102192632D01*
X152174164Y-101912396D01*
X152284678Y-101646247D01*
X152399197Y-101922720D01*
X152617368Y-102013027D01*
X153430395Y-101200000D01*
X153789605Y-101200000D01*
X154602632Y-102013027D01*
X154820803Y-101922720D01*
X154926668Y-101625132D01*
X155044595Y-101910537D01*
X155397604Y-102264164D01*
X155859070Y-102455781D01*
X156358738Y-102456217D01*
X156820537Y-102265405D01*
X157174164Y-101912396D01*
X157360221Y-101464320D01*
X157544595Y-101910537D01*
X157897604Y-102264164D01*
X158359070Y-102455781D01*
X158858738Y-102456217D01*
X159320537Y-102265405D01*
X159674164Y-101912396D01*
X159860221Y-101464320D01*
X160044595Y-101910537D01*
X160397604Y-102264164D01*
X160859070Y-102455781D01*
X161358738Y-102456217D01*
X161820537Y-102265405D01*
X162174164Y-101912396D01*
X162365781Y-101450930D01*
X162365808Y-101419959D01*
X163867902Y-101419959D01*
X164041546Y-101840212D01*
X164362797Y-102162023D01*
X164782746Y-102336401D01*
X165237459Y-102336798D01*
X165657712Y-102163154D01*
X165979523Y-101841903D01*
X166153901Y-101421954D01*
X166154298Y-100967241D01*
X165980654Y-100546988D01*
X165659403Y-100225177D01*
X165239454Y-100050799D01*
X164784741Y-100050402D01*
X164364488Y-100224046D01*
X164042677Y-100545297D01*
X163868299Y-100965246D01*
X163867902Y-101419959D01*
X162365808Y-101419959D01*
X162366217Y-100951262D01*
X162175405Y-100489463D01*
X161822396Y-100135836D01*
X161360930Y-99944219D01*
X160861262Y-99943783D01*
X160399463Y-100134595D01*
X160045836Y-100487604D01*
X159859779Y-100935680D01*
X159675405Y-100489463D01*
X159322396Y-100135836D01*
X158860930Y-99944219D01*
X158361262Y-99943783D01*
X157899463Y-100134595D01*
X157545836Y-100487604D01*
X157359779Y-100935680D01*
X157175405Y-100489463D01*
X156822396Y-100135836D01*
X156360930Y-99944219D01*
X155861262Y-99943783D01*
X155399463Y-100134595D01*
X155045836Y-100487604D01*
X154935322Y-100753753D01*
X154820803Y-100477280D01*
X154602632Y-100386973D01*
X153789605Y-101200000D01*
X153430395Y-101200000D01*
X152617368Y-100386973D01*
X152399197Y-100477280D01*
X152293332Y-100774868D01*
X152175405Y-100489463D01*
X151893803Y-100207368D01*
X152796973Y-100207368D01*
X153610000Y-101020395D01*
X154423027Y-100207368D01*
X154332720Y-99989197D01*
X153814352Y-99804791D01*
X153264873Y-99832793D01*
X152887280Y-99989197D01*
X152796973Y-100207368D01*
X151893803Y-100207368D01*
X151822396Y-100135836D01*
X151360930Y-99944219D01*
X150861262Y-99943783D01*
X150399463Y-100134595D01*
X150045836Y-100487604D01*
X149854219Y-100949070D01*
X149853783Y-101448738D01*
X150044595Y-101910537D01*
X150397604Y-102264164D01*
X150475000Y-102296302D01*
X150475000Y-102319974D01*
X149689974Y-103105000D01*
X137370026Y-103105000D01*
X136585000Y-102319974D01*
X136585000Y-102296616D01*
X136660537Y-102265405D01*
X136733437Y-102192632D01*
X137636973Y-102192632D01*
X137727280Y-102410803D01*
X138245648Y-102595209D01*
X138795127Y-102567207D01*
X139172720Y-102410803D01*
X139263027Y-102192632D01*
X138450000Y-101379605D01*
X137636973Y-102192632D01*
X136733437Y-102192632D01*
X137014164Y-101912396D01*
X137124678Y-101646247D01*
X137239197Y-101922720D01*
X137457368Y-102013027D01*
X138270395Y-101200000D01*
X138629605Y-101200000D01*
X139442632Y-102013027D01*
X139660803Y-101922720D01*
X139766668Y-101625132D01*
X139884595Y-101910537D01*
X140237604Y-102264164D01*
X140699070Y-102455781D01*
X141198738Y-102456217D01*
X141660537Y-102265405D01*
X142014164Y-101912396D01*
X142200221Y-101464320D01*
X142384595Y-101910537D01*
X142737604Y-102264164D01*
X143199070Y-102455781D01*
X143698738Y-102456217D01*
X144160537Y-102265405D01*
X144514164Y-101912396D01*
X144700221Y-101464320D01*
X144884595Y-101910537D01*
X145237604Y-102264164D01*
X145699070Y-102455781D01*
X146198738Y-102456217D01*
X146660537Y-102265405D01*
X147014164Y-101912396D01*
X147205781Y-101450930D01*
X147206217Y-100951262D01*
X147015405Y-100489463D01*
X146662396Y-100135836D01*
X146200930Y-99944219D01*
X145701262Y-99943783D01*
X145239463Y-100134595D01*
X144885836Y-100487604D01*
X144699779Y-100935680D01*
X144515405Y-100489463D01*
X144162396Y-100135836D01*
X143700930Y-99944219D01*
X143201262Y-99943783D01*
X142739463Y-100134595D01*
X142385836Y-100487604D01*
X142199779Y-100935680D01*
X142015405Y-100489463D01*
X141662396Y-100135836D01*
X141200930Y-99944219D01*
X140701262Y-99943783D01*
X140239463Y-100134595D01*
X139885836Y-100487604D01*
X139775322Y-100753753D01*
X139660803Y-100477280D01*
X139442632Y-100386973D01*
X138629605Y-101200000D01*
X138270395Y-101200000D01*
X137457368Y-100386973D01*
X137239197Y-100477280D01*
X137133332Y-100774868D01*
X137015405Y-100489463D01*
X136733803Y-100207368D01*
X137636973Y-100207368D01*
X138450000Y-101020395D01*
X139263027Y-100207368D01*
X139172720Y-99989197D01*
X138654352Y-99804791D01*
X138104873Y-99832793D01*
X137727280Y-99989197D01*
X137636973Y-100207368D01*
X136733803Y-100207368D01*
X136662396Y-100135836D01*
X136585000Y-100103698D01*
X136585000Y-98879959D01*
X163867902Y-98879959D01*
X164041546Y-99300212D01*
X164362797Y-99622023D01*
X164782746Y-99796401D01*
X165237459Y-99796798D01*
X165657712Y-99623154D01*
X165979523Y-99301903D01*
X166153901Y-98881954D01*
X166154298Y-98427241D01*
X165980654Y-98006988D01*
X165659403Y-97685177D01*
X165239454Y-97510799D01*
X164784741Y-97510402D01*
X164364488Y-97684046D01*
X164042677Y-98005297D01*
X163868299Y-98425246D01*
X163867902Y-98879959D01*
X136585000Y-98879959D01*
X136585000Y-98820000D01*
X136574134Y-98765373D01*
X136536664Y-98576995D01*
X136399013Y-98370987D01*
X135155000Y-97126974D01*
X135155000Y-96339959D01*
X163867902Y-96339959D01*
X164041546Y-96760212D01*
X164362797Y-97082023D01*
X164782746Y-97256401D01*
X165237459Y-97256798D01*
X165657712Y-97083154D01*
X165979523Y-96761903D01*
X166153901Y-96341954D01*
X166154298Y-95887241D01*
X165980654Y-95466988D01*
X165659403Y-95145177D01*
X165239454Y-94970799D01*
X164784741Y-94970402D01*
X164364488Y-95144046D01*
X164042677Y-95465297D01*
X163868299Y-95885246D01*
X163867902Y-96339959D01*
X135155000Y-96339959D01*
X135155000Y-93799959D01*
X163867902Y-93799959D01*
X164041546Y-94220212D01*
X164362797Y-94542023D01*
X164782746Y-94716401D01*
X165237459Y-94716798D01*
X165657712Y-94543154D01*
X165979523Y-94221903D01*
X166153901Y-93801954D01*
X166154298Y-93347241D01*
X165980654Y-92926988D01*
X165659403Y-92605177D01*
X165239454Y-92430799D01*
X164784741Y-92430402D01*
X164364488Y-92604046D01*
X164042677Y-92925297D01*
X163868299Y-93345246D01*
X163867902Y-93799959D01*
X135155000Y-93799959D01*
X135155000Y-91259959D01*
X163867902Y-91259959D01*
X164041546Y-91680212D01*
X164362797Y-92002023D01*
X164782746Y-92176401D01*
X165237459Y-92176798D01*
X165657712Y-92003154D01*
X165979523Y-91681903D01*
X166153901Y-91261954D01*
X166154298Y-90807241D01*
X165980654Y-90386988D01*
X165659403Y-90065177D01*
X165239454Y-89890799D01*
X164784741Y-89890402D01*
X164364488Y-90064046D01*
X164042677Y-90385297D01*
X163868299Y-90805246D01*
X163867902Y-91259959D01*
X135155000Y-91259959D01*
X135155000Y-66275000D01*
X135106664Y-66031996D01*
X134969013Y-65825987D01*
X133064013Y-63920987D01*
X132893955Y-63807357D01*
X132959523Y-63741903D01*
X133133901Y-63321954D01*
X133134298Y-62867241D01*
X132960654Y-62446988D01*
X132639403Y-62125177D01*
X132219454Y-61950799D01*
X131764741Y-61950402D01*
X131362500Y-62116604D01*
X131362500Y-61530204D01*
X131762746Y-61696401D01*
X132217459Y-61696798D01*
X132637712Y-61523154D01*
X132959523Y-61201903D01*
X133133901Y-60781954D01*
X133134298Y-60327241D01*
X132960654Y-59906988D01*
X132639403Y-59585177D01*
X132219454Y-59410799D01*
X131764741Y-59410402D01*
X131362500Y-59576604D01*
X131362500Y-59290000D01*
X131314164Y-59046996D01*
X131176513Y-58840987D01*
X130589083Y-58253557D01*
X130593901Y-58241954D01*
X130593902Y-58239959D01*
X130847902Y-58239959D01*
X131021546Y-58660212D01*
X131342797Y-58982023D01*
X131762746Y-59156401D01*
X132217459Y-59156798D01*
X132637712Y-58983154D01*
X132959523Y-58661903D01*
X133133901Y-58241954D01*
X133134298Y-57787241D01*
X132960654Y-57366988D01*
X132639403Y-57045177D01*
X132219454Y-56870799D01*
X131764741Y-56870402D01*
X131344488Y-57044046D01*
X131022677Y-57365297D01*
X130848299Y-57785246D01*
X130847902Y-58239959D01*
X130593902Y-58239959D01*
X130594298Y-57787241D01*
X130420654Y-57366988D01*
X130099403Y-57045177D01*
X129679454Y-56870799D01*
X129224741Y-56870402D01*
X128804488Y-57044046D01*
X128626000Y-57222223D01*
X128626000Y-56264918D01*
X128802797Y-56442023D01*
X129222746Y-56616401D01*
X129677459Y-56616798D01*
X130097712Y-56443154D01*
X130419523Y-56121903D01*
X130593901Y-55701954D01*
X130593902Y-55699959D01*
X130847902Y-55699959D01*
X131021546Y-56120212D01*
X131342797Y-56442023D01*
X131762746Y-56616401D01*
X132217459Y-56616798D01*
X132637712Y-56443154D01*
X132959523Y-56121903D01*
X133133901Y-55701954D01*
X133134298Y-55247241D01*
X132960654Y-54826988D01*
X132639403Y-54505177D01*
X132219454Y-54330799D01*
X131764741Y-54330402D01*
X131344488Y-54504046D01*
X131022677Y-54825297D01*
X130848299Y-55245246D01*
X130847902Y-55699959D01*
X130593902Y-55699959D01*
X130594298Y-55247241D01*
X130420654Y-54826988D01*
X130099403Y-54505177D01*
X129679454Y-54330799D01*
X129224741Y-54330402D01*
X128804488Y-54504046D01*
X128626000Y-54682223D01*
X128626000Y-48683882D01*
X132168881Y-45141000D01*
X139803200Y-45141000D01*
X139803200Y-67545000D01*
G36*
X129644848Y-60539458D02*
X129630705Y-60553600D01*
X129644848Y-60567743D01*
X129465243Y-60747348D01*
X129451100Y-60733205D01*
X129436958Y-60747348D01*
X129257353Y-60567743D01*
X129271495Y-60553600D01*
X129257353Y-60539458D01*
X129436958Y-60359853D01*
X129451100Y-60373995D01*
X129465243Y-60359853D01*
X129644848Y-60539458D01*
X129644848Y-60539458D01*
G37*
X129644848Y-60539458D02*
X129630705Y-60553600D01*
X129644848Y-60567743D01*
X129465243Y-60747348D01*
X129451100Y-60733205D01*
X129436958Y-60747348D01*
X129257353Y-60567743D01*
X129271495Y-60553600D01*
X129257353Y-60539458D01*
X129436958Y-60359853D01*
X129451100Y-60373995D01*
X129465243Y-60359853D01*
X129644848Y-60539458D01*
G36*
X161953200Y-45693598D02*
X161953200Y-54210000D01*
X161991778Y-54403944D01*
X162029698Y-54460696D01*
X161177828Y-55312566D01*
X160315134Y-54449872D01*
X160315132Y-54449869D01*
X159680131Y-53814869D01*
X159045131Y-53179869D01*
X159015286Y-53159927D01*
X158863844Y-53058736D01*
X158650000Y-53016200D01*
X157856194Y-53016200D01*
X157795073Y-52954972D01*
X157526203Y-52843327D01*
X157235075Y-52843073D01*
X156966010Y-52954248D01*
X156759972Y-53159927D01*
X156648327Y-53428797D01*
X156648073Y-53719925D01*
X156759248Y-53988990D01*
X156964927Y-54195028D01*
X157233797Y-54306673D01*
X157524925Y-54306927D01*
X157793990Y-54195752D01*
X157856050Y-54133800D01*
X158418538Y-54133800D01*
X158889869Y-54605131D01*
X159524869Y-55240132D01*
X159524872Y-55240134D01*
X160387566Y-56102828D01*
X156655197Y-59835197D01*
X156627334Y-59877211D01*
X156618000Y-59925000D01*
X156618000Y-67418000D01*
X140362000Y-67418000D01*
X140362000Y-49999043D01*
X155967995Y-49999043D01*
X156147534Y-50433561D01*
X156479690Y-50766297D01*
X156913894Y-50946595D01*
X157384043Y-50947005D01*
X157818561Y-50767466D01*
X158151297Y-50435310D01*
X158331595Y-50001106D01*
X158332005Y-49530957D01*
X158152466Y-49096439D01*
X157820310Y-48763703D01*
X157386106Y-48583405D01*
X156915957Y-48582995D01*
X156481439Y-48762534D01*
X156148703Y-49094690D01*
X155968405Y-49528894D01*
X155967995Y-49999043D01*
X140362000Y-49999043D01*
X140362000Y-45191800D01*
X161438857Y-45191800D01*
X161953200Y-45693598D01*
X161953200Y-45693598D01*
G37*
X161953200Y-45693598D02*
X161953200Y-54210000D01*
X161991778Y-54403944D01*
X162029698Y-54460696D01*
X161177828Y-55312566D01*
X160315134Y-54449872D01*
X160315132Y-54449869D01*
X159680131Y-53814869D01*
X159045131Y-53179869D01*
X159015286Y-53159927D01*
X158863844Y-53058736D01*
X158650000Y-53016200D01*
X157856194Y-53016200D01*
X157795073Y-52954972D01*
X157526203Y-52843327D01*
X157235075Y-52843073D01*
X156966010Y-52954248D01*
X156759972Y-53159927D01*
X156648327Y-53428797D01*
X156648073Y-53719925D01*
X156759248Y-53988990D01*
X156964927Y-54195028D01*
X157233797Y-54306673D01*
X157524925Y-54306927D01*
X157793990Y-54195752D01*
X157856050Y-54133800D01*
X158418538Y-54133800D01*
X158889869Y-54605131D01*
X159524869Y-55240132D01*
X159524872Y-55240134D01*
X160387566Y-56102828D01*
X156655197Y-59835197D01*
X156627334Y-59877211D01*
X156618000Y-59925000D01*
X156618000Y-67418000D01*
X140362000Y-67418000D01*
X140362000Y-49999043D01*
X155967995Y-49999043D01*
X156147534Y-50433561D01*
X156479690Y-50766297D01*
X156913894Y-50946595D01*
X157384043Y-50947005D01*
X157818561Y-50767466D01*
X158151297Y-50435310D01*
X158331595Y-50001106D01*
X158332005Y-49530957D01*
X158152466Y-49096439D01*
X157820310Y-48763703D01*
X157386106Y-48583405D01*
X156915957Y-48582995D01*
X156481439Y-48762534D01*
X156148703Y-49094690D01*
X155968405Y-49528894D01*
X155967995Y-49999043D01*
X140362000Y-49999043D01*
X140362000Y-45191800D01*
X161438857Y-45191800D01*
X161953200Y-45693598D01*
M02*
