G04 #@! TF.FileFunction,Copper,L1,Top,Signal*
%FSLAX46Y46*%
G04 Gerber Fmt 4.6, Leading zero omitted, Abs format (unit mm)*
G04 Created by KiCad (PCBNEW 4.0.5) date Sunday, 19 February 2017 'PMt' 17:45:15*
%MOMM*%
%LPD*%
G01*
G04 APERTURE LIST*
%ADD10C,0.100000*%
%ADD11R,1.300000X1.500000*%
%ADD12R,1.500000X0.600000*%
%ADD13R,1.700000X1.700000*%
%ADD14O,1.700000X1.700000*%
%ADD15C,1.700000*%
%ADD16R,1.250000X2.000000*%
%ADD17C,1.500000*%
%ADD18R,2.200000X1.000000*%
%ADD19C,1.750000*%
%ADD20C,1.524000*%
%ADD21C,0.600000*%
%ADD22C,0.254000*%
%ADD23C,0.250000*%
%ADD24C,1.270000*%
G04 APERTURE END LIST*
D10*
D11*
X158650000Y-63020000D03*
X158650000Y-65720000D03*
D12*
X143840000Y-76435000D03*
X143840000Y-77705000D03*
X143840000Y-78975000D03*
X143840000Y-80245000D03*
X143840000Y-81515000D03*
X143840000Y-82785000D03*
X143840000Y-84055000D03*
X143840000Y-85325000D03*
X153140000Y-85325000D03*
X153140000Y-84055000D03*
X153140000Y-82785000D03*
X153140000Y-81515000D03*
X153140000Y-80245000D03*
X153140000Y-78975000D03*
X153140000Y-77705000D03*
X153140000Y-76435000D03*
D13*
X161825000Y-65640000D03*
D14*
X161825000Y-63100000D03*
D15*
X152300000Y-88500000D03*
D14*
X154840000Y-88500000D03*
X157380000Y-88500000D03*
X159920000Y-88500000D03*
D15*
X137060000Y-88500000D03*
D14*
X139600000Y-88500000D03*
X142140000Y-88500000D03*
X144680000Y-88500000D03*
D16*
X154490000Y-51490000D03*
X152490000Y-51490000D03*
X150490000Y-51490000D03*
X148490000Y-51490000D03*
X146490000Y-51490000D03*
X144490000Y-51490000D03*
X142490000Y-51490000D03*
X146490000Y-67090000D03*
X142490000Y-67090000D03*
X150490000Y-67090000D03*
X152490000Y-67090000D03*
X148490000Y-67090000D03*
X154490000Y-67090000D03*
X144490000Y-67090000D03*
D17*
X157150000Y-49765000D03*
D18*
X158650000Y-48265000D03*
X158650000Y-51265000D03*
D19*
X151110000Y-101200000D03*
X153610000Y-101200000D03*
X156110000Y-101200000D03*
X158610000Y-101200000D03*
X161110000Y-101200000D03*
X135950000Y-101200000D03*
X138450000Y-101200000D03*
X140950000Y-101200000D03*
X143450000Y-101200000D03*
X145950000Y-101200000D03*
D20*
X129451100Y-55473600D03*
X131991100Y-55473600D03*
X129451100Y-58013600D03*
X131991100Y-58013600D03*
X129451100Y-60553600D03*
X131991100Y-60553600D03*
X129451100Y-63093600D03*
X131991100Y-63093600D03*
X129451100Y-65633600D03*
X131991100Y-65633600D03*
X129451100Y-68173600D03*
X131991100Y-68173600D03*
X129451100Y-70713600D03*
X131991100Y-70713600D03*
X129451100Y-73253600D03*
X131991100Y-73253600D03*
X129451100Y-75793600D03*
X131991100Y-75793600D03*
X129451100Y-78333600D03*
X131991100Y-78333600D03*
X129451100Y-80873600D03*
X131991100Y-80873600D03*
X129451100Y-83413600D03*
X131991100Y-83413600D03*
X129451100Y-85953600D03*
X131991100Y-85953600D03*
X129451100Y-88493600D03*
X131991100Y-88493600D03*
X129451100Y-91033600D03*
X131991100Y-91033600D03*
X129451100Y-93573600D03*
X131991100Y-93573600D03*
X129451100Y-96113600D03*
X131991100Y-96113600D03*
X129451100Y-98653600D03*
X131991100Y-98653600D03*
X129451100Y-101193600D03*
X131991100Y-101193600D03*
X129451100Y-103733600D03*
X131991100Y-103733600D03*
X165011100Y-55473600D03*
X167551100Y-55473600D03*
X165011100Y-58013600D03*
X167551100Y-58013600D03*
X165011100Y-60553600D03*
X167551100Y-60553600D03*
X165011100Y-63093600D03*
X167551100Y-63093600D03*
X165011100Y-65633600D03*
X167551100Y-65633600D03*
X165011100Y-68173600D03*
X167551100Y-68173600D03*
X165011100Y-70713600D03*
X167551100Y-70713600D03*
X165011100Y-73253600D03*
X167551100Y-73253600D03*
X165011100Y-75793600D03*
X167551100Y-75793600D03*
X165011100Y-78333600D03*
X167551100Y-78333600D03*
X165011100Y-80873600D03*
X167551100Y-80873600D03*
X165011100Y-83413600D03*
X167551100Y-83413600D03*
X165011100Y-85953600D03*
X167551100Y-85953600D03*
X165011100Y-88493600D03*
X167551100Y-88493600D03*
X165011100Y-91033600D03*
X167551100Y-91033600D03*
X165011100Y-93573600D03*
X167551100Y-93573600D03*
X165011100Y-96113600D03*
X167551100Y-96113600D03*
X165011100Y-98653600D03*
X167551100Y-98653600D03*
X165011100Y-101193600D03*
X167551100Y-101193600D03*
X165011100Y-103733600D03*
X167551100Y-103733600D03*
D21*
X151665000Y-54845000D03*
X148490000Y-56115000D03*
X142775000Y-54845000D03*
X143410000Y-59290000D03*
X145950000Y-58020000D03*
X152935000Y-59925000D03*
X154205000Y-58020000D03*
X149760000Y-60560000D03*
X146585000Y-61830000D03*
X144045000Y-63100000D03*
X145950000Y-63735000D03*
X150395000Y-64370000D03*
X154205000Y-63100000D03*
X155475000Y-65005000D03*
X148490000Y-84690000D03*
X159285000Y-80880000D03*
X133762790Y-69450000D03*
X130710000Y-56750000D03*
X157380000Y-53575000D03*
X139600000Y-82785000D03*
X161444000Y-72498000D03*
X159285000Y-67545000D03*
X160556126Y-84056126D03*
X159920000Y-84690000D03*
X166270000Y-87230000D03*
X134384479Y-99430521D03*
X134195105Y-98349895D03*
X162777500Y-67545000D03*
X156110000Y-85960000D03*
X156745000Y-90405000D03*
D22*
X150395000Y-54210000D02*
X150395000Y-52085000D01*
X150395000Y-52085000D02*
X150490000Y-51990000D01*
X151030000Y-54210000D02*
X150395000Y-54210000D01*
X151665000Y-54845000D02*
X151030000Y-54210000D01*
X142775000Y-54845000D02*
X144045000Y-56115000D01*
X144045000Y-56115000D02*
X148490000Y-56115000D01*
X145950000Y-58020000D02*
X144680000Y-59290000D01*
X144680000Y-59290000D02*
X143410000Y-59290000D01*
X154205000Y-58020000D02*
X154205000Y-58655000D01*
X154205000Y-58655000D02*
X152935000Y-59925000D01*
X146585000Y-61830000D02*
X148490000Y-61830000D01*
X148490000Y-61830000D02*
X149760000Y-60560000D01*
X145950000Y-63735000D02*
X144680000Y-63735000D01*
X144680000Y-63735000D02*
X144045000Y-63100000D01*
X154205000Y-63100000D02*
X151665000Y-63100000D01*
X151665000Y-63100000D02*
X150395000Y-64370000D01*
X154490000Y-65355000D02*
X154840000Y-65005000D01*
X154840000Y-65005000D02*
X155475000Y-65005000D01*
X154490000Y-66590000D02*
X154490000Y-65355000D01*
X153140000Y-78975000D02*
X154144000Y-78975000D01*
X154144000Y-78975000D02*
X154459000Y-78660000D01*
X154840000Y-77578000D02*
X159158000Y-77578000D01*
X154459000Y-78660000D02*
X154459000Y-77959000D01*
X154459000Y-77959000D02*
X154840000Y-77578000D01*
X159158000Y-77578000D02*
X159285000Y-77705000D01*
X159285000Y-77705000D02*
X159285000Y-80880000D01*
X161825000Y-63100000D02*
X165004700Y-63100000D01*
X165004700Y-63100000D02*
X165011100Y-63093600D01*
X133762790Y-69450000D02*
X133762790Y-87387212D01*
X134875578Y-88500000D02*
X137060000Y-88500000D01*
X133762790Y-87387212D02*
X134875578Y-88500000D01*
X130079700Y-59920300D02*
X130710000Y-59290000D01*
X130710000Y-59290000D02*
X130710000Y-56750000D01*
X130079700Y-59925000D02*
X130079700Y-59920300D01*
X129451100Y-60553600D02*
X130079700Y-59925000D01*
X130079700Y-59925000D02*
X130714700Y-59290000D01*
X140870000Y-77705000D02*
X139600000Y-78975000D01*
X139600000Y-78975000D02*
X139600000Y-82785000D01*
X152490000Y-53130000D02*
X152935000Y-53575000D01*
X152935000Y-53575000D02*
X157380000Y-53575000D01*
X152490000Y-51990000D02*
X152490000Y-53130000D01*
X143840000Y-77705000D02*
X140870000Y-77705000D01*
X129451100Y-68173600D02*
X130710000Y-69432500D01*
X130710000Y-69432500D02*
X132597500Y-69432500D01*
X132597500Y-69432500D02*
X133250000Y-70085000D01*
X135155000Y-89770000D02*
X144045000Y-89770000D01*
X133250000Y-70085000D02*
X133250000Y-87865000D01*
X133250000Y-87865000D02*
X135155000Y-89770000D01*
X144045000Y-89770000D02*
X144680000Y-89135000D01*
X144680000Y-89135000D02*
X144680000Y-88500000D01*
D23*
X152490000Y-66590000D02*
X156060000Y-63020000D01*
X156060000Y-63020000D02*
X158650000Y-63020000D01*
D22*
X161444000Y-72922264D02*
X161444000Y-72498000D01*
X161644847Y-85264389D02*
X161648845Y-85260391D01*
X161644847Y-87165383D02*
X161644847Y-85264389D01*
X162764790Y-88285326D02*
X161644847Y-87165383D01*
X162764790Y-89433882D02*
X162764790Y-88285326D01*
X163874500Y-92437000D02*
X163857000Y-92437000D01*
X161648845Y-85260391D02*
X161648845Y-73127109D01*
X163730000Y-92310000D02*
X163730000Y-90405000D01*
X163857000Y-92437000D02*
X163730000Y-92310000D01*
X163730000Y-90405000D02*
X163112500Y-89787500D01*
X161648845Y-73127109D02*
X161444000Y-72922264D01*
X163035446Y-89701710D02*
X163032618Y-89701710D01*
X163112500Y-89778764D02*
X163035446Y-89701710D01*
X163032618Y-89701710D02*
X162764790Y-89433882D01*
X163112500Y-89787500D02*
X163112500Y-89778764D01*
D23*
X163874500Y-92437000D02*
X164249101Y-92811601D01*
X164249101Y-92811601D02*
X165011100Y-93573600D01*
X158650000Y-65720000D02*
X158650000Y-66910000D01*
X158650000Y-66910000D02*
X159285000Y-67545000D01*
D22*
X160566592Y-76435000D02*
X154144000Y-76435000D01*
X154144000Y-76435000D02*
X153140000Y-76435000D01*
X161139209Y-83473043D02*
X161139209Y-77007617D01*
X160556126Y-84056126D02*
X161139209Y-83473043D01*
X161139209Y-77007617D02*
X160566592Y-76435000D01*
X160301000Y-77019200D02*
X154275800Y-77019200D01*
X159920000Y-84690000D02*
X159920000Y-83801000D01*
X159920000Y-83801000D02*
X160682000Y-83039000D01*
X153590000Y-77705000D02*
X153140000Y-77705000D01*
X160682000Y-83039000D02*
X160682000Y-77400200D01*
X160682000Y-77400200D02*
X160301000Y-77019200D01*
X154275800Y-77019200D02*
X153590000Y-77705000D01*
D23*
X164249101Y-87731601D02*
X165011100Y-88493600D01*
X163010478Y-71783006D02*
X163010478Y-85824397D01*
X160566694Y-69339222D02*
X163010478Y-71783006D01*
X163008478Y-86490978D02*
X164249101Y-87731601D01*
X142529219Y-69339222D02*
X160566694Y-69339222D01*
X140050011Y-66860014D02*
X142529219Y-69339222D01*
X163010478Y-85824397D02*
X163008478Y-85826397D01*
X163008478Y-85826397D02*
X163008478Y-86490978D01*
X140050011Y-54429989D02*
X140050011Y-66860014D01*
D22*
X141124000Y-51289000D02*
X141789000Y-51289000D01*
X141789000Y-51289000D02*
X142490000Y-51990000D01*
X140050011Y-52362989D02*
X141124000Y-51289000D01*
X140050011Y-54429989D02*
X140050011Y-52362989D01*
D23*
X142490000Y-51990000D02*
X142460000Y-51990000D01*
X162557267Y-71970732D02*
X162557267Y-85636671D01*
X162555267Y-85638671D02*
X162555267Y-86593000D01*
X162555267Y-86593000D02*
X162557267Y-86595000D01*
X144490000Y-51274238D02*
X143377561Y-50161799D01*
X141607436Y-50161799D02*
X139594800Y-52174435D01*
X144490000Y-51990000D02*
X144490000Y-51274238D01*
X142341493Y-69792433D02*
X160378968Y-69792433D01*
X143377561Y-50161799D02*
X141607436Y-50161799D01*
X162557267Y-85636671D02*
X162555267Y-85638671D01*
X160378968Y-69792433D02*
X162557267Y-71970732D01*
X139594800Y-52174435D02*
X139594800Y-54618543D01*
X139596800Y-54620543D02*
X139596800Y-67047740D01*
X139594800Y-54618543D02*
X139596800Y-54620543D01*
X139596800Y-67047740D02*
X142341493Y-69792433D01*
X163730000Y-88821262D02*
X164170738Y-89262000D01*
D22*
X162557267Y-86692267D02*
X163730000Y-87865000D01*
X163730000Y-87865000D02*
X163730000Y-88821262D01*
X162557267Y-86595000D02*
X162557267Y-86692267D01*
X164170738Y-89262000D02*
X164678738Y-89770000D01*
X164678738Y-89770000D02*
X166274700Y-89770000D01*
X166274700Y-89770000D02*
X167551100Y-88493600D01*
D23*
X146490000Y-51279998D02*
X144918590Y-49708588D01*
X162102056Y-86765695D02*
X162102056Y-86976000D01*
X162102056Y-85450945D02*
X162102056Y-86765695D01*
X142153767Y-70245644D02*
X160191242Y-70245644D01*
X139143589Y-67235466D02*
X142153767Y-70245644D01*
X139141589Y-51981712D02*
X139141589Y-54806269D01*
X144918590Y-49708588D02*
X141414713Y-49708588D01*
X160191242Y-70245644D02*
X162104056Y-72158458D01*
X139143589Y-54808269D02*
X139143589Y-67235466D01*
X162104056Y-72158458D02*
X162104056Y-85448945D01*
X146490000Y-51990000D02*
X146490000Y-51279998D01*
X162104056Y-85448945D02*
X162102056Y-85450945D01*
X139141589Y-54806269D02*
X139143589Y-54808269D01*
X141414713Y-49708588D02*
X139141589Y-51981712D01*
D22*
X163222000Y-89244500D02*
X163222000Y-88095944D01*
X163222000Y-88095944D02*
X162102056Y-86976000D01*
D23*
X163222000Y-89244500D02*
X164249101Y-90271601D01*
X164249101Y-90271601D02*
X165011100Y-91033600D01*
D22*
X163463689Y-86302425D02*
X164391264Y-87230000D01*
X164391264Y-87230000D02*
X164678738Y-87230000D01*
X163463689Y-86014951D02*
X163463689Y-86302425D01*
X166270000Y-87230000D02*
X164678738Y-87230000D01*
X167551100Y-91033600D02*
X167025600Y-91033600D01*
D23*
X144118832Y-68886011D02*
X160754420Y-68886011D01*
X160754420Y-68886011D02*
X163463688Y-71595279D01*
X142490000Y-67257179D02*
X144118832Y-68886011D01*
X142490000Y-66590000D02*
X142490000Y-67257179D01*
X163463688Y-71595279D02*
X163463689Y-86014951D01*
D24*
X154490000Y-51990000D02*
X154490000Y-50750000D01*
X154490000Y-50750000D02*
X155475000Y-49765000D01*
X157150000Y-49765000D02*
X155475000Y-49765000D01*
D22*
X143450000Y-101200000D02*
X142180000Y-99930000D01*
X134684478Y-99730520D02*
X134384479Y-99430521D01*
X142180000Y-99930000D02*
X134883958Y-99930000D01*
X134883958Y-99930000D02*
X134684478Y-99730520D01*
X144045000Y-99295000D02*
X135140210Y-99295000D01*
X135140210Y-99295000D02*
X134195105Y-98349895D01*
X145950000Y-101200000D02*
X144045000Y-99295000D01*
X163730000Y-65005000D02*
X163730000Y-66275000D01*
X163730000Y-66275000D02*
X163730000Y-66592500D01*
X163730000Y-66592500D02*
X162777500Y-67545000D01*
X163095000Y-61830000D02*
X161190000Y-61830000D01*
X160555000Y-63735000D02*
X161190000Y-64370000D01*
X161190000Y-64370000D02*
X163095000Y-64370000D01*
X160555000Y-62465000D02*
X160555000Y-63735000D01*
X161190000Y-61830000D02*
X160555000Y-62465000D01*
X163730000Y-61195000D02*
X163095000Y-61830000D01*
X163730000Y-59294700D02*
X163730000Y-61195000D01*
X165011100Y-58013600D02*
X163730000Y-59294700D01*
X163095000Y-64370000D02*
X163730000Y-65005000D01*
X156110000Y-85960000D02*
X156110000Y-98700000D01*
X156110000Y-98700000D02*
X158610000Y-101200000D01*
X156745000Y-90405000D02*
X156745000Y-91040000D01*
X158015000Y-99930000D02*
X159840000Y-99930000D01*
X159840000Y-99930000D02*
X161110000Y-101200000D01*
X156745000Y-98660000D02*
X158015000Y-99930000D01*
X156745000Y-90405000D02*
X156745000Y-98660000D01*
X163918899Y-82321399D02*
X165011100Y-83413600D01*
X144930800Y-68430800D02*
X144490000Y-67990000D01*
X163918899Y-82321399D02*
X163918899Y-71406725D01*
X163918899Y-71406725D02*
X160942974Y-68430800D01*
X160942974Y-68430800D02*
X144930800Y-68430800D01*
X144490000Y-67990000D02*
X144490000Y-66590000D01*
G36*
X161953200Y-45693598D02*
X161953200Y-54210000D01*
X161991778Y-54403944D01*
X162101638Y-54568362D01*
X162266056Y-54678222D01*
X162460000Y-54716800D01*
X164074692Y-54716800D01*
X164100376Y-54742484D01*
X163893921Y-54818903D01*
X163728419Y-55296264D01*
X163758194Y-55800623D01*
X163893921Y-56128297D01*
X164100378Y-56204717D01*
X164831495Y-55473600D01*
X164817353Y-55459458D01*
X164996958Y-55279853D01*
X165011100Y-55293995D01*
X165025243Y-55279853D01*
X165204848Y-55459458D01*
X165190705Y-55473600D01*
X165921822Y-56204717D01*
X166128279Y-56128297D01*
X166293781Y-55650936D01*
X166264006Y-55146577D01*
X166128279Y-54818903D01*
X165921824Y-54742484D01*
X165947508Y-54716800D01*
X166619459Y-54716800D01*
X166539636Y-54796484D01*
X166357508Y-55235097D01*
X166357093Y-55710020D01*
X166538455Y-56148950D01*
X166873984Y-56485064D01*
X167312597Y-56667192D01*
X167787520Y-56667607D01*
X168226450Y-56486245D01*
X168303200Y-56409629D01*
X168303200Y-57077251D01*
X168228216Y-57002136D01*
X167789603Y-56820008D01*
X167314680Y-56819593D01*
X166875750Y-57000955D01*
X166539636Y-57336484D01*
X166357508Y-57775097D01*
X166357093Y-58250020D01*
X166538455Y-58688950D01*
X166873984Y-59025064D01*
X167312597Y-59207192D01*
X167787520Y-59207607D01*
X168226450Y-59026245D01*
X168303200Y-58949629D01*
X168303200Y-59617251D01*
X168228216Y-59542136D01*
X167789603Y-59360008D01*
X167314680Y-59359593D01*
X166875750Y-59540955D01*
X166539636Y-59876484D01*
X166357508Y-60315097D01*
X166357093Y-60790020D01*
X166538455Y-61228950D01*
X166873984Y-61565064D01*
X167312597Y-61747192D01*
X167787520Y-61747607D01*
X168226450Y-61566245D01*
X168303200Y-61489629D01*
X168303200Y-62157251D01*
X168228216Y-62082136D01*
X167789603Y-61900008D01*
X167314680Y-61899593D01*
X166875750Y-62080955D01*
X166539636Y-62416484D01*
X166357508Y-62855097D01*
X166357093Y-63330020D01*
X166538455Y-63768950D01*
X166873984Y-64105064D01*
X167312597Y-64287192D01*
X167787520Y-64287607D01*
X168226450Y-64106245D01*
X168303200Y-64029629D01*
X168303200Y-64697251D01*
X168228216Y-64622136D01*
X167789603Y-64440008D01*
X167314680Y-64439593D01*
X166875750Y-64620955D01*
X166539636Y-64956484D01*
X166357508Y-65395097D01*
X166357093Y-65870020D01*
X166538455Y-66308950D01*
X166873984Y-66645064D01*
X167312597Y-66827192D01*
X167787520Y-66827607D01*
X168226450Y-66646245D01*
X168303200Y-66569629D01*
X168303200Y-67237251D01*
X168228216Y-67162136D01*
X167789603Y-66980008D01*
X167314680Y-66979593D01*
X166875750Y-67160955D01*
X166539636Y-67496484D01*
X166357508Y-67935097D01*
X166357093Y-68410020D01*
X166538455Y-68848950D01*
X166873984Y-69185064D01*
X167312597Y-69367192D01*
X167787520Y-69367607D01*
X168226450Y-69186245D01*
X168303200Y-69109629D01*
X168303200Y-69777251D01*
X168228216Y-69702136D01*
X167789603Y-69520008D01*
X167314680Y-69519593D01*
X166875750Y-69700955D01*
X166539636Y-70036484D01*
X166357508Y-70475097D01*
X166357093Y-70950020D01*
X166538455Y-71388950D01*
X166873984Y-71725064D01*
X167312597Y-71907192D01*
X167787520Y-71907607D01*
X168226450Y-71726245D01*
X168303200Y-71649629D01*
X168303200Y-72317251D01*
X168228216Y-72242136D01*
X167789603Y-72060008D01*
X167314680Y-72059593D01*
X166875750Y-72240955D01*
X166539636Y-72576484D01*
X166357508Y-73015097D01*
X166357093Y-73490020D01*
X166538455Y-73928950D01*
X166873984Y-74265064D01*
X167312597Y-74447192D01*
X167787520Y-74447607D01*
X168226450Y-74266245D01*
X168303200Y-74189629D01*
X168303200Y-74857251D01*
X168228216Y-74782136D01*
X167789603Y-74600008D01*
X167314680Y-74599593D01*
X166875750Y-74780955D01*
X166539636Y-75116484D01*
X166357508Y-75555097D01*
X166357093Y-76030020D01*
X166538455Y-76468950D01*
X166873984Y-76805064D01*
X167312597Y-76987192D01*
X167787520Y-76987607D01*
X168226450Y-76806245D01*
X168303200Y-76729629D01*
X168303200Y-77397251D01*
X168228216Y-77322136D01*
X167789603Y-77140008D01*
X167314680Y-77139593D01*
X166875750Y-77320955D01*
X166539636Y-77656484D01*
X166357508Y-78095097D01*
X166357093Y-78570020D01*
X166538455Y-79008950D01*
X166873984Y-79345064D01*
X167312597Y-79527192D01*
X167787520Y-79527607D01*
X168226450Y-79346245D01*
X168303200Y-79269629D01*
X168303200Y-79941892D01*
X168282216Y-79962876D01*
X168205797Y-79756421D01*
X167728436Y-79590919D01*
X167224077Y-79620694D01*
X166896403Y-79756421D01*
X166819983Y-79962878D01*
X167551100Y-80693995D01*
X167565243Y-80679853D01*
X167744848Y-80859458D01*
X167730705Y-80873600D01*
X167744848Y-80887743D01*
X167565243Y-81067348D01*
X167551100Y-81053205D01*
X166819983Y-81784322D01*
X166896403Y-81990779D01*
X167373764Y-82156281D01*
X167878123Y-82126506D01*
X168205797Y-81990779D01*
X168282216Y-81784324D01*
X168303200Y-81805308D01*
X168303200Y-82477251D01*
X168228216Y-82402136D01*
X167789603Y-82220008D01*
X167314680Y-82219593D01*
X166875750Y-82400955D01*
X166539636Y-82736484D01*
X166357508Y-83175097D01*
X166357093Y-83650020D01*
X166538455Y-84088950D01*
X166873984Y-84425064D01*
X167312597Y-84607192D01*
X167787520Y-84607607D01*
X168226450Y-84426245D01*
X168303200Y-84349629D01*
X168303200Y-85017251D01*
X168228216Y-84942136D01*
X167789603Y-84760008D01*
X167314680Y-84759593D01*
X166875750Y-84940955D01*
X166539636Y-85276484D01*
X166357508Y-85715097D01*
X166357093Y-86190020D01*
X166498624Y-86532551D01*
X166416203Y-86498327D01*
X166125075Y-86498073D01*
X166067819Y-86521731D01*
X166204692Y-86192103D01*
X166205107Y-85717180D01*
X166023745Y-85278250D01*
X165688216Y-84942136D01*
X165249603Y-84760008D01*
X164774680Y-84759593D01*
X164335750Y-84940955D01*
X164020489Y-85255667D01*
X164020489Y-84111022D01*
X164333984Y-84425064D01*
X164772597Y-84607192D01*
X165247520Y-84607607D01*
X165686450Y-84426245D01*
X166022564Y-84090716D01*
X166204692Y-83652103D01*
X166205107Y-83177180D01*
X166023745Y-82738250D01*
X165688216Y-82402136D01*
X165249603Y-82220008D01*
X164774680Y-82219593D01*
X164656278Y-82268516D01*
X164477699Y-82089937D01*
X164477699Y-82032833D01*
X164833764Y-82156281D01*
X165338123Y-82126506D01*
X165665797Y-81990779D01*
X165742217Y-81784322D01*
X165011100Y-81053205D01*
X164996958Y-81067348D01*
X164817353Y-80887743D01*
X164831495Y-80873600D01*
X165190705Y-80873600D01*
X165921822Y-81604717D01*
X166128279Y-81528297D01*
X166290001Y-81061839D01*
X166298194Y-81200623D01*
X166433921Y-81528297D01*
X166640378Y-81604717D01*
X167371495Y-80873600D01*
X166640378Y-80142483D01*
X166433921Y-80218903D01*
X166272199Y-80685361D01*
X166264006Y-80546577D01*
X166128279Y-80218903D01*
X165921822Y-80142483D01*
X165190705Y-80873600D01*
X164831495Y-80873600D01*
X164817353Y-80859458D01*
X164996958Y-80679853D01*
X165011100Y-80693995D01*
X165742217Y-79962878D01*
X165665797Y-79756421D01*
X165188436Y-79590919D01*
X164684077Y-79620694D01*
X164477699Y-79706179D01*
X164477699Y-79404740D01*
X164772597Y-79527192D01*
X165247520Y-79527607D01*
X165686450Y-79346245D01*
X166022564Y-79010716D01*
X166204692Y-78572103D01*
X166205107Y-78097180D01*
X166023745Y-77658250D01*
X165688216Y-77322136D01*
X165249603Y-77140008D01*
X164774680Y-77139593D01*
X164477699Y-77262303D01*
X164477699Y-76864740D01*
X164772597Y-76987192D01*
X165247520Y-76987607D01*
X165686450Y-76806245D01*
X166022564Y-76470716D01*
X166204692Y-76032103D01*
X166205107Y-75557180D01*
X166023745Y-75118250D01*
X165688216Y-74782136D01*
X165249603Y-74600008D01*
X164774680Y-74599593D01*
X164477699Y-74722303D01*
X164477699Y-74324740D01*
X164772597Y-74447192D01*
X165247520Y-74447607D01*
X165686450Y-74266245D01*
X166022564Y-73930716D01*
X166204692Y-73492103D01*
X166205107Y-73017180D01*
X166023745Y-72578250D01*
X165688216Y-72242136D01*
X165249603Y-72060008D01*
X164774680Y-72059593D01*
X164477699Y-72182303D01*
X164477699Y-71784740D01*
X164772597Y-71907192D01*
X165247520Y-71907607D01*
X165686450Y-71726245D01*
X166022564Y-71390716D01*
X166204692Y-70952103D01*
X166205107Y-70477180D01*
X166023745Y-70038250D01*
X165688216Y-69702136D01*
X165249603Y-69520008D01*
X164774680Y-69519593D01*
X164335750Y-69700955D01*
X163999636Y-70036484D01*
X163817508Y-70475097D01*
X163817473Y-70515036D01*
X161712457Y-68410020D01*
X163817093Y-68410020D01*
X163998455Y-68848950D01*
X164333984Y-69185064D01*
X164772597Y-69367192D01*
X165247520Y-69367607D01*
X165686450Y-69186245D01*
X166022564Y-68850716D01*
X166204692Y-68412103D01*
X166205107Y-67937180D01*
X166023745Y-67498250D01*
X165688216Y-67162136D01*
X165249603Y-66980008D01*
X164774680Y-66979593D01*
X164335750Y-67160955D01*
X163999636Y-67496484D01*
X163817508Y-67935097D01*
X163817093Y-68410020D01*
X161712457Y-68410020D01*
X161338105Y-68035669D01*
X161338104Y-68035668D01*
X161156818Y-67914536D01*
X160942974Y-67872000D01*
X159941599Y-67872000D01*
X160016673Y-67691203D01*
X160016927Y-67400075D01*
X159905752Y-67131010D01*
X159700073Y-66924972D01*
X159511832Y-66846807D01*
X159606980Y-66785581D01*
X159705573Y-66641285D01*
X159740259Y-66470000D01*
X159740259Y-65894000D01*
X160467000Y-65894000D01*
X160467000Y-66591048D01*
X160544339Y-66777759D01*
X160687242Y-66920662D01*
X160873953Y-66998000D01*
X161571000Y-66998000D01*
X161698000Y-66871000D01*
X161698000Y-65767000D01*
X160594000Y-65767000D01*
X160467000Y-65894000D01*
X159740259Y-65894000D01*
X159740259Y-64970000D01*
X159710150Y-64809985D01*
X159615581Y-64663020D01*
X159471285Y-64564427D01*
X159300000Y-64529741D01*
X158000000Y-64529741D01*
X157839985Y-64559850D01*
X157693020Y-64654419D01*
X157594427Y-64798715D01*
X157559741Y-64970000D01*
X157559741Y-66470000D01*
X157589850Y-66630015D01*
X157684419Y-66776980D01*
X157828715Y-66875573D01*
X158000000Y-66910259D01*
X158093252Y-66910259D01*
X158135584Y-67123078D01*
X158256283Y-67303717D01*
X158553151Y-67600585D01*
X158553073Y-67689925D01*
X158628305Y-67872000D01*
X155623000Y-67872000D01*
X155623000Y-67344000D01*
X155496000Y-67217000D01*
X154617000Y-67217000D01*
X154617000Y-67237000D01*
X154363000Y-67237000D01*
X154363000Y-67217000D01*
X154343000Y-67217000D01*
X154343000Y-66963000D01*
X154363000Y-66963000D01*
X154363000Y-65709000D01*
X154617000Y-65709000D01*
X154617000Y-66963000D01*
X155496000Y-66963000D01*
X155623000Y-66836000D01*
X155623000Y-65988953D01*
X155545662Y-65802242D01*
X155402759Y-65659339D01*
X155216048Y-65582000D01*
X154744000Y-65582000D01*
X154617000Y-65709000D01*
X154363000Y-65709000D01*
X154260717Y-65606717D01*
X156290634Y-63576800D01*
X157559741Y-63576800D01*
X157559741Y-63770000D01*
X157589850Y-63930015D01*
X157684419Y-64076980D01*
X157828715Y-64175573D01*
X158000000Y-64210259D01*
X159300000Y-64210259D01*
X159460015Y-64180150D01*
X159606980Y-64085581D01*
X159705573Y-63941285D01*
X159740259Y-63770000D01*
X159740259Y-62465000D01*
X159996200Y-62465000D01*
X159996200Y-63735000D01*
X160038736Y-63948844D01*
X160143120Y-64105064D01*
X160159869Y-64130131D01*
X160540719Y-64510981D01*
X160467000Y-64688952D01*
X160467000Y-65386000D01*
X160594000Y-65513000D01*
X161698000Y-65513000D01*
X161698000Y-65493000D01*
X161952000Y-65493000D01*
X161952000Y-65513000D01*
X161972000Y-65513000D01*
X161972000Y-65767000D01*
X161952000Y-65767000D01*
X161952000Y-66871000D01*
X162079000Y-66998000D01*
X162289629Y-66998000D01*
X162157472Y-67129927D01*
X162045827Y-67398797D01*
X162045573Y-67689925D01*
X162156748Y-67958990D01*
X162362427Y-68165028D01*
X162631297Y-68276673D01*
X162922425Y-68276927D01*
X163191490Y-68165752D01*
X163397528Y-67960073D01*
X163509173Y-67691203D01*
X163509250Y-67603513D01*
X164125131Y-66987632D01*
X164246264Y-66806344D01*
X164263230Y-66721050D01*
X164287589Y-66598588D01*
X164333984Y-66645064D01*
X164772597Y-66827192D01*
X165247520Y-66827607D01*
X165686450Y-66646245D01*
X166022564Y-66310716D01*
X166204692Y-65872103D01*
X166205107Y-65397180D01*
X166023745Y-64958250D01*
X165688216Y-64622136D01*
X165249603Y-64440008D01*
X164774680Y-64439593D01*
X164335750Y-64620955D01*
X164213849Y-64742644D01*
X164125132Y-64609869D01*
X163490131Y-63974869D01*
X163451182Y-63948844D01*
X163308844Y-63853736D01*
X163095000Y-63811200D01*
X162886889Y-63811200D01*
X162988720Y-63658800D01*
X163952942Y-63658800D01*
X163998455Y-63768950D01*
X164333984Y-64105064D01*
X164772597Y-64287192D01*
X165247520Y-64287607D01*
X165686450Y-64106245D01*
X166022564Y-63770716D01*
X166204692Y-63332103D01*
X166205107Y-62857180D01*
X166023745Y-62418250D01*
X165688216Y-62082136D01*
X165249603Y-61900008D01*
X164774680Y-61899593D01*
X164335750Y-62080955D01*
X163999636Y-62416484D01*
X163947849Y-62541200D01*
X162988720Y-62541200D01*
X162886889Y-62388800D01*
X163095000Y-62388800D01*
X163308844Y-62346264D01*
X163490131Y-62225131D01*
X164125132Y-61590131D01*
X164218907Y-61449787D01*
X164333984Y-61565064D01*
X164772597Y-61747192D01*
X165247520Y-61747607D01*
X165686450Y-61566245D01*
X166022564Y-61230716D01*
X166204692Y-60792103D01*
X166205107Y-60317180D01*
X166023745Y-59878250D01*
X165688216Y-59542136D01*
X165249603Y-59360008D01*
X164774680Y-59359593D01*
X164335750Y-59540955D01*
X164288800Y-59587823D01*
X164288800Y-59526162D01*
X164656131Y-59158831D01*
X164772597Y-59207192D01*
X165247520Y-59207607D01*
X165686450Y-59026245D01*
X166022564Y-58690716D01*
X166204692Y-58252103D01*
X166205107Y-57777180D01*
X166023745Y-57338250D01*
X165688216Y-57002136D01*
X165249603Y-56820008D01*
X164774680Y-56819593D01*
X164335750Y-57000955D01*
X163999636Y-57336484D01*
X163817508Y-57775097D01*
X163817093Y-58250020D01*
X163866016Y-58368422D01*
X163334869Y-58899569D01*
X163213736Y-59080856D01*
X163171200Y-59294700D01*
X163171200Y-60963537D01*
X162863538Y-61271200D01*
X161190000Y-61271200D01*
X160976157Y-61313735D01*
X160794869Y-61434868D01*
X160159869Y-62069869D01*
X160038736Y-62251156D01*
X159996200Y-62465000D01*
X159740259Y-62465000D01*
X159740259Y-62270000D01*
X159710150Y-62109985D01*
X159615581Y-61963020D01*
X159471285Y-61864427D01*
X159300000Y-61829741D01*
X158000000Y-61829741D01*
X157839985Y-61859850D01*
X157693020Y-61954419D01*
X157594427Y-62098715D01*
X157559741Y-62270000D01*
X157559741Y-62463200D01*
X156060000Y-62463200D01*
X155846922Y-62505584D01*
X155666283Y-62626283D01*
X152642825Y-65649741D01*
X151865000Y-65649741D01*
X151704985Y-65679850D01*
X151558020Y-65774419D01*
X151489539Y-65874644D01*
X151430581Y-65783020D01*
X151286285Y-65684427D01*
X151115000Y-65649741D01*
X149865000Y-65649741D01*
X149704985Y-65679850D01*
X149558020Y-65774419D01*
X149489539Y-65874644D01*
X149430581Y-65783020D01*
X149286285Y-65684427D01*
X149115000Y-65649741D01*
X147865000Y-65649741D01*
X147704985Y-65679850D01*
X147558020Y-65774419D01*
X147489539Y-65874644D01*
X147430581Y-65783020D01*
X147286285Y-65684427D01*
X147115000Y-65649741D01*
X145865000Y-65649741D01*
X145704985Y-65679850D01*
X145558020Y-65774419D01*
X145489539Y-65874644D01*
X145430581Y-65783020D01*
X145286285Y-65684427D01*
X145115000Y-65649741D01*
X143865000Y-65649741D01*
X143704985Y-65679850D01*
X143558020Y-65774419D01*
X143489539Y-65874644D01*
X143430581Y-65783020D01*
X143286285Y-65684427D01*
X143115000Y-65649741D01*
X141865000Y-65649741D01*
X141704985Y-65679850D01*
X141558020Y-65774419D01*
X141459427Y-65918715D01*
X141424741Y-66090000D01*
X141424741Y-67447310D01*
X140606811Y-66629380D01*
X140606811Y-56384322D01*
X164279983Y-56384322D01*
X164356403Y-56590779D01*
X164833764Y-56756281D01*
X165338123Y-56726506D01*
X165665797Y-56590779D01*
X165742217Y-56384322D01*
X165011100Y-55653205D01*
X164279983Y-56384322D01*
X140606811Y-56384322D01*
X140606811Y-54440044D01*
X140608811Y-54429989D01*
X140608811Y-52594451D01*
X141355462Y-51847800D01*
X141424741Y-51847800D01*
X141424741Y-52490000D01*
X141454850Y-52650015D01*
X141549419Y-52796980D01*
X141693715Y-52895573D01*
X141865000Y-52930259D01*
X143115000Y-52930259D01*
X143275015Y-52900150D01*
X143421980Y-52805581D01*
X143490461Y-52705356D01*
X143549419Y-52796980D01*
X143693715Y-52895573D01*
X143865000Y-52930259D01*
X145115000Y-52930259D01*
X145275015Y-52900150D01*
X145421980Y-52805581D01*
X145490461Y-52705356D01*
X145549419Y-52796980D01*
X145693715Y-52895573D01*
X145865000Y-52930259D01*
X147115000Y-52930259D01*
X147275015Y-52900150D01*
X147421980Y-52805581D01*
X147490461Y-52705356D01*
X147549419Y-52796980D01*
X147693715Y-52895573D01*
X147865000Y-52930259D01*
X149115000Y-52930259D01*
X149275015Y-52900150D01*
X149421980Y-52805581D01*
X149438290Y-52781710D01*
X149577241Y-52920661D01*
X149763952Y-52998000D01*
X150236000Y-52998000D01*
X150363000Y-52871000D01*
X150363000Y-51617000D01*
X150343000Y-51617000D01*
X150343000Y-51363000D01*
X150363000Y-51363000D01*
X150363000Y-50109000D01*
X150617000Y-50109000D01*
X150617000Y-51363000D01*
X150637000Y-51363000D01*
X150637000Y-51617000D01*
X150617000Y-51617000D01*
X150617000Y-52871000D01*
X150744000Y-52998000D01*
X151216048Y-52998000D01*
X151402759Y-52920661D01*
X151540422Y-52782998D01*
X151549419Y-52796980D01*
X151693715Y-52895573D01*
X151865000Y-52930259D01*
X151931200Y-52930259D01*
X151931200Y-53130000D01*
X151973736Y-53343844D01*
X152031354Y-53430075D01*
X152094869Y-53525131D01*
X152539869Y-53970131D01*
X152721156Y-54091264D01*
X152935000Y-54133800D01*
X156903806Y-54133800D01*
X156964927Y-54195028D01*
X157233797Y-54306673D01*
X157524925Y-54306927D01*
X157793990Y-54195752D01*
X158000028Y-53990073D01*
X158111673Y-53721203D01*
X158111927Y-53430075D01*
X158000752Y-53161010D01*
X157795073Y-52954972D01*
X157526203Y-52843327D01*
X157235075Y-52843073D01*
X156966010Y-52954248D01*
X156903950Y-53016200D01*
X154694111Y-53016200D01*
X154898247Y-52975595D01*
X154966097Y-52930259D01*
X155115000Y-52930259D01*
X155275015Y-52900150D01*
X155421980Y-52805581D01*
X155520573Y-52661285D01*
X155555259Y-52490000D01*
X155555259Y-51997747D01*
X155556800Y-51990000D01*
X155556800Y-51519000D01*
X157042000Y-51519000D01*
X157042000Y-51866048D01*
X157119339Y-52052759D01*
X157262242Y-52195662D01*
X157448953Y-52273000D01*
X158396000Y-52273000D01*
X158523000Y-52146000D01*
X158523000Y-51392000D01*
X158777000Y-51392000D01*
X158777000Y-52146000D01*
X158904000Y-52273000D01*
X159851047Y-52273000D01*
X160037758Y-52195662D01*
X160180661Y-52052759D01*
X160258000Y-51866048D01*
X160258000Y-51519000D01*
X160131000Y-51392000D01*
X158777000Y-51392000D01*
X158523000Y-51392000D01*
X157169000Y-51392000D01*
X157042000Y-51519000D01*
X155556800Y-51519000D01*
X155556800Y-51191884D01*
X155916883Y-50831800D01*
X156637438Y-50831800D01*
X156913894Y-50946595D01*
X157042000Y-50946707D01*
X157042000Y-51011000D01*
X157169000Y-51138000D01*
X158523000Y-51138000D01*
X158523000Y-50384000D01*
X158777000Y-50384000D01*
X158777000Y-51138000D01*
X160131000Y-51138000D01*
X160258000Y-51011000D01*
X160258000Y-50663952D01*
X160180661Y-50477241D01*
X160037758Y-50334338D01*
X159851047Y-50257000D01*
X158904000Y-50257000D01*
X158777000Y-50384000D01*
X158523000Y-50384000D01*
X158396000Y-50257000D01*
X158225338Y-50257000D01*
X158331595Y-50001106D01*
X158332005Y-49530957D01*
X158225419Y-49273000D01*
X158396000Y-49273000D01*
X158523000Y-49146000D01*
X158523000Y-48392000D01*
X158777000Y-48392000D01*
X158777000Y-49146000D01*
X158904000Y-49273000D01*
X159851047Y-49273000D01*
X160037758Y-49195662D01*
X160180661Y-49052759D01*
X160258000Y-48866048D01*
X160258000Y-48519000D01*
X160131000Y-48392000D01*
X158777000Y-48392000D01*
X158523000Y-48392000D01*
X157169000Y-48392000D01*
X157042000Y-48519000D01*
X157042000Y-48583105D01*
X156915957Y-48582995D01*
X156637139Y-48698200D01*
X155475000Y-48698200D01*
X155066753Y-48779405D01*
X154720658Y-49010658D01*
X154720656Y-49010661D01*
X153735658Y-49995658D01*
X153660107Y-50108728D01*
X153558020Y-50174419D01*
X153489539Y-50274644D01*
X153430581Y-50183020D01*
X153286285Y-50084427D01*
X153115000Y-50049741D01*
X151865000Y-50049741D01*
X151704985Y-50079850D01*
X151558020Y-50174419D01*
X151541710Y-50198290D01*
X151402759Y-50059339D01*
X151216048Y-49982000D01*
X150744000Y-49982000D01*
X150617000Y-50109000D01*
X150363000Y-50109000D01*
X150236000Y-49982000D01*
X149763952Y-49982000D01*
X149577241Y-50059339D01*
X149439578Y-50197002D01*
X149430581Y-50183020D01*
X149286285Y-50084427D01*
X149115000Y-50049741D01*
X147865000Y-50049741D01*
X147704985Y-50079850D01*
X147558020Y-50174419D01*
X147489539Y-50274644D01*
X147430581Y-50183020D01*
X147286285Y-50084427D01*
X147115000Y-50049741D01*
X146047177Y-50049741D01*
X145312307Y-49314871D01*
X145131668Y-49194172D01*
X144918590Y-49151788D01*
X141414713Y-49151788D01*
X141201635Y-49194172D01*
X141020996Y-49314871D01*
X138747872Y-51587995D01*
X138627173Y-51768634D01*
X138584789Y-51981712D01*
X138584789Y-54806269D01*
X138586789Y-54816324D01*
X138586789Y-67235466D01*
X138629173Y-67448544D01*
X138749872Y-67629183D01*
X141760050Y-70639361D01*
X141940689Y-70760060D01*
X142153767Y-70802444D01*
X159960608Y-70802444D01*
X161033833Y-71875669D01*
X161030010Y-71877248D01*
X160823972Y-72082927D01*
X160712327Y-72351797D01*
X160712073Y-72642925D01*
X160823248Y-72911990D01*
X160898064Y-72986937D01*
X160927736Y-73136108D01*
X161048869Y-73317395D01*
X161090045Y-73358571D01*
X161090045Y-76168191D01*
X160961723Y-76039869D01*
X160946983Y-76030020D01*
X160780436Y-75918736D01*
X160566592Y-75876200D01*
X154236584Y-75876200D01*
X154205581Y-75828020D01*
X154061285Y-75729427D01*
X153890000Y-75694741D01*
X152390000Y-75694741D01*
X152229985Y-75724850D01*
X152083020Y-75819419D01*
X151984427Y-75963715D01*
X151949741Y-76135000D01*
X151949741Y-76735000D01*
X151979850Y-76895015D01*
X152074419Y-77041980D01*
X152114346Y-77069261D01*
X152083020Y-77089419D01*
X151984427Y-77233715D01*
X151949741Y-77405000D01*
X151949741Y-78005000D01*
X151979850Y-78165015D01*
X152074419Y-78311980D01*
X152114346Y-78339261D01*
X152083020Y-78359419D01*
X151984427Y-78503715D01*
X151949741Y-78675000D01*
X151949741Y-79275000D01*
X151979850Y-79435015D01*
X152058828Y-79557752D01*
X151959339Y-79657241D01*
X151882000Y-79843952D01*
X151882000Y-79991000D01*
X152009000Y-80118000D01*
X153013000Y-80118000D01*
X153013000Y-80098000D01*
X153267000Y-80098000D01*
X153267000Y-80118000D01*
X154271000Y-80118000D01*
X154398000Y-79991000D01*
X154398000Y-79843952D01*
X154320661Y-79657241D01*
X154220126Y-79556706D01*
X154250212Y-79512673D01*
X154357844Y-79491264D01*
X154539131Y-79370131D01*
X154854131Y-79055131D01*
X154907673Y-78975000D01*
X154975264Y-78873844D01*
X155017800Y-78660000D01*
X155017800Y-78190462D01*
X155071463Y-78136800D01*
X158726200Y-78136800D01*
X158726200Y-80403806D01*
X158664972Y-80464927D01*
X158553327Y-80733797D01*
X158553073Y-81024925D01*
X158664248Y-81293990D01*
X158869927Y-81500028D01*
X159138797Y-81611673D01*
X159429925Y-81611927D01*
X159698990Y-81500752D01*
X159905028Y-81295073D01*
X160016673Y-81026203D01*
X160016927Y-80735075D01*
X159905752Y-80466010D01*
X159843800Y-80403950D01*
X159843800Y-77705000D01*
X159818538Y-77578000D01*
X160069538Y-77578000D01*
X160123200Y-77631663D01*
X160123200Y-82807538D01*
X159524869Y-83405869D01*
X159403736Y-83587156D01*
X159361200Y-83801000D01*
X159361200Y-84213806D01*
X159299972Y-84274927D01*
X159188327Y-84543797D01*
X159188073Y-84834925D01*
X159299248Y-85103990D01*
X159504927Y-85310028D01*
X159773797Y-85421673D01*
X160064925Y-85421927D01*
X160333990Y-85310752D01*
X160540028Y-85105073D01*
X160651673Y-84836203D01*
X160651715Y-84788010D01*
X160701051Y-84788053D01*
X160970116Y-84676878D01*
X161090045Y-84557158D01*
X161090045Y-85244290D01*
X161086047Y-85264389D01*
X161086047Y-87165383D01*
X161128583Y-87379227D01*
X161196556Y-87480955D01*
X161249716Y-87560514D01*
X162205990Y-88516789D01*
X162205990Y-89433882D01*
X162248526Y-89647726D01*
X162360653Y-89815535D01*
X162369659Y-89829013D01*
X162637487Y-90096841D01*
X162646010Y-90102536D01*
X162699777Y-90156303D01*
X162717369Y-90182631D01*
X163171200Y-90636462D01*
X163171200Y-92310000D01*
X163213736Y-92523844D01*
X163334869Y-92705131D01*
X163461869Y-92832131D01*
X163523132Y-92873066D01*
X163866699Y-93216633D01*
X163817508Y-93335097D01*
X163817093Y-93810020D01*
X163998455Y-94248950D01*
X164333984Y-94585064D01*
X164772597Y-94767192D01*
X165247520Y-94767607D01*
X165686450Y-94586245D01*
X166022564Y-94250716D01*
X166204692Y-93812103D01*
X166205107Y-93337180D01*
X166023745Y-92898250D01*
X165688216Y-92562136D01*
X165249603Y-92380008D01*
X164774680Y-92379593D01*
X164654277Y-92429343D01*
X164288800Y-92063866D01*
X164288800Y-91999801D01*
X164333984Y-92045064D01*
X164772597Y-92227192D01*
X165247520Y-92227607D01*
X165686450Y-92046245D01*
X166022564Y-91710716D01*
X166204692Y-91272103D01*
X166205107Y-90797180D01*
X166023745Y-90358250D01*
X165994346Y-90328800D01*
X166274700Y-90328800D01*
X166488544Y-90286264D01*
X166669831Y-90165131D01*
X167196131Y-89638831D01*
X167312597Y-89687192D01*
X167787520Y-89687607D01*
X168226450Y-89506245D01*
X168303200Y-89429629D01*
X168303200Y-90097251D01*
X168228216Y-90022136D01*
X167789603Y-89840008D01*
X167314680Y-89839593D01*
X166875750Y-90020955D01*
X166539636Y-90356484D01*
X166357508Y-90795097D01*
X166357093Y-91270020D01*
X166538455Y-91708950D01*
X166873984Y-92045064D01*
X167312597Y-92227192D01*
X167787520Y-92227607D01*
X168226450Y-92046245D01*
X168303200Y-91969629D01*
X168303200Y-92637251D01*
X168228216Y-92562136D01*
X167789603Y-92380008D01*
X167314680Y-92379593D01*
X166875750Y-92560955D01*
X166539636Y-92896484D01*
X166357508Y-93335097D01*
X166357093Y-93810020D01*
X166538455Y-94248950D01*
X166873984Y-94585064D01*
X167312597Y-94767192D01*
X167787520Y-94767607D01*
X168226450Y-94586245D01*
X168303200Y-94509629D01*
X168303200Y-95177251D01*
X168228216Y-95102136D01*
X167789603Y-94920008D01*
X167314680Y-94919593D01*
X166875750Y-95100955D01*
X166539636Y-95436484D01*
X166357508Y-95875097D01*
X166357093Y-96350020D01*
X166538455Y-96788950D01*
X166873984Y-97125064D01*
X167312597Y-97307192D01*
X167787520Y-97307607D01*
X168226450Y-97126245D01*
X168303200Y-97049629D01*
X168303200Y-97717251D01*
X168228216Y-97642136D01*
X167789603Y-97460008D01*
X167314680Y-97459593D01*
X166875750Y-97640955D01*
X166539636Y-97976484D01*
X166357508Y-98415097D01*
X166357093Y-98890020D01*
X166538455Y-99328950D01*
X166873984Y-99665064D01*
X167312597Y-99847192D01*
X167787520Y-99847607D01*
X168226450Y-99666245D01*
X168303200Y-99589629D01*
X168303200Y-100257251D01*
X168228216Y-100182136D01*
X167789603Y-100000008D01*
X167314680Y-99999593D01*
X166875750Y-100180955D01*
X166539636Y-100516484D01*
X166357508Y-100955097D01*
X166357093Y-101430020D01*
X166538455Y-101868950D01*
X166873984Y-102205064D01*
X167312597Y-102387192D01*
X167787520Y-102387607D01*
X168226450Y-102206245D01*
X168303200Y-102129629D01*
X168303200Y-102801892D01*
X168282216Y-102822876D01*
X168205797Y-102616421D01*
X167728436Y-102450919D01*
X167224077Y-102480694D01*
X166896403Y-102616421D01*
X166819983Y-102822878D01*
X167551100Y-103553995D01*
X167565243Y-103539853D01*
X167744848Y-103719458D01*
X167730705Y-103733600D01*
X167744848Y-103747743D01*
X167565243Y-103927348D01*
X167551100Y-103913205D01*
X167536958Y-103927348D01*
X167357353Y-103747743D01*
X167371495Y-103733600D01*
X166640378Y-103002483D01*
X166433921Y-103078903D01*
X166272199Y-103545361D01*
X166264006Y-103406577D01*
X166128279Y-103078903D01*
X165921822Y-103002483D01*
X165190705Y-103733600D01*
X165204848Y-103747743D01*
X165025243Y-103927348D01*
X165011100Y-103913205D01*
X164996958Y-103927348D01*
X164817353Y-103747743D01*
X164831495Y-103733600D01*
X164100378Y-103002483D01*
X163893921Y-103078903D01*
X163728419Y-103556264D01*
X163758194Y-104060623D01*
X163893921Y-104388297D01*
X164100376Y-104464716D01*
X164061892Y-104503200D01*
X132909919Y-104503200D01*
X133002564Y-104410716D01*
X133184692Y-103972103D01*
X133185107Y-103497180D01*
X133003745Y-103058250D01*
X132768783Y-102822878D01*
X164279983Y-102822878D01*
X165011100Y-103553995D01*
X165742217Y-102822878D01*
X165665797Y-102616421D01*
X165188436Y-102450919D01*
X164684077Y-102480694D01*
X164356403Y-102616421D01*
X164279983Y-102822878D01*
X132768783Y-102822878D01*
X132668216Y-102722136D01*
X132229603Y-102540008D01*
X131754680Y-102539593D01*
X131315750Y-102720955D01*
X130979636Y-103056484D01*
X130797508Y-103495097D01*
X130797093Y-103970020D01*
X130978455Y-104408950D01*
X131072541Y-104503200D01*
X130400308Y-104503200D01*
X130361824Y-104464716D01*
X130568279Y-104388297D01*
X130733781Y-103910936D01*
X130704006Y-103406577D01*
X130568279Y-103078903D01*
X130361822Y-103002483D01*
X129630705Y-103733600D01*
X129644848Y-103747743D01*
X129465243Y-103927348D01*
X129451100Y-103913205D01*
X129436958Y-103927348D01*
X129257353Y-103747743D01*
X129271495Y-103733600D01*
X129257353Y-103719458D01*
X129436958Y-103539853D01*
X129451100Y-103553995D01*
X130182217Y-102822878D01*
X130105797Y-102616421D01*
X129628436Y-102450919D01*
X129124077Y-102480694D01*
X128796403Y-102616421D01*
X128719984Y-102822876D01*
X128676800Y-102779692D01*
X128676800Y-102107711D01*
X128773984Y-102205064D01*
X129212597Y-102387192D01*
X129687520Y-102387607D01*
X130126450Y-102206245D01*
X130462564Y-101870716D01*
X130644692Y-101432103D01*
X130644693Y-101430020D01*
X130797093Y-101430020D01*
X130978455Y-101868950D01*
X131313984Y-102205064D01*
X131752597Y-102387192D01*
X132227520Y-102387607D01*
X132666450Y-102206245D01*
X133002564Y-101870716D01*
X133184692Y-101432103D01*
X133185107Y-100957180D01*
X133003745Y-100518250D01*
X132668216Y-100182136D01*
X132229603Y-100000008D01*
X131754680Y-99999593D01*
X131315750Y-100180955D01*
X130979636Y-100516484D01*
X130797508Y-100955097D01*
X130797093Y-101430020D01*
X130644693Y-101430020D01*
X130645107Y-100957180D01*
X130463745Y-100518250D01*
X130128216Y-100182136D01*
X129689603Y-100000008D01*
X129214680Y-99999593D01*
X128775750Y-100180955D01*
X128676800Y-100279733D01*
X128676800Y-99567711D01*
X128773984Y-99665064D01*
X129212597Y-99847192D01*
X129687520Y-99847607D01*
X130126450Y-99666245D01*
X130462564Y-99330716D01*
X130644692Y-98892103D01*
X130644693Y-98890020D01*
X130797093Y-98890020D01*
X130978455Y-99328950D01*
X131313984Y-99665064D01*
X131752597Y-99847192D01*
X132227520Y-99847607D01*
X132666450Y-99666245D01*
X133002564Y-99330716D01*
X133184692Y-98892103D01*
X133185039Y-98494820D01*
X133463178Y-98494820D01*
X133574353Y-98763885D01*
X133780032Y-98969923D01*
X133801236Y-98978728D01*
X133764451Y-99015448D01*
X133652806Y-99284318D01*
X133652552Y-99575446D01*
X133763727Y-99844511D01*
X133969406Y-100050549D01*
X134238276Y-100162194D01*
X134325967Y-100162271D01*
X134488827Y-100325131D01*
X134670114Y-100446264D01*
X134834425Y-100478947D01*
X134643427Y-100938921D01*
X134642973Y-101458798D01*
X134841503Y-101939276D01*
X135208791Y-102307205D01*
X135688921Y-102506573D01*
X136208798Y-102507027D01*
X136689276Y-102308497D01*
X137057205Y-101941209D01*
X137200105Y-101597068D01*
X137341503Y-101939276D01*
X137708791Y-102307205D01*
X138188921Y-102506573D01*
X138708798Y-102507027D01*
X139189276Y-102308497D01*
X139305343Y-102192632D01*
X140136973Y-102192632D01*
X140227280Y-102410803D01*
X140745648Y-102595209D01*
X141295127Y-102567207D01*
X141672720Y-102410803D01*
X141763027Y-102192632D01*
X140950000Y-101379605D01*
X140136973Y-102192632D01*
X139305343Y-102192632D01*
X139557205Y-101941209D01*
X139652147Y-101712563D01*
X139739197Y-101922720D01*
X139957368Y-102013027D01*
X140770395Y-101200000D01*
X140756253Y-101185858D01*
X140935858Y-101006253D01*
X140950000Y-101020395D01*
X140964143Y-101006253D01*
X141143748Y-101185858D01*
X141129605Y-101200000D01*
X141942632Y-102013027D01*
X142160803Y-101922720D01*
X142241238Y-101696616D01*
X142341503Y-101939276D01*
X142708791Y-102307205D01*
X143188921Y-102506573D01*
X143708798Y-102507027D01*
X144189276Y-102308497D01*
X144557205Y-101941209D01*
X144700105Y-101597068D01*
X144841503Y-101939276D01*
X145208791Y-102307205D01*
X145688921Y-102506573D01*
X146208798Y-102507027D01*
X146689276Y-102308497D01*
X147057205Y-101941209D01*
X147256573Y-101461079D01*
X147256574Y-101458798D01*
X149802973Y-101458798D01*
X150001503Y-101939276D01*
X150368791Y-102307205D01*
X150848921Y-102506573D01*
X151368798Y-102507027D01*
X151849276Y-102308497D01*
X152217205Y-101941209D01*
X152360105Y-101597068D01*
X152501503Y-101939276D01*
X152868791Y-102307205D01*
X153348921Y-102506573D01*
X153868798Y-102507027D01*
X154349276Y-102308497D01*
X154465343Y-102192632D01*
X155296973Y-102192632D01*
X155387280Y-102410803D01*
X155905648Y-102595209D01*
X156455127Y-102567207D01*
X156832720Y-102410803D01*
X156923027Y-102192632D01*
X156110000Y-101379605D01*
X155296973Y-102192632D01*
X154465343Y-102192632D01*
X154717205Y-101941209D01*
X154812147Y-101712563D01*
X154899197Y-101922720D01*
X155117368Y-102013027D01*
X155930395Y-101200000D01*
X155117368Y-100386973D01*
X154899197Y-100477280D01*
X154818762Y-100703384D01*
X154718497Y-100460724D01*
X154351209Y-100092795D01*
X153871079Y-99893427D01*
X153351202Y-99892973D01*
X152870724Y-100091503D01*
X152502795Y-100458791D01*
X152359895Y-100802932D01*
X152218497Y-100460724D01*
X151851209Y-100092795D01*
X151371079Y-99893427D01*
X150851202Y-99892973D01*
X150370724Y-100091503D01*
X150002795Y-100458791D01*
X149803427Y-100938921D01*
X149802973Y-101458798D01*
X147256574Y-101458798D01*
X147257027Y-100941202D01*
X147058497Y-100460724D01*
X146691209Y-100092795D01*
X146211079Y-99893427D01*
X145691202Y-99892973D01*
X145508660Y-99968398D01*
X144440131Y-98899869D01*
X144401182Y-98873844D01*
X144258844Y-98778736D01*
X144045000Y-98736200D01*
X135371672Y-98736200D01*
X134926957Y-98291485D01*
X134927032Y-98204970D01*
X134815857Y-97935905D01*
X134610178Y-97729867D01*
X134341308Y-97618222D01*
X134050180Y-97617968D01*
X133781115Y-97729143D01*
X133575077Y-97934822D01*
X133463432Y-98203692D01*
X133463178Y-98494820D01*
X133185039Y-98494820D01*
X133185107Y-98417180D01*
X133003745Y-97978250D01*
X132668216Y-97642136D01*
X132229603Y-97460008D01*
X131754680Y-97459593D01*
X131315750Y-97640955D01*
X130979636Y-97976484D01*
X130797508Y-98415097D01*
X130797093Y-98890020D01*
X130644693Y-98890020D01*
X130645107Y-98417180D01*
X130463745Y-97978250D01*
X130128216Y-97642136D01*
X129689603Y-97460008D01*
X129214680Y-97459593D01*
X128775750Y-97640955D01*
X128676800Y-97739733D01*
X128676800Y-97027711D01*
X128773984Y-97125064D01*
X129212597Y-97307192D01*
X129687520Y-97307607D01*
X130126450Y-97126245D01*
X130462564Y-96790716D01*
X130644692Y-96352103D01*
X130644693Y-96350020D01*
X130797093Y-96350020D01*
X130978455Y-96788950D01*
X131313984Y-97125064D01*
X131752597Y-97307192D01*
X132227520Y-97307607D01*
X132666450Y-97126245D01*
X133002564Y-96790716D01*
X133184692Y-96352103D01*
X133185107Y-95877180D01*
X133003745Y-95438250D01*
X132668216Y-95102136D01*
X132229603Y-94920008D01*
X131754680Y-94919593D01*
X131315750Y-95100955D01*
X130979636Y-95436484D01*
X130797508Y-95875097D01*
X130797093Y-96350020D01*
X130644693Y-96350020D01*
X130645107Y-95877180D01*
X130463745Y-95438250D01*
X130128216Y-95102136D01*
X129689603Y-94920008D01*
X129214680Y-94919593D01*
X128775750Y-95100955D01*
X128676800Y-95199733D01*
X128676800Y-94487711D01*
X128773984Y-94585064D01*
X129212597Y-94767192D01*
X129687520Y-94767607D01*
X130126450Y-94586245D01*
X130462564Y-94250716D01*
X130644692Y-93812103D01*
X130644693Y-93810020D01*
X130797093Y-93810020D01*
X130978455Y-94248950D01*
X131313984Y-94585064D01*
X131752597Y-94767192D01*
X132227520Y-94767607D01*
X132666450Y-94586245D01*
X133002564Y-94250716D01*
X133184692Y-93812103D01*
X133185107Y-93337180D01*
X133003745Y-92898250D01*
X132668216Y-92562136D01*
X132229603Y-92380008D01*
X131754680Y-92379593D01*
X131315750Y-92560955D01*
X130979636Y-92896484D01*
X130797508Y-93335097D01*
X130797093Y-93810020D01*
X130644693Y-93810020D01*
X130645107Y-93337180D01*
X130463745Y-92898250D01*
X130128216Y-92562136D01*
X129689603Y-92380008D01*
X129214680Y-92379593D01*
X128775750Y-92560955D01*
X128676800Y-92659733D01*
X128676800Y-91947711D01*
X128773984Y-92045064D01*
X129212597Y-92227192D01*
X129687520Y-92227607D01*
X130126450Y-92046245D01*
X130462564Y-91710716D01*
X130644692Y-91272103D01*
X130644693Y-91270020D01*
X130797093Y-91270020D01*
X130978455Y-91708950D01*
X131313984Y-92045064D01*
X131752597Y-92227192D01*
X132227520Y-92227607D01*
X132666450Y-92046245D01*
X133002564Y-91710716D01*
X133184692Y-91272103D01*
X133185107Y-90797180D01*
X133003745Y-90358250D01*
X132668216Y-90022136D01*
X132229603Y-89840008D01*
X131754680Y-89839593D01*
X131315750Y-90020955D01*
X130979636Y-90356484D01*
X130797508Y-90795097D01*
X130797093Y-91270020D01*
X130644693Y-91270020D01*
X130645107Y-90797180D01*
X130463745Y-90358250D01*
X130128216Y-90022136D01*
X129689603Y-89840008D01*
X129214680Y-89839593D01*
X128775750Y-90020955D01*
X128676800Y-90119733D01*
X128676800Y-89407711D01*
X128773984Y-89505064D01*
X129212597Y-89687192D01*
X129687520Y-89687607D01*
X130126450Y-89506245D01*
X130462564Y-89170716D01*
X130644692Y-88732103D01*
X130645107Y-88257180D01*
X130463745Y-87818250D01*
X130128216Y-87482136D01*
X129689603Y-87300008D01*
X129214680Y-87299593D01*
X128775750Y-87480955D01*
X128676800Y-87579733D01*
X128676800Y-86867711D01*
X128773984Y-86965064D01*
X129212597Y-87147192D01*
X129687520Y-87147607D01*
X130126450Y-86966245D01*
X130462564Y-86630716D01*
X130644692Y-86192103D01*
X130645107Y-85717180D01*
X130463745Y-85278250D01*
X130128216Y-84942136D01*
X129689603Y-84760008D01*
X129214680Y-84759593D01*
X128775750Y-84940955D01*
X128676800Y-85039733D01*
X128676800Y-84327711D01*
X128773984Y-84425064D01*
X129212597Y-84607192D01*
X129687520Y-84607607D01*
X130126450Y-84426245D01*
X130462564Y-84090716D01*
X130644692Y-83652103D01*
X130645107Y-83177180D01*
X130463745Y-82738250D01*
X130128216Y-82402136D01*
X129689603Y-82220008D01*
X129214680Y-82219593D01*
X128775750Y-82400955D01*
X128676800Y-82499733D01*
X128676800Y-81787711D01*
X128773984Y-81885064D01*
X129212597Y-82067192D01*
X129687520Y-82067607D01*
X130126450Y-81886245D01*
X130462564Y-81550716D01*
X130644692Y-81112103D01*
X130645107Y-80637180D01*
X130463745Y-80198250D01*
X130128216Y-79862136D01*
X129689603Y-79680008D01*
X129214680Y-79679593D01*
X128775750Y-79860955D01*
X128676800Y-79959733D01*
X128676800Y-79247711D01*
X128773984Y-79345064D01*
X129212597Y-79527192D01*
X129687520Y-79527607D01*
X130126450Y-79346245D01*
X130462564Y-79010716D01*
X130644692Y-78572103D01*
X130645107Y-78097180D01*
X130463745Y-77658250D01*
X130128216Y-77322136D01*
X129689603Y-77140008D01*
X129214680Y-77139593D01*
X128775750Y-77320955D01*
X128676800Y-77419733D01*
X128676800Y-76707711D01*
X128773984Y-76805064D01*
X129212597Y-76987192D01*
X129687520Y-76987607D01*
X130126450Y-76806245D01*
X130462564Y-76470716D01*
X130644692Y-76032103D01*
X130645107Y-75557180D01*
X130463745Y-75118250D01*
X130128216Y-74782136D01*
X129689603Y-74600008D01*
X129214680Y-74599593D01*
X128775750Y-74780955D01*
X128676800Y-74879733D01*
X128676800Y-74167711D01*
X128773984Y-74265064D01*
X129212597Y-74447192D01*
X129687520Y-74447607D01*
X130126450Y-74266245D01*
X130462564Y-73930716D01*
X130644692Y-73492103D01*
X130645107Y-73017180D01*
X130463745Y-72578250D01*
X130128216Y-72242136D01*
X129689603Y-72060008D01*
X129214680Y-72059593D01*
X128775750Y-72240955D01*
X128676800Y-72339733D01*
X128676800Y-71627711D01*
X128773984Y-71725064D01*
X129212597Y-71907192D01*
X129687520Y-71907607D01*
X130126450Y-71726245D01*
X130462564Y-71390716D01*
X130644692Y-70952103D01*
X130645107Y-70477180D01*
X130463745Y-70038250D01*
X130128216Y-69702136D01*
X129689603Y-69520008D01*
X129214680Y-69519593D01*
X128775750Y-69700955D01*
X128676800Y-69799733D01*
X128676800Y-69087711D01*
X128773984Y-69185064D01*
X129212597Y-69367192D01*
X129687520Y-69367607D01*
X129805922Y-69318684D01*
X130314868Y-69827631D01*
X130496156Y-69948764D01*
X130710000Y-69991300D01*
X131024899Y-69991300D01*
X130979636Y-70036484D01*
X130797508Y-70475097D01*
X130797093Y-70950020D01*
X130978455Y-71388950D01*
X131313984Y-71725064D01*
X131752597Y-71907192D01*
X132227520Y-71907607D01*
X132666450Y-71726245D01*
X132691200Y-71701538D01*
X132691200Y-72265160D01*
X132668216Y-72242136D01*
X132229603Y-72060008D01*
X131754680Y-72059593D01*
X131315750Y-72240955D01*
X130979636Y-72576484D01*
X130797508Y-73015097D01*
X130797093Y-73490020D01*
X130978455Y-73928950D01*
X131313984Y-74265064D01*
X131752597Y-74447192D01*
X132227520Y-74447607D01*
X132666450Y-74266245D01*
X132691200Y-74241538D01*
X132691200Y-74805160D01*
X132668216Y-74782136D01*
X132229603Y-74600008D01*
X131754680Y-74599593D01*
X131315750Y-74780955D01*
X130979636Y-75116484D01*
X130797508Y-75555097D01*
X130797093Y-76030020D01*
X130978455Y-76468950D01*
X131313984Y-76805064D01*
X131752597Y-76987192D01*
X132227520Y-76987607D01*
X132666450Y-76806245D01*
X132691200Y-76781538D01*
X132691200Y-77345160D01*
X132668216Y-77322136D01*
X132229603Y-77140008D01*
X131754680Y-77139593D01*
X131315750Y-77320955D01*
X130979636Y-77656484D01*
X130797508Y-78095097D01*
X130797093Y-78570020D01*
X130978455Y-79008950D01*
X131313984Y-79345064D01*
X131752597Y-79527192D01*
X132227520Y-79527607D01*
X132666450Y-79346245D01*
X132691200Y-79321538D01*
X132691200Y-79885160D01*
X132668216Y-79862136D01*
X132229603Y-79680008D01*
X131754680Y-79679593D01*
X131315750Y-79860955D01*
X130979636Y-80196484D01*
X130797508Y-80635097D01*
X130797093Y-81110020D01*
X130978455Y-81548950D01*
X131313984Y-81885064D01*
X131752597Y-82067192D01*
X132227520Y-82067607D01*
X132666450Y-81886245D01*
X132691200Y-81861538D01*
X132691200Y-82425160D01*
X132668216Y-82402136D01*
X132229603Y-82220008D01*
X131754680Y-82219593D01*
X131315750Y-82400955D01*
X130979636Y-82736484D01*
X130797508Y-83175097D01*
X130797093Y-83650020D01*
X130978455Y-84088950D01*
X131313984Y-84425064D01*
X131752597Y-84607192D01*
X132227520Y-84607607D01*
X132666450Y-84426245D01*
X132691200Y-84401538D01*
X132691200Y-84965160D01*
X132668216Y-84942136D01*
X132229603Y-84760008D01*
X131754680Y-84759593D01*
X131315750Y-84940955D01*
X130979636Y-85276484D01*
X130797508Y-85715097D01*
X130797093Y-86190020D01*
X130978455Y-86628950D01*
X131313984Y-86965064D01*
X131752597Y-87147192D01*
X132227520Y-87147607D01*
X132666450Y-86966245D01*
X132691200Y-86941538D01*
X132691200Y-87505160D01*
X132668216Y-87482136D01*
X132229603Y-87300008D01*
X131754680Y-87299593D01*
X131315750Y-87480955D01*
X130979636Y-87816484D01*
X130797508Y-88255097D01*
X130797093Y-88730020D01*
X130978455Y-89168950D01*
X131313984Y-89505064D01*
X131752597Y-89687192D01*
X132227520Y-89687607D01*
X132666450Y-89506245D01*
X133002564Y-89170716D01*
X133184692Y-88732103D01*
X133184816Y-88590078D01*
X134759869Y-90165131D01*
X134941156Y-90286264D01*
X135155000Y-90328800D01*
X144045000Y-90328800D01*
X144258844Y-90286264D01*
X144440131Y-90165131D01*
X144827737Y-89777525D01*
X145170524Y-89709341D01*
X145586369Y-89431481D01*
X145864229Y-89015636D01*
X145916301Y-88753847D01*
X151017978Y-88753847D01*
X151212709Y-89225133D01*
X151572971Y-89586024D01*
X152043916Y-89781577D01*
X152553847Y-89782022D01*
X153025133Y-89587291D01*
X153386024Y-89227029D01*
X153537073Y-88863263D01*
X153753537Y-89314734D01*
X154148024Y-89668487D01*
X154503057Y-89815535D01*
X154713000Y-89724431D01*
X154713000Y-88627000D01*
X154693000Y-88627000D01*
X154693000Y-88373000D01*
X154713000Y-88373000D01*
X154713000Y-87275569D01*
X154967000Y-87275569D01*
X154967000Y-88373000D01*
X154987000Y-88373000D01*
X154987000Y-88627000D01*
X154967000Y-88627000D01*
X154967000Y-89724431D01*
X155176943Y-89815535D01*
X155531976Y-89668487D01*
X155551200Y-89651248D01*
X155551200Y-98700000D01*
X155593736Y-98913844D01*
X155631691Y-98970647D01*
X155714869Y-99095131D01*
X156485366Y-99865628D01*
X156314352Y-99804791D01*
X155764873Y-99832793D01*
X155387280Y-99989197D01*
X155296973Y-100207368D01*
X156110000Y-101020395D01*
X156124143Y-101006253D01*
X156303748Y-101185858D01*
X156289605Y-101200000D01*
X157102632Y-102013027D01*
X157320803Y-101922720D01*
X157401238Y-101696616D01*
X157501503Y-101939276D01*
X157868791Y-102307205D01*
X158348921Y-102506573D01*
X158868798Y-102507027D01*
X159349276Y-102308497D01*
X159717205Y-101941209D01*
X159860105Y-101597068D01*
X160001503Y-101939276D01*
X160368791Y-102307205D01*
X160848921Y-102506573D01*
X161368798Y-102507027D01*
X161849276Y-102308497D01*
X162217205Y-101941209D01*
X162416573Y-101461079D01*
X162416600Y-101430020D01*
X163817093Y-101430020D01*
X163998455Y-101868950D01*
X164333984Y-102205064D01*
X164772597Y-102387192D01*
X165247520Y-102387607D01*
X165686450Y-102206245D01*
X166022564Y-101870716D01*
X166204692Y-101432103D01*
X166205107Y-100957180D01*
X166023745Y-100518250D01*
X165688216Y-100182136D01*
X165249603Y-100000008D01*
X164774680Y-99999593D01*
X164335750Y-100180955D01*
X163999636Y-100516484D01*
X163817508Y-100955097D01*
X163817093Y-101430020D01*
X162416600Y-101430020D01*
X162417027Y-100941202D01*
X162218497Y-100460724D01*
X161851209Y-100092795D01*
X161371079Y-99893427D01*
X160851202Y-99892973D01*
X160668660Y-99968398D01*
X160235131Y-99534869D01*
X160196182Y-99508844D01*
X160053844Y-99413736D01*
X159840000Y-99371200D01*
X158246462Y-99371200D01*
X157765282Y-98890020D01*
X163817093Y-98890020D01*
X163998455Y-99328950D01*
X164333984Y-99665064D01*
X164772597Y-99847192D01*
X165247520Y-99847607D01*
X165686450Y-99666245D01*
X166022564Y-99330716D01*
X166204692Y-98892103D01*
X166205107Y-98417180D01*
X166023745Y-97978250D01*
X165688216Y-97642136D01*
X165249603Y-97460008D01*
X164774680Y-97459593D01*
X164335750Y-97640955D01*
X163999636Y-97976484D01*
X163817508Y-98415097D01*
X163817093Y-98890020D01*
X157765282Y-98890020D01*
X157303800Y-98428538D01*
X157303800Y-96350020D01*
X163817093Y-96350020D01*
X163998455Y-96788950D01*
X164333984Y-97125064D01*
X164772597Y-97307192D01*
X165247520Y-97307607D01*
X165686450Y-97126245D01*
X166022564Y-96790716D01*
X166204692Y-96352103D01*
X166205107Y-95877180D01*
X166023745Y-95438250D01*
X165688216Y-95102136D01*
X165249603Y-94920008D01*
X164774680Y-94919593D01*
X164335750Y-95100955D01*
X163999636Y-95436484D01*
X163817508Y-95875097D01*
X163817093Y-96350020D01*
X157303800Y-96350020D01*
X157303800Y-90881194D01*
X157365028Y-90820073D01*
X157476673Y-90551203D01*
X157476927Y-90260075D01*
X157365752Y-89991010D01*
X157160073Y-89784972D01*
X157059271Y-89743115D01*
X157380000Y-89806912D01*
X157870524Y-89709341D01*
X158286369Y-89431481D01*
X158564229Y-89015636D01*
X158650000Y-88584435D01*
X158735771Y-89015636D01*
X159013631Y-89431481D01*
X159429476Y-89709341D01*
X159920000Y-89806912D01*
X160410524Y-89709341D01*
X160826369Y-89431481D01*
X161104229Y-89015636D01*
X161201800Y-88525112D01*
X161201800Y-88474888D01*
X161104229Y-87984364D01*
X160826369Y-87568519D01*
X160410524Y-87290659D01*
X159920000Y-87193088D01*
X159429476Y-87290659D01*
X159013631Y-87568519D01*
X158735771Y-87984364D01*
X158650000Y-88415565D01*
X158564229Y-87984364D01*
X158286369Y-87568519D01*
X157870524Y-87290659D01*
X157380000Y-87193088D01*
X156889476Y-87290659D01*
X156668800Y-87438111D01*
X156668800Y-86436194D01*
X156730028Y-86375073D01*
X156841673Y-86106203D01*
X156841927Y-85815075D01*
X156730752Y-85546010D01*
X156525073Y-85339972D01*
X156256203Y-85228327D01*
X155965075Y-85228073D01*
X155696010Y-85339248D01*
X155489972Y-85544927D01*
X155378327Y-85813797D01*
X155378073Y-86104925D01*
X155489248Y-86373990D01*
X155551200Y-86436050D01*
X155551200Y-87348752D01*
X155531976Y-87331513D01*
X155176943Y-87184465D01*
X154967000Y-87275569D01*
X154713000Y-87275569D01*
X154503057Y-87184465D01*
X154148024Y-87331513D01*
X153753537Y-87685266D01*
X153536933Y-88137029D01*
X153387291Y-87774867D01*
X153027029Y-87413976D01*
X152556084Y-87218423D01*
X152046153Y-87217978D01*
X151574867Y-87412709D01*
X151213976Y-87772971D01*
X151018423Y-88243916D01*
X151017978Y-88753847D01*
X145916301Y-88753847D01*
X145961800Y-88525112D01*
X145961800Y-88474888D01*
X145864229Y-87984364D01*
X145586369Y-87568519D01*
X145170524Y-87290659D01*
X144680000Y-87193088D01*
X144189476Y-87290659D01*
X143773631Y-87568519D01*
X143495771Y-87984364D01*
X143410000Y-88415565D01*
X143324229Y-87984364D01*
X143046369Y-87568519D01*
X142630524Y-87290659D01*
X142140000Y-87193088D01*
X141649476Y-87290659D01*
X141233631Y-87568519D01*
X140955771Y-87984364D01*
X140878467Y-88372998D01*
X140825060Y-88372998D01*
X140915546Y-88163055D01*
X140686463Y-87685266D01*
X140291976Y-87331513D01*
X139936943Y-87184465D01*
X139727000Y-87275569D01*
X139727000Y-88373000D01*
X139747000Y-88373000D01*
X139747000Y-88627000D01*
X139727000Y-88627000D01*
X139727000Y-88647000D01*
X139473000Y-88647000D01*
X139473000Y-88627000D01*
X139453000Y-88627000D01*
X139453000Y-88373000D01*
X139473000Y-88373000D01*
X139473000Y-87275569D01*
X139263057Y-87184465D01*
X138908024Y-87331513D01*
X138513537Y-87685266D01*
X138296933Y-88137029D01*
X138147291Y-87774867D01*
X137787029Y-87413976D01*
X137316084Y-87218423D01*
X136806153Y-87217978D01*
X136334867Y-87412709D01*
X135973976Y-87772971D01*
X135904121Y-87941200D01*
X135107040Y-87941200D01*
X134321590Y-87155750D01*
X134321590Y-85579000D01*
X142582000Y-85579000D01*
X142582000Y-85726048D01*
X142659339Y-85912759D01*
X142802242Y-86055662D01*
X142988953Y-86133000D01*
X143586000Y-86133000D01*
X143713000Y-86006000D01*
X143713000Y-85452000D01*
X143967000Y-85452000D01*
X143967000Y-86006000D01*
X144094000Y-86133000D01*
X144691047Y-86133000D01*
X144877758Y-86055662D01*
X145020661Y-85912759D01*
X145098000Y-85726048D01*
X145098000Y-85579000D01*
X151882000Y-85579000D01*
X151882000Y-85726048D01*
X151959339Y-85912759D01*
X152102242Y-86055662D01*
X152288953Y-86133000D01*
X152886000Y-86133000D01*
X153013000Y-86006000D01*
X153013000Y-85452000D01*
X153267000Y-85452000D01*
X153267000Y-86006000D01*
X153394000Y-86133000D01*
X153991047Y-86133000D01*
X154177758Y-86055662D01*
X154320661Y-85912759D01*
X154398000Y-85726048D01*
X154398000Y-85579000D01*
X154271000Y-85452000D01*
X153267000Y-85452000D01*
X153013000Y-85452000D01*
X152009000Y-85452000D01*
X151882000Y-85579000D01*
X145098000Y-85579000D01*
X144971000Y-85452000D01*
X143967000Y-85452000D01*
X143713000Y-85452000D01*
X142709000Y-85452000D01*
X142582000Y-85579000D01*
X134321590Y-85579000D01*
X134321590Y-84309000D01*
X142582000Y-84309000D01*
X142582000Y-84456048D01*
X142659339Y-84642759D01*
X142706580Y-84690000D01*
X142659339Y-84737241D01*
X142582000Y-84923952D01*
X142582000Y-85071000D01*
X142709000Y-85198000D01*
X143713000Y-85198000D01*
X143713000Y-84182000D01*
X143967000Y-84182000D01*
X143967000Y-85198000D01*
X144971000Y-85198000D01*
X145098000Y-85071000D01*
X145098000Y-84923952D01*
X145020661Y-84737241D01*
X144973420Y-84690000D01*
X145020661Y-84642759D01*
X145098000Y-84456048D01*
X145098000Y-84309000D01*
X151882000Y-84309000D01*
X151882000Y-84456048D01*
X151959339Y-84642759D01*
X152006580Y-84690000D01*
X151959339Y-84737241D01*
X151882000Y-84923952D01*
X151882000Y-85071000D01*
X152009000Y-85198000D01*
X153013000Y-85198000D01*
X153013000Y-84182000D01*
X153267000Y-84182000D01*
X153267000Y-85198000D01*
X154271000Y-85198000D01*
X154398000Y-85071000D01*
X154398000Y-84923952D01*
X154320661Y-84737241D01*
X154273420Y-84690000D01*
X154320661Y-84642759D01*
X154398000Y-84456048D01*
X154398000Y-84309000D01*
X154271000Y-84182000D01*
X153267000Y-84182000D01*
X153013000Y-84182000D01*
X152009000Y-84182000D01*
X151882000Y-84309000D01*
X145098000Y-84309000D01*
X144971000Y-84182000D01*
X143967000Y-84182000D01*
X143713000Y-84182000D01*
X142709000Y-84182000D01*
X142582000Y-84309000D01*
X134321590Y-84309000D01*
X134321590Y-82929925D01*
X138868073Y-82929925D01*
X138979248Y-83198990D01*
X139184927Y-83405028D01*
X139453797Y-83516673D01*
X139744925Y-83516927D01*
X140013990Y-83405752D01*
X140220028Y-83200073D01*
X140286911Y-83039000D01*
X142582000Y-83039000D01*
X142582000Y-83186048D01*
X142659339Y-83372759D01*
X142706580Y-83420000D01*
X142659339Y-83467241D01*
X142582000Y-83653952D01*
X142582000Y-83801000D01*
X142709000Y-83928000D01*
X143713000Y-83928000D01*
X143713000Y-82912000D01*
X143967000Y-82912000D01*
X143967000Y-83928000D01*
X144971000Y-83928000D01*
X145098000Y-83801000D01*
X145098000Y-83653952D01*
X145020661Y-83467241D01*
X144973420Y-83420000D01*
X145020661Y-83372759D01*
X145098000Y-83186048D01*
X145098000Y-83039000D01*
X151882000Y-83039000D01*
X151882000Y-83186048D01*
X151959339Y-83372759D01*
X152006580Y-83420000D01*
X151959339Y-83467241D01*
X151882000Y-83653952D01*
X151882000Y-83801000D01*
X152009000Y-83928000D01*
X153013000Y-83928000D01*
X153013000Y-82912000D01*
X153267000Y-82912000D01*
X153267000Y-83928000D01*
X154271000Y-83928000D01*
X154398000Y-83801000D01*
X154398000Y-83653952D01*
X154320661Y-83467241D01*
X154273420Y-83420000D01*
X154320661Y-83372759D01*
X154398000Y-83186048D01*
X154398000Y-83039000D01*
X154271000Y-82912000D01*
X153267000Y-82912000D01*
X153013000Y-82912000D01*
X152009000Y-82912000D01*
X151882000Y-83039000D01*
X145098000Y-83039000D01*
X144971000Y-82912000D01*
X143967000Y-82912000D01*
X143713000Y-82912000D01*
X142709000Y-82912000D01*
X142582000Y-83039000D01*
X140286911Y-83039000D01*
X140331673Y-82931203D01*
X140331927Y-82640075D01*
X140220752Y-82371010D01*
X140158800Y-82308950D01*
X140158800Y-81769000D01*
X142582000Y-81769000D01*
X142582000Y-81916048D01*
X142659339Y-82102759D01*
X142706580Y-82150000D01*
X142659339Y-82197241D01*
X142582000Y-82383952D01*
X142582000Y-82531000D01*
X142709000Y-82658000D01*
X143713000Y-82658000D01*
X143713000Y-81642000D01*
X143967000Y-81642000D01*
X143967000Y-82658000D01*
X144971000Y-82658000D01*
X145098000Y-82531000D01*
X145098000Y-82383952D01*
X145020661Y-82197241D01*
X144973420Y-82150000D01*
X145020661Y-82102759D01*
X145098000Y-81916048D01*
X145098000Y-81769000D01*
X151882000Y-81769000D01*
X151882000Y-81916048D01*
X151959339Y-82102759D01*
X152006580Y-82150000D01*
X151959339Y-82197241D01*
X151882000Y-82383952D01*
X151882000Y-82531000D01*
X152009000Y-82658000D01*
X153013000Y-82658000D01*
X153013000Y-81642000D01*
X153267000Y-81642000D01*
X153267000Y-82658000D01*
X154271000Y-82658000D01*
X154398000Y-82531000D01*
X154398000Y-82383952D01*
X154320661Y-82197241D01*
X154273420Y-82150000D01*
X154320661Y-82102759D01*
X154398000Y-81916048D01*
X154398000Y-81769000D01*
X154271000Y-81642000D01*
X153267000Y-81642000D01*
X153013000Y-81642000D01*
X152009000Y-81642000D01*
X151882000Y-81769000D01*
X145098000Y-81769000D01*
X144971000Y-81642000D01*
X143967000Y-81642000D01*
X143713000Y-81642000D01*
X142709000Y-81642000D01*
X142582000Y-81769000D01*
X140158800Y-81769000D01*
X140158800Y-79206462D01*
X141101462Y-78263800D01*
X142743416Y-78263800D01*
X142774419Y-78311980D01*
X142814346Y-78339261D01*
X142783020Y-78359419D01*
X142684427Y-78503715D01*
X142649741Y-78675000D01*
X142649741Y-79275000D01*
X142679850Y-79435015D01*
X142774419Y-79581980D01*
X142814346Y-79609261D01*
X142783020Y-79629419D01*
X142684427Y-79773715D01*
X142649741Y-79945000D01*
X142649741Y-80545000D01*
X142679850Y-80705015D01*
X142758828Y-80827752D01*
X142659339Y-80927241D01*
X142582000Y-81113952D01*
X142582000Y-81261000D01*
X142709000Y-81388000D01*
X143713000Y-81388000D01*
X143713000Y-81368000D01*
X143967000Y-81368000D01*
X143967000Y-81388000D01*
X144971000Y-81388000D01*
X145098000Y-81261000D01*
X145098000Y-81113952D01*
X145020661Y-80927241D01*
X144920126Y-80826706D01*
X144995573Y-80716285D01*
X145030259Y-80545000D01*
X145030259Y-80499000D01*
X151882000Y-80499000D01*
X151882000Y-80646048D01*
X151959339Y-80832759D01*
X152006580Y-80880000D01*
X151959339Y-80927241D01*
X151882000Y-81113952D01*
X151882000Y-81261000D01*
X152009000Y-81388000D01*
X153013000Y-81388000D01*
X153013000Y-80372000D01*
X153267000Y-80372000D01*
X153267000Y-81388000D01*
X154271000Y-81388000D01*
X154398000Y-81261000D01*
X154398000Y-81113952D01*
X154320661Y-80927241D01*
X154273420Y-80880000D01*
X154320661Y-80832759D01*
X154398000Y-80646048D01*
X154398000Y-80499000D01*
X154271000Y-80372000D01*
X153267000Y-80372000D01*
X153013000Y-80372000D01*
X152009000Y-80372000D01*
X151882000Y-80499000D01*
X145030259Y-80499000D01*
X145030259Y-79945000D01*
X145000150Y-79784985D01*
X144905581Y-79638020D01*
X144865654Y-79610739D01*
X144896980Y-79590581D01*
X144995573Y-79446285D01*
X145030259Y-79275000D01*
X145030259Y-78675000D01*
X145000150Y-78514985D01*
X144905581Y-78368020D01*
X144865654Y-78340739D01*
X144896980Y-78320581D01*
X144995573Y-78176285D01*
X145030259Y-78005000D01*
X145030259Y-77405000D01*
X145000150Y-77244985D01*
X144905581Y-77098020D01*
X144865654Y-77070739D01*
X144896980Y-77050581D01*
X144995573Y-76906285D01*
X145030259Y-76735000D01*
X145030259Y-76135000D01*
X145000150Y-75974985D01*
X144905581Y-75828020D01*
X144761285Y-75729427D01*
X144590000Y-75694741D01*
X143090000Y-75694741D01*
X142929985Y-75724850D01*
X142783020Y-75819419D01*
X142684427Y-75963715D01*
X142649741Y-76135000D01*
X142649741Y-76735000D01*
X142679850Y-76895015D01*
X142774419Y-77041980D01*
X142814346Y-77069261D01*
X142783020Y-77089419D01*
X142744223Y-77146200D01*
X140870000Y-77146200D01*
X140656156Y-77188736D01*
X140474869Y-77309869D01*
X139204869Y-78579869D01*
X139083736Y-78761156D01*
X139041200Y-78975000D01*
X139041200Y-82308806D01*
X138979972Y-82369927D01*
X138868327Y-82638797D01*
X138868073Y-82929925D01*
X134321590Y-82929925D01*
X134321590Y-69926194D01*
X134382818Y-69865073D01*
X134494463Y-69596203D01*
X134494717Y-69305075D01*
X134383542Y-69036010D01*
X134177863Y-68829972D01*
X133908993Y-68718327D01*
X133617865Y-68718073D01*
X133348800Y-68829248D01*
X133142762Y-69034927D01*
X133097996Y-69142734D01*
X132992631Y-69037369D01*
X132970103Y-69022317D01*
X132994764Y-68997656D01*
X132901824Y-68904716D01*
X133108279Y-68828297D01*
X133273781Y-68350936D01*
X133244006Y-67846577D01*
X133108279Y-67518903D01*
X132901822Y-67442483D01*
X132170705Y-68173600D01*
X132184848Y-68187743D01*
X132005243Y-68367348D01*
X131991100Y-68353205D01*
X131976958Y-68367348D01*
X131797353Y-68187743D01*
X131811495Y-68173600D01*
X131080378Y-67442483D01*
X130873921Y-67518903D01*
X130708419Y-67996264D01*
X130738194Y-68500623D01*
X130858267Y-68790504D01*
X130596331Y-68528569D01*
X130644692Y-68412103D01*
X130645107Y-67937180D01*
X130463745Y-67498250D01*
X130228783Y-67262878D01*
X131259983Y-67262878D01*
X131991100Y-67993995D01*
X132722217Y-67262878D01*
X132645797Y-67056421D01*
X132168436Y-66890919D01*
X131664077Y-66920694D01*
X131336403Y-67056421D01*
X131259983Y-67262878D01*
X130228783Y-67262878D01*
X130128216Y-67162136D01*
X129689603Y-66980008D01*
X129214680Y-66979593D01*
X128775750Y-67160955D01*
X128676800Y-67259733D01*
X128676800Y-66547711D01*
X128773984Y-66645064D01*
X129212597Y-66827192D01*
X129687520Y-66827607D01*
X130126450Y-66646245D01*
X130462564Y-66310716D01*
X130644692Y-65872103D01*
X130644693Y-65870020D01*
X130797093Y-65870020D01*
X130978455Y-66308950D01*
X131313984Y-66645064D01*
X131752597Y-66827192D01*
X132227520Y-66827607D01*
X132666450Y-66646245D01*
X133002564Y-66310716D01*
X133184692Y-65872103D01*
X133185107Y-65397180D01*
X133003745Y-64958250D01*
X132668216Y-64622136D01*
X132229603Y-64440008D01*
X131754680Y-64439593D01*
X131315750Y-64620955D01*
X130979636Y-64956484D01*
X130797508Y-65395097D01*
X130797093Y-65870020D01*
X130644693Y-65870020D01*
X130645107Y-65397180D01*
X130463745Y-64958250D01*
X130128216Y-64622136D01*
X129689603Y-64440008D01*
X129214680Y-64439593D01*
X128775750Y-64620955D01*
X128676800Y-64719733D01*
X128676800Y-64007711D01*
X128773984Y-64105064D01*
X129212597Y-64287192D01*
X129687520Y-64287607D01*
X130126450Y-64106245D01*
X130462564Y-63770716D01*
X130644692Y-63332103D01*
X130644693Y-63330020D01*
X130797093Y-63330020D01*
X130978455Y-63768950D01*
X131313984Y-64105064D01*
X131752597Y-64287192D01*
X132227520Y-64287607D01*
X132666450Y-64106245D01*
X133002564Y-63770716D01*
X133184692Y-63332103D01*
X133185107Y-62857180D01*
X133003745Y-62418250D01*
X132668216Y-62082136D01*
X132229603Y-61900008D01*
X131754680Y-61899593D01*
X131315750Y-62080955D01*
X130979636Y-62416484D01*
X130797508Y-62855097D01*
X130797093Y-63330020D01*
X130644693Y-63330020D01*
X130645107Y-62857180D01*
X130463745Y-62418250D01*
X130128216Y-62082136D01*
X129689603Y-61900008D01*
X129214680Y-61899593D01*
X128775750Y-62080955D01*
X128676800Y-62179733D01*
X128676800Y-61467711D01*
X128773984Y-61565064D01*
X129212597Y-61747192D01*
X129687520Y-61747607D01*
X130126450Y-61566245D01*
X130462564Y-61230716D01*
X130644692Y-60792103D01*
X130644693Y-60790020D01*
X130797093Y-60790020D01*
X130978455Y-61228950D01*
X131313984Y-61565064D01*
X131752597Y-61747192D01*
X132227520Y-61747607D01*
X132666450Y-61566245D01*
X133002564Y-61230716D01*
X133184692Y-60792103D01*
X133185107Y-60317180D01*
X133003745Y-59878250D01*
X132668216Y-59542136D01*
X132229603Y-59360008D01*
X131754680Y-59359593D01*
X131315750Y-59540955D01*
X130979636Y-59876484D01*
X130797508Y-60315097D01*
X130797093Y-60790020D01*
X130644693Y-60790020D01*
X130645107Y-60317180D01*
X130596184Y-60198778D01*
X131109832Y-59685131D01*
X131230965Y-59503843D01*
X131273500Y-59290000D01*
X131268800Y-59266371D01*
X131268800Y-58948142D01*
X131336403Y-59130779D01*
X131813764Y-59296281D01*
X132318123Y-59266506D01*
X132645797Y-59130779D01*
X132722217Y-58924322D01*
X131991100Y-58193205D01*
X131976958Y-58207348D01*
X131797353Y-58027743D01*
X131811495Y-58013600D01*
X132170705Y-58013600D01*
X132901822Y-58744717D01*
X133108279Y-58668297D01*
X133273781Y-58190936D01*
X133244006Y-57686577D01*
X133108279Y-57358903D01*
X132901822Y-57282483D01*
X132170705Y-58013600D01*
X131811495Y-58013600D01*
X131797353Y-57999458D01*
X131976958Y-57819853D01*
X131991100Y-57833995D01*
X132722217Y-57102878D01*
X132645797Y-56896421D01*
X132168436Y-56730919D01*
X131664077Y-56760694D01*
X131441711Y-56852801D01*
X131441927Y-56605075D01*
X131408567Y-56524338D01*
X131752597Y-56667192D01*
X132227520Y-56667607D01*
X132666450Y-56486245D01*
X133002564Y-56150716D01*
X133184692Y-55712103D01*
X133185107Y-55237180D01*
X133003745Y-54798250D01*
X132668216Y-54462136D01*
X132229603Y-54280008D01*
X131754680Y-54279593D01*
X131315750Y-54460955D01*
X130979636Y-54796484D01*
X130797508Y-55235097D01*
X130797093Y-55710020D01*
X130938624Y-56052551D01*
X130856203Y-56018327D01*
X130606481Y-56018109D01*
X130733781Y-55650936D01*
X130704006Y-55146577D01*
X130568279Y-54818903D01*
X130361822Y-54742483D01*
X129630705Y-55473600D01*
X129644848Y-55487743D01*
X129465243Y-55667348D01*
X129451100Y-55653205D01*
X129436958Y-55667348D01*
X129257353Y-55487743D01*
X129271495Y-55473600D01*
X129257353Y-55459458D01*
X129436958Y-55279853D01*
X129451100Y-55293995D01*
X130182217Y-54562878D01*
X130105797Y-54356421D01*
X129628436Y-54190919D01*
X129124077Y-54220694D01*
X128796403Y-54356421D01*
X128719984Y-54562876D01*
X128676800Y-54519692D01*
X128676800Y-48704924D01*
X129717771Y-47663952D01*
X157042000Y-47663952D01*
X157042000Y-48011000D01*
X157169000Y-48138000D01*
X158523000Y-48138000D01*
X158523000Y-47384000D01*
X158777000Y-47384000D01*
X158777000Y-48138000D01*
X160131000Y-48138000D01*
X160258000Y-48011000D01*
X160258000Y-47663952D01*
X160180661Y-47477241D01*
X160037758Y-47334338D01*
X159851047Y-47257000D01*
X158904000Y-47257000D01*
X158777000Y-47384000D01*
X158523000Y-47384000D01*
X158396000Y-47257000D01*
X157448953Y-47257000D01*
X157262242Y-47334338D01*
X157119339Y-47477241D01*
X157042000Y-47663952D01*
X129717771Y-47663952D01*
X132189923Y-45191800D01*
X161438857Y-45191800D01*
X161953200Y-45693598D01*
X161953200Y-45693598D01*
G37*
X161953200Y-45693598D02*
X161953200Y-54210000D01*
X161991778Y-54403944D01*
X162101638Y-54568362D01*
X162266056Y-54678222D01*
X162460000Y-54716800D01*
X164074692Y-54716800D01*
X164100376Y-54742484D01*
X163893921Y-54818903D01*
X163728419Y-55296264D01*
X163758194Y-55800623D01*
X163893921Y-56128297D01*
X164100378Y-56204717D01*
X164831495Y-55473600D01*
X164817353Y-55459458D01*
X164996958Y-55279853D01*
X165011100Y-55293995D01*
X165025243Y-55279853D01*
X165204848Y-55459458D01*
X165190705Y-55473600D01*
X165921822Y-56204717D01*
X166128279Y-56128297D01*
X166293781Y-55650936D01*
X166264006Y-55146577D01*
X166128279Y-54818903D01*
X165921824Y-54742484D01*
X165947508Y-54716800D01*
X166619459Y-54716800D01*
X166539636Y-54796484D01*
X166357508Y-55235097D01*
X166357093Y-55710020D01*
X166538455Y-56148950D01*
X166873984Y-56485064D01*
X167312597Y-56667192D01*
X167787520Y-56667607D01*
X168226450Y-56486245D01*
X168303200Y-56409629D01*
X168303200Y-57077251D01*
X168228216Y-57002136D01*
X167789603Y-56820008D01*
X167314680Y-56819593D01*
X166875750Y-57000955D01*
X166539636Y-57336484D01*
X166357508Y-57775097D01*
X166357093Y-58250020D01*
X166538455Y-58688950D01*
X166873984Y-59025064D01*
X167312597Y-59207192D01*
X167787520Y-59207607D01*
X168226450Y-59026245D01*
X168303200Y-58949629D01*
X168303200Y-59617251D01*
X168228216Y-59542136D01*
X167789603Y-59360008D01*
X167314680Y-59359593D01*
X166875750Y-59540955D01*
X166539636Y-59876484D01*
X166357508Y-60315097D01*
X166357093Y-60790020D01*
X166538455Y-61228950D01*
X166873984Y-61565064D01*
X167312597Y-61747192D01*
X167787520Y-61747607D01*
X168226450Y-61566245D01*
X168303200Y-61489629D01*
X168303200Y-62157251D01*
X168228216Y-62082136D01*
X167789603Y-61900008D01*
X167314680Y-61899593D01*
X166875750Y-62080955D01*
X166539636Y-62416484D01*
X166357508Y-62855097D01*
X166357093Y-63330020D01*
X166538455Y-63768950D01*
X166873984Y-64105064D01*
X167312597Y-64287192D01*
X167787520Y-64287607D01*
X168226450Y-64106245D01*
X168303200Y-64029629D01*
X168303200Y-64697251D01*
X168228216Y-64622136D01*
X167789603Y-64440008D01*
X167314680Y-64439593D01*
X166875750Y-64620955D01*
X166539636Y-64956484D01*
X166357508Y-65395097D01*
X166357093Y-65870020D01*
X166538455Y-66308950D01*
X166873984Y-66645064D01*
X167312597Y-66827192D01*
X167787520Y-66827607D01*
X168226450Y-66646245D01*
X168303200Y-66569629D01*
X168303200Y-67237251D01*
X168228216Y-67162136D01*
X167789603Y-66980008D01*
X167314680Y-66979593D01*
X166875750Y-67160955D01*
X166539636Y-67496484D01*
X166357508Y-67935097D01*
X166357093Y-68410020D01*
X166538455Y-68848950D01*
X166873984Y-69185064D01*
X167312597Y-69367192D01*
X167787520Y-69367607D01*
X168226450Y-69186245D01*
X168303200Y-69109629D01*
X168303200Y-69777251D01*
X168228216Y-69702136D01*
X167789603Y-69520008D01*
X167314680Y-69519593D01*
X166875750Y-69700955D01*
X166539636Y-70036484D01*
X166357508Y-70475097D01*
X166357093Y-70950020D01*
X166538455Y-71388950D01*
X166873984Y-71725064D01*
X167312597Y-71907192D01*
X167787520Y-71907607D01*
X168226450Y-71726245D01*
X168303200Y-71649629D01*
X168303200Y-72317251D01*
X168228216Y-72242136D01*
X167789603Y-72060008D01*
X167314680Y-72059593D01*
X166875750Y-72240955D01*
X166539636Y-72576484D01*
X166357508Y-73015097D01*
X166357093Y-73490020D01*
X166538455Y-73928950D01*
X166873984Y-74265064D01*
X167312597Y-74447192D01*
X167787520Y-74447607D01*
X168226450Y-74266245D01*
X168303200Y-74189629D01*
X168303200Y-74857251D01*
X168228216Y-74782136D01*
X167789603Y-74600008D01*
X167314680Y-74599593D01*
X166875750Y-74780955D01*
X166539636Y-75116484D01*
X166357508Y-75555097D01*
X166357093Y-76030020D01*
X166538455Y-76468950D01*
X166873984Y-76805064D01*
X167312597Y-76987192D01*
X167787520Y-76987607D01*
X168226450Y-76806245D01*
X168303200Y-76729629D01*
X168303200Y-77397251D01*
X168228216Y-77322136D01*
X167789603Y-77140008D01*
X167314680Y-77139593D01*
X166875750Y-77320955D01*
X166539636Y-77656484D01*
X166357508Y-78095097D01*
X166357093Y-78570020D01*
X166538455Y-79008950D01*
X166873984Y-79345064D01*
X167312597Y-79527192D01*
X167787520Y-79527607D01*
X168226450Y-79346245D01*
X168303200Y-79269629D01*
X168303200Y-79941892D01*
X168282216Y-79962876D01*
X168205797Y-79756421D01*
X167728436Y-79590919D01*
X167224077Y-79620694D01*
X166896403Y-79756421D01*
X166819983Y-79962878D01*
X167551100Y-80693995D01*
X167565243Y-80679853D01*
X167744848Y-80859458D01*
X167730705Y-80873600D01*
X167744848Y-80887743D01*
X167565243Y-81067348D01*
X167551100Y-81053205D01*
X166819983Y-81784322D01*
X166896403Y-81990779D01*
X167373764Y-82156281D01*
X167878123Y-82126506D01*
X168205797Y-81990779D01*
X168282216Y-81784324D01*
X168303200Y-81805308D01*
X168303200Y-82477251D01*
X168228216Y-82402136D01*
X167789603Y-82220008D01*
X167314680Y-82219593D01*
X166875750Y-82400955D01*
X166539636Y-82736484D01*
X166357508Y-83175097D01*
X166357093Y-83650020D01*
X166538455Y-84088950D01*
X166873984Y-84425064D01*
X167312597Y-84607192D01*
X167787520Y-84607607D01*
X168226450Y-84426245D01*
X168303200Y-84349629D01*
X168303200Y-85017251D01*
X168228216Y-84942136D01*
X167789603Y-84760008D01*
X167314680Y-84759593D01*
X166875750Y-84940955D01*
X166539636Y-85276484D01*
X166357508Y-85715097D01*
X166357093Y-86190020D01*
X166498624Y-86532551D01*
X166416203Y-86498327D01*
X166125075Y-86498073D01*
X166067819Y-86521731D01*
X166204692Y-86192103D01*
X166205107Y-85717180D01*
X166023745Y-85278250D01*
X165688216Y-84942136D01*
X165249603Y-84760008D01*
X164774680Y-84759593D01*
X164335750Y-84940955D01*
X164020489Y-85255667D01*
X164020489Y-84111022D01*
X164333984Y-84425064D01*
X164772597Y-84607192D01*
X165247520Y-84607607D01*
X165686450Y-84426245D01*
X166022564Y-84090716D01*
X166204692Y-83652103D01*
X166205107Y-83177180D01*
X166023745Y-82738250D01*
X165688216Y-82402136D01*
X165249603Y-82220008D01*
X164774680Y-82219593D01*
X164656278Y-82268516D01*
X164477699Y-82089937D01*
X164477699Y-82032833D01*
X164833764Y-82156281D01*
X165338123Y-82126506D01*
X165665797Y-81990779D01*
X165742217Y-81784322D01*
X165011100Y-81053205D01*
X164996958Y-81067348D01*
X164817353Y-80887743D01*
X164831495Y-80873600D01*
X165190705Y-80873600D01*
X165921822Y-81604717D01*
X166128279Y-81528297D01*
X166290001Y-81061839D01*
X166298194Y-81200623D01*
X166433921Y-81528297D01*
X166640378Y-81604717D01*
X167371495Y-80873600D01*
X166640378Y-80142483D01*
X166433921Y-80218903D01*
X166272199Y-80685361D01*
X166264006Y-80546577D01*
X166128279Y-80218903D01*
X165921822Y-80142483D01*
X165190705Y-80873600D01*
X164831495Y-80873600D01*
X164817353Y-80859458D01*
X164996958Y-80679853D01*
X165011100Y-80693995D01*
X165742217Y-79962878D01*
X165665797Y-79756421D01*
X165188436Y-79590919D01*
X164684077Y-79620694D01*
X164477699Y-79706179D01*
X164477699Y-79404740D01*
X164772597Y-79527192D01*
X165247520Y-79527607D01*
X165686450Y-79346245D01*
X166022564Y-79010716D01*
X166204692Y-78572103D01*
X166205107Y-78097180D01*
X166023745Y-77658250D01*
X165688216Y-77322136D01*
X165249603Y-77140008D01*
X164774680Y-77139593D01*
X164477699Y-77262303D01*
X164477699Y-76864740D01*
X164772597Y-76987192D01*
X165247520Y-76987607D01*
X165686450Y-76806245D01*
X166022564Y-76470716D01*
X166204692Y-76032103D01*
X166205107Y-75557180D01*
X166023745Y-75118250D01*
X165688216Y-74782136D01*
X165249603Y-74600008D01*
X164774680Y-74599593D01*
X164477699Y-74722303D01*
X164477699Y-74324740D01*
X164772597Y-74447192D01*
X165247520Y-74447607D01*
X165686450Y-74266245D01*
X166022564Y-73930716D01*
X166204692Y-73492103D01*
X166205107Y-73017180D01*
X166023745Y-72578250D01*
X165688216Y-72242136D01*
X165249603Y-72060008D01*
X164774680Y-72059593D01*
X164477699Y-72182303D01*
X164477699Y-71784740D01*
X164772597Y-71907192D01*
X165247520Y-71907607D01*
X165686450Y-71726245D01*
X166022564Y-71390716D01*
X166204692Y-70952103D01*
X166205107Y-70477180D01*
X166023745Y-70038250D01*
X165688216Y-69702136D01*
X165249603Y-69520008D01*
X164774680Y-69519593D01*
X164335750Y-69700955D01*
X163999636Y-70036484D01*
X163817508Y-70475097D01*
X163817473Y-70515036D01*
X161712457Y-68410020D01*
X163817093Y-68410020D01*
X163998455Y-68848950D01*
X164333984Y-69185064D01*
X164772597Y-69367192D01*
X165247520Y-69367607D01*
X165686450Y-69186245D01*
X166022564Y-68850716D01*
X166204692Y-68412103D01*
X166205107Y-67937180D01*
X166023745Y-67498250D01*
X165688216Y-67162136D01*
X165249603Y-66980008D01*
X164774680Y-66979593D01*
X164335750Y-67160955D01*
X163999636Y-67496484D01*
X163817508Y-67935097D01*
X163817093Y-68410020D01*
X161712457Y-68410020D01*
X161338105Y-68035669D01*
X161338104Y-68035668D01*
X161156818Y-67914536D01*
X160942974Y-67872000D01*
X159941599Y-67872000D01*
X160016673Y-67691203D01*
X160016927Y-67400075D01*
X159905752Y-67131010D01*
X159700073Y-66924972D01*
X159511832Y-66846807D01*
X159606980Y-66785581D01*
X159705573Y-66641285D01*
X159740259Y-66470000D01*
X159740259Y-65894000D01*
X160467000Y-65894000D01*
X160467000Y-66591048D01*
X160544339Y-66777759D01*
X160687242Y-66920662D01*
X160873953Y-66998000D01*
X161571000Y-66998000D01*
X161698000Y-66871000D01*
X161698000Y-65767000D01*
X160594000Y-65767000D01*
X160467000Y-65894000D01*
X159740259Y-65894000D01*
X159740259Y-64970000D01*
X159710150Y-64809985D01*
X159615581Y-64663020D01*
X159471285Y-64564427D01*
X159300000Y-64529741D01*
X158000000Y-64529741D01*
X157839985Y-64559850D01*
X157693020Y-64654419D01*
X157594427Y-64798715D01*
X157559741Y-64970000D01*
X157559741Y-66470000D01*
X157589850Y-66630015D01*
X157684419Y-66776980D01*
X157828715Y-66875573D01*
X158000000Y-66910259D01*
X158093252Y-66910259D01*
X158135584Y-67123078D01*
X158256283Y-67303717D01*
X158553151Y-67600585D01*
X158553073Y-67689925D01*
X158628305Y-67872000D01*
X155623000Y-67872000D01*
X155623000Y-67344000D01*
X155496000Y-67217000D01*
X154617000Y-67217000D01*
X154617000Y-67237000D01*
X154363000Y-67237000D01*
X154363000Y-67217000D01*
X154343000Y-67217000D01*
X154343000Y-66963000D01*
X154363000Y-66963000D01*
X154363000Y-65709000D01*
X154617000Y-65709000D01*
X154617000Y-66963000D01*
X155496000Y-66963000D01*
X155623000Y-66836000D01*
X155623000Y-65988953D01*
X155545662Y-65802242D01*
X155402759Y-65659339D01*
X155216048Y-65582000D01*
X154744000Y-65582000D01*
X154617000Y-65709000D01*
X154363000Y-65709000D01*
X154260717Y-65606717D01*
X156290634Y-63576800D01*
X157559741Y-63576800D01*
X157559741Y-63770000D01*
X157589850Y-63930015D01*
X157684419Y-64076980D01*
X157828715Y-64175573D01*
X158000000Y-64210259D01*
X159300000Y-64210259D01*
X159460015Y-64180150D01*
X159606980Y-64085581D01*
X159705573Y-63941285D01*
X159740259Y-63770000D01*
X159740259Y-62465000D01*
X159996200Y-62465000D01*
X159996200Y-63735000D01*
X160038736Y-63948844D01*
X160143120Y-64105064D01*
X160159869Y-64130131D01*
X160540719Y-64510981D01*
X160467000Y-64688952D01*
X160467000Y-65386000D01*
X160594000Y-65513000D01*
X161698000Y-65513000D01*
X161698000Y-65493000D01*
X161952000Y-65493000D01*
X161952000Y-65513000D01*
X161972000Y-65513000D01*
X161972000Y-65767000D01*
X161952000Y-65767000D01*
X161952000Y-66871000D01*
X162079000Y-66998000D01*
X162289629Y-66998000D01*
X162157472Y-67129927D01*
X162045827Y-67398797D01*
X162045573Y-67689925D01*
X162156748Y-67958990D01*
X162362427Y-68165028D01*
X162631297Y-68276673D01*
X162922425Y-68276927D01*
X163191490Y-68165752D01*
X163397528Y-67960073D01*
X163509173Y-67691203D01*
X163509250Y-67603513D01*
X164125131Y-66987632D01*
X164246264Y-66806344D01*
X164263230Y-66721050D01*
X164287589Y-66598588D01*
X164333984Y-66645064D01*
X164772597Y-66827192D01*
X165247520Y-66827607D01*
X165686450Y-66646245D01*
X166022564Y-66310716D01*
X166204692Y-65872103D01*
X166205107Y-65397180D01*
X166023745Y-64958250D01*
X165688216Y-64622136D01*
X165249603Y-64440008D01*
X164774680Y-64439593D01*
X164335750Y-64620955D01*
X164213849Y-64742644D01*
X164125132Y-64609869D01*
X163490131Y-63974869D01*
X163451182Y-63948844D01*
X163308844Y-63853736D01*
X163095000Y-63811200D01*
X162886889Y-63811200D01*
X162988720Y-63658800D01*
X163952942Y-63658800D01*
X163998455Y-63768950D01*
X164333984Y-64105064D01*
X164772597Y-64287192D01*
X165247520Y-64287607D01*
X165686450Y-64106245D01*
X166022564Y-63770716D01*
X166204692Y-63332103D01*
X166205107Y-62857180D01*
X166023745Y-62418250D01*
X165688216Y-62082136D01*
X165249603Y-61900008D01*
X164774680Y-61899593D01*
X164335750Y-62080955D01*
X163999636Y-62416484D01*
X163947849Y-62541200D01*
X162988720Y-62541200D01*
X162886889Y-62388800D01*
X163095000Y-62388800D01*
X163308844Y-62346264D01*
X163490131Y-62225131D01*
X164125132Y-61590131D01*
X164218907Y-61449787D01*
X164333984Y-61565064D01*
X164772597Y-61747192D01*
X165247520Y-61747607D01*
X165686450Y-61566245D01*
X166022564Y-61230716D01*
X166204692Y-60792103D01*
X166205107Y-60317180D01*
X166023745Y-59878250D01*
X165688216Y-59542136D01*
X165249603Y-59360008D01*
X164774680Y-59359593D01*
X164335750Y-59540955D01*
X164288800Y-59587823D01*
X164288800Y-59526162D01*
X164656131Y-59158831D01*
X164772597Y-59207192D01*
X165247520Y-59207607D01*
X165686450Y-59026245D01*
X166022564Y-58690716D01*
X166204692Y-58252103D01*
X166205107Y-57777180D01*
X166023745Y-57338250D01*
X165688216Y-57002136D01*
X165249603Y-56820008D01*
X164774680Y-56819593D01*
X164335750Y-57000955D01*
X163999636Y-57336484D01*
X163817508Y-57775097D01*
X163817093Y-58250020D01*
X163866016Y-58368422D01*
X163334869Y-58899569D01*
X163213736Y-59080856D01*
X163171200Y-59294700D01*
X163171200Y-60963537D01*
X162863538Y-61271200D01*
X161190000Y-61271200D01*
X160976157Y-61313735D01*
X160794869Y-61434868D01*
X160159869Y-62069869D01*
X160038736Y-62251156D01*
X159996200Y-62465000D01*
X159740259Y-62465000D01*
X159740259Y-62270000D01*
X159710150Y-62109985D01*
X159615581Y-61963020D01*
X159471285Y-61864427D01*
X159300000Y-61829741D01*
X158000000Y-61829741D01*
X157839985Y-61859850D01*
X157693020Y-61954419D01*
X157594427Y-62098715D01*
X157559741Y-62270000D01*
X157559741Y-62463200D01*
X156060000Y-62463200D01*
X155846922Y-62505584D01*
X155666283Y-62626283D01*
X152642825Y-65649741D01*
X151865000Y-65649741D01*
X151704985Y-65679850D01*
X151558020Y-65774419D01*
X151489539Y-65874644D01*
X151430581Y-65783020D01*
X151286285Y-65684427D01*
X151115000Y-65649741D01*
X149865000Y-65649741D01*
X149704985Y-65679850D01*
X149558020Y-65774419D01*
X149489539Y-65874644D01*
X149430581Y-65783020D01*
X149286285Y-65684427D01*
X149115000Y-65649741D01*
X147865000Y-65649741D01*
X147704985Y-65679850D01*
X147558020Y-65774419D01*
X147489539Y-65874644D01*
X147430581Y-65783020D01*
X147286285Y-65684427D01*
X147115000Y-65649741D01*
X145865000Y-65649741D01*
X145704985Y-65679850D01*
X145558020Y-65774419D01*
X145489539Y-65874644D01*
X145430581Y-65783020D01*
X145286285Y-65684427D01*
X145115000Y-65649741D01*
X143865000Y-65649741D01*
X143704985Y-65679850D01*
X143558020Y-65774419D01*
X143489539Y-65874644D01*
X143430581Y-65783020D01*
X143286285Y-65684427D01*
X143115000Y-65649741D01*
X141865000Y-65649741D01*
X141704985Y-65679850D01*
X141558020Y-65774419D01*
X141459427Y-65918715D01*
X141424741Y-66090000D01*
X141424741Y-67447310D01*
X140606811Y-66629380D01*
X140606811Y-56384322D01*
X164279983Y-56384322D01*
X164356403Y-56590779D01*
X164833764Y-56756281D01*
X165338123Y-56726506D01*
X165665797Y-56590779D01*
X165742217Y-56384322D01*
X165011100Y-55653205D01*
X164279983Y-56384322D01*
X140606811Y-56384322D01*
X140606811Y-54440044D01*
X140608811Y-54429989D01*
X140608811Y-52594451D01*
X141355462Y-51847800D01*
X141424741Y-51847800D01*
X141424741Y-52490000D01*
X141454850Y-52650015D01*
X141549419Y-52796980D01*
X141693715Y-52895573D01*
X141865000Y-52930259D01*
X143115000Y-52930259D01*
X143275015Y-52900150D01*
X143421980Y-52805581D01*
X143490461Y-52705356D01*
X143549419Y-52796980D01*
X143693715Y-52895573D01*
X143865000Y-52930259D01*
X145115000Y-52930259D01*
X145275015Y-52900150D01*
X145421980Y-52805581D01*
X145490461Y-52705356D01*
X145549419Y-52796980D01*
X145693715Y-52895573D01*
X145865000Y-52930259D01*
X147115000Y-52930259D01*
X147275015Y-52900150D01*
X147421980Y-52805581D01*
X147490461Y-52705356D01*
X147549419Y-52796980D01*
X147693715Y-52895573D01*
X147865000Y-52930259D01*
X149115000Y-52930259D01*
X149275015Y-52900150D01*
X149421980Y-52805581D01*
X149438290Y-52781710D01*
X149577241Y-52920661D01*
X149763952Y-52998000D01*
X150236000Y-52998000D01*
X150363000Y-52871000D01*
X150363000Y-51617000D01*
X150343000Y-51617000D01*
X150343000Y-51363000D01*
X150363000Y-51363000D01*
X150363000Y-50109000D01*
X150617000Y-50109000D01*
X150617000Y-51363000D01*
X150637000Y-51363000D01*
X150637000Y-51617000D01*
X150617000Y-51617000D01*
X150617000Y-52871000D01*
X150744000Y-52998000D01*
X151216048Y-52998000D01*
X151402759Y-52920661D01*
X151540422Y-52782998D01*
X151549419Y-52796980D01*
X151693715Y-52895573D01*
X151865000Y-52930259D01*
X151931200Y-52930259D01*
X151931200Y-53130000D01*
X151973736Y-53343844D01*
X152031354Y-53430075D01*
X152094869Y-53525131D01*
X152539869Y-53970131D01*
X152721156Y-54091264D01*
X152935000Y-54133800D01*
X156903806Y-54133800D01*
X156964927Y-54195028D01*
X157233797Y-54306673D01*
X157524925Y-54306927D01*
X157793990Y-54195752D01*
X158000028Y-53990073D01*
X158111673Y-53721203D01*
X158111927Y-53430075D01*
X158000752Y-53161010D01*
X157795073Y-52954972D01*
X157526203Y-52843327D01*
X157235075Y-52843073D01*
X156966010Y-52954248D01*
X156903950Y-53016200D01*
X154694111Y-53016200D01*
X154898247Y-52975595D01*
X154966097Y-52930259D01*
X155115000Y-52930259D01*
X155275015Y-52900150D01*
X155421980Y-52805581D01*
X155520573Y-52661285D01*
X155555259Y-52490000D01*
X155555259Y-51997747D01*
X155556800Y-51990000D01*
X155556800Y-51519000D01*
X157042000Y-51519000D01*
X157042000Y-51866048D01*
X157119339Y-52052759D01*
X157262242Y-52195662D01*
X157448953Y-52273000D01*
X158396000Y-52273000D01*
X158523000Y-52146000D01*
X158523000Y-51392000D01*
X158777000Y-51392000D01*
X158777000Y-52146000D01*
X158904000Y-52273000D01*
X159851047Y-52273000D01*
X160037758Y-52195662D01*
X160180661Y-52052759D01*
X160258000Y-51866048D01*
X160258000Y-51519000D01*
X160131000Y-51392000D01*
X158777000Y-51392000D01*
X158523000Y-51392000D01*
X157169000Y-51392000D01*
X157042000Y-51519000D01*
X155556800Y-51519000D01*
X155556800Y-51191884D01*
X155916883Y-50831800D01*
X156637438Y-50831800D01*
X156913894Y-50946595D01*
X157042000Y-50946707D01*
X157042000Y-51011000D01*
X157169000Y-51138000D01*
X158523000Y-51138000D01*
X158523000Y-50384000D01*
X158777000Y-50384000D01*
X158777000Y-51138000D01*
X160131000Y-51138000D01*
X160258000Y-51011000D01*
X160258000Y-50663952D01*
X160180661Y-50477241D01*
X160037758Y-50334338D01*
X159851047Y-50257000D01*
X158904000Y-50257000D01*
X158777000Y-50384000D01*
X158523000Y-50384000D01*
X158396000Y-50257000D01*
X158225338Y-50257000D01*
X158331595Y-50001106D01*
X158332005Y-49530957D01*
X158225419Y-49273000D01*
X158396000Y-49273000D01*
X158523000Y-49146000D01*
X158523000Y-48392000D01*
X158777000Y-48392000D01*
X158777000Y-49146000D01*
X158904000Y-49273000D01*
X159851047Y-49273000D01*
X160037758Y-49195662D01*
X160180661Y-49052759D01*
X160258000Y-48866048D01*
X160258000Y-48519000D01*
X160131000Y-48392000D01*
X158777000Y-48392000D01*
X158523000Y-48392000D01*
X157169000Y-48392000D01*
X157042000Y-48519000D01*
X157042000Y-48583105D01*
X156915957Y-48582995D01*
X156637139Y-48698200D01*
X155475000Y-48698200D01*
X155066753Y-48779405D01*
X154720658Y-49010658D01*
X154720656Y-49010661D01*
X153735658Y-49995658D01*
X153660107Y-50108728D01*
X153558020Y-50174419D01*
X153489539Y-50274644D01*
X153430581Y-50183020D01*
X153286285Y-50084427D01*
X153115000Y-50049741D01*
X151865000Y-50049741D01*
X151704985Y-50079850D01*
X151558020Y-50174419D01*
X151541710Y-50198290D01*
X151402759Y-50059339D01*
X151216048Y-49982000D01*
X150744000Y-49982000D01*
X150617000Y-50109000D01*
X150363000Y-50109000D01*
X150236000Y-49982000D01*
X149763952Y-49982000D01*
X149577241Y-50059339D01*
X149439578Y-50197002D01*
X149430581Y-50183020D01*
X149286285Y-50084427D01*
X149115000Y-50049741D01*
X147865000Y-50049741D01*
X147704985Y-50079850D01*
X147558020Y-50174419D01*
X147489539Y-50274644D01*
X147430581Y-50183020D01*
X147286285Y-50084427D01*
X147115000Y-50049741D01*
X146047177Y-50049741D01*
X145312307Y-49314871D01*
X145131668Y-49194172D01*
X144918590Y-49151788D01*
X141414713Y-49151788D01*
X141201635Y-49194172D01*
X141020996Y-49314871D01*
X138747872Y-51587995D01*
X138627173Y-51768634D01*
X138584789Y-51981712D01*
X138584789Y-54806269D01*
X138586789Y-54816324D01*
X138586789Y-67235466D01*
X138629173Y-67448544D01*
X138749872Y-67629183D01*
X141760050Y-70639361D01*
X141940689Y-70760060D01*
X142153767Y-70802444D01*
X159960608Y-70802444D01*
X161033833Y-71875669D01*
X161030010Y-71877248D01*
X160823972Y-72082927D01*
X160712327Y-72351797D01*
X160712073Y-72642925D01*
X160823248Y-72911990D01*
X160898064Y-72986937D01*
X160927736Y-73136108D01*
X161048869Y-73317395D01*
X161090045Y-73358571D01*
X161090045Y-76168191D01*
X160961723Y-76039869D01*
X160946983Y-76030020D01*
X160780436Y-75918736D01*
X160566592Y-75876200D01*
X154236584Y-75876200D01*
X154205581Y-75828020D01*
X154061285Y-75729427D01*
X153890000Y-75694741D01*
X152390000Y-75694741D01*
X152229985Y-75724850D01*
X152083020Y-75819419D01*
X151984427Y-75963715D01*
X151949741Y-76135000D01*
X151949741Y-76735000D01*
X151979850Y-76895015D01*
X152074419Y-77041980D01*
X152114346Y-77069261D01*
X152083020Y-77089419D01*
X151984427Y-77233715D01*
X151949741Y-77405000D01*
X151949741Y-78005000D01*
X151979850Y-78165015D01*
X152074419Y-78311980D01*
X152114346Y-78339261D01*
X152083020Y-78359419D01*
X151984427Y-78503715D01*
X151949741Y-78675000D01*
X151949741Y-79275000D01*
X151979850Y-79435015D01*
X152058828Y-79557752D01*
X151959339Y-79657241D01*
X151882000Y-79843952D01*
X151882000Y-79991000D01*
X152009000Y-80118000D01*
X153013000Y-80118000D01*
X153013000Y-80098000D01*
X153267000Y-80098000D01*
X153267000Y-80118000D01*
X154271000Y-80118000D01*
X154398000Y-79991000D01*
X154398000Y-79843952D01*
X154320661Y-79657241D01*
X154220126Y-79556706D01*
X154250212Y-79512673D01*
X154357844Y-79491264D01*
X154539131Y-79370131D01*
X154854131Y-79055131D01*
X154907673Y-78975000D01*
X154975264Y-78873844D01*
X155017800Y-78660000D01*
X155017800Y-78190462D01*
X155071463Y-78136800D01*
X158726200Y-78136800D01*
X158726200Y-80403806D01*
X158664972Y-80464927D01*
X158553327Y-80733797D01*
X158553073Y-81024925D01*
X158664248Y-81293990D01*
X158869927Y-81500028D01*
X159138797Y-81611673D01*
X159429925Y-81611927D01*
X159698990Y-81500752D01*
X159905028Y-81295073D01*
X160016673Y-81026203D01*
X160016927Y-80735075D01*
X159905752Y-80466010D01*
X159843800Y-80403950D01*
X159843800Y-77705000D01*
X159818538Y-77578000D01*
X160069538Y-77578000D01*
X160123200Y-77631663D01*
X160123200Y-82807538D01*
X159524869Y-83405869D01*
X159403736Y-83587156D01*
X159361200Y-83801000D01*
X159361200Y-84213806D01*
X159299972Y-84274927D01*
X159188327Y-84543797D01*
X159188073Y-84834925D01*
X159299248Y-85103990D01*
X159504927Y-85310028D01*
X159773797Y-85421673D01*
X160064925Y-85421927D01*
X160333990Y-85310752D01*
X160540028Y-85105073D01*
X160651673Y-84836203D01*
X160651715Y-84788010D01*
X160701051Y-84788053D01*
X160970116Y-84676878D01*
X161090045Y-84557158D01*
X161090045Y-85244290D01*
X161086047Y-85264389D01*
X161086047Y-87165383D01*
X161128583Y-87379227D01*
X161196556Y-87480955D01*
X161249716Y-87560514D01*
X162205990Y-88516789D01*
X162205990Y-89433882D01*
X162248526Y-89647726D01*
X162360653Y-89815535D01*
X162369659Y-89829013D01*
X162637487Y-90096841D01*
X162646010Y-90102536D01*
X162699777Y-90156303D01*
X162717369Y-90182631D01*
X163171200Y-90636462D01*
X163171200Y-92310000D01*
X163213736Y-92523844D01*
X163334869Y-92705131D01*
X163461869Y-92832131D01*
X163523132Y-92873066D01*
X163866699Y-93216633D01*
X163817508Y-93335097D01*
X163817093Y-93810020D01*
X163998455Y-94248950D01*
X164333984Y-94585064D01*
X164772597Y-94767192D01*
X165247520Y-94767607D01*
X165686450Y-94586245D01*
X166022564Y-94250716D01*
X166204692Y-93812103D01*
X166205107Y-93337180D01*
X166023745Y-92898250D01*
X165688216Y-92562136D01*
X165249603Y-92380008D01*
X164774680Y-92379593D01*
X164654277Y-92429343D01*
X164288800Y-92063866D01*
X164288800Y-91999801D01*
X164333984Y-92045064D01*
X164772597Y-92227192D01*
X165247520Y-92227607D01*
X165686450Y-92046245D01*
X166022564Y-91710716D01*
X166204692Y-91272103D01*
X166205107Y-90797180D01*
X166023745Y-90358250D01*
X165994346Y-90328800D01*
X166274700Y-90328800D01*
X166488544Y-90286264D01*
X166669831Y-90165131D01*
X167196131Y-89638831D01*
X167312597Y-89687192D01*
X167787520Y-89687607D01*
X168226450Y-89506245D01*
X168303200Y-89429629D01*
X168303200Y-90097251D01*
X168228216Y-90022136D01*
X167789603Y-89840008D01*
X167314680Y-89839593D01*
X166875750Y-90020955D01*
X166539636Y-90356484D01*
X166357508Y-90795097D01*
X166357093Y-91270020D01*
X166538455Y-91708950D01*
X166873984Y-92045064D01*
X167312597Y-92227192D01*
X167787520Y-92227607D01*
X168226450Y-92046245D01*
X168303200Y-91969629D01*
X168303200Y-92637251D01*
X168228216Y-92562136D01*
X167789603Y-92380008D01*
X167314680Y-92379593D01*
X166875750Y-92560955D01*
X166539636Y-92896484D01*
X166357508Y-93335097D01*
X166357093Y-93810020D01*
X166538455Y-94248950D01*
X166873984Y-94585064D01*
X167312597Y-94767192D01*
X167787520Y-94767607D01*
X168226450Y-94586245D01*
X168303200Y-94509629D01*
X168303200Y-95177251D01*
X168228216Y-95102136D01*
X167789603Y-94920008D01*
X167314680Y-94919593D01*
X166875750Y-95100955D01*
X166539636Y-95436484D01*
X166357508Y-95875097D01*
X166357093Y-96350020D01*
X166538455Y-96788950D01*
X166873984Y-97125064D01*
X167312597Y-97307192D01*
X167787520Y-97307607D01*
X168226450Y-97126245D01*
X168303200Y-97049629D01*
X168303200Y-97717251D01*
X168228216Y-97642136D01*
X167789603Y-97460008D01*
X167314680Y-97459593D01*
X166875750Y-97640955D01*
X166539636Y-97976484D01*
X166357508Y-98415097D01*
X166357093Y-98890020D01*
X166538455Y-99328950D01*
X166873984Y-99665064D01*
X167312597Y-99847192D01*
X167787520Y-99847607D01*
X168226450Y-99666245D01*
X168303200Y-99589629D01*
X168303200Y-100257251D01*
X168228216Y-100182136D01*
X167789603Y-100000008D01*
X167314680Y-99999593D01*
X166875750Y-100180955D01*
X166539636Y-100516484D01*
X166357508Y-100955097D01*
X166357093Y-101430020D01*
X166538455Y-101868950D01*
X166873984Y-102205064D01*
X167312597Y-102387192D01*
X167787520Y-102387607D01*
X168226450Y-102206245D01*
X168303200Y-102129629D01*
X168303200Y-102801892D01*
X168282216Y-102822876D01*
X168205797Y-102616421D01*
X167728436Y-102450919D01*
X167224077Y-102480694D01*
X166896403Y-102616421D01*
X166819983Y-102822878D01*
X167551100Y-103553995D01*
X167565243Y-103539853D01*
X167744848Y-103719458D01*
X167730705Y-103733600D01*
X167744848Y-103747743D01*
X167565243Y-103927348D01*
X167551100Y-103913205D01*
X167536958Y-103927348D01*
X167357353Y-103747743D01*
X167371495Y-103733600D01*
X166640378Y-103002483D01*
X166433921Y-103078903D01*
X166272199Y-103545361D01*
X166264006Y-103406577D01*
X166128279Y-103078903D01*
X165921822Y-103002483D01*
X165190705Y-103733600D01*
X165204848Y-103747743D01*
X165025243Y-103927348D01*
X165011100Y-103913205D01*
X164996958Y-103927348D01*
X164817353Y-103747743D01*
X164831495Y-103733600D01*
X164100378Y-103002483D01*
X163893921Y-103078903D01*
X163728419Y-103556264D01*
X163758194Y-104060623D01*
X163893921Y-104388297D01*
X164100376Y-104464716D01*
X164061892Y-104503200D01*
X132909919Y-104503200D01*
X133002564Y-104410716D01*
X133184692Y-103972103D01*
X133185107Y-103497180D01*
X133003745Y-103058250D01*
X132768783Y-102822878D01*
X164279983Y-102822878D01*
X165011100Y-103553995D01*
X165742217Y-102822878D01*
X165665797Y-102616421D01*
X165188436Y-102450919D01*
X164684077Y-102480694D01*
X164356403Y-102616421D01*
X164279983Y-102822878D01*
X132768783Y-102822878D01*
X132668216Y-102722136D01*
X132229603Y-102540008D01*
X131754680Y-102539593D01*
X131315750Y-102720955D01*
X130979636Y-103056484D01*
X130797508Y-103495097D01*
X130797093Y-103970020D01*
X130978455Y-104408950D01*
X131072541Y-104503200D01*
X130400308Y-104503200D01*
X130361824Y-104464716D01*
X130568279Y-104388297D01*
X130733781Y-103910936D01*
X130704006Y-103406577D01*
X130568279Y-103078903D01*
X130361822Y-103002483D01*
X129630705Y-103733600D01*
X129644848Y-103747743D01*
X129465243Y-103927348D01*
X129451100Y-103913205D01*
X129436958Y-103927348D01*
X129257353Y-103747743D01*
X129271495Y-103733600D01*
X129257353Y-103719458D01*
X129436958Y-103539853D01*
X129451100Y-103553995D01*
X130182217Y-102822878D01*
X130105797Y-102616421D01*
X129628436Y-102450919D01*
X129124077Y-102480694D01*
X128796403Y-102616421D01*
X128719984Y-102822876D01*
X128676800Y-102779692D01*
X128676800Y-102107711D01*
X128773984Y-102205064D01*
X129212597Y-102387192D01*
X129687520Y-102387607D01*
X130126450Y-102206245D01*
X130462564Y-101870716D01*
X130644692Y-101432103D01*
X130644693Y-101430020D01*
X130797093Y-101430020D01*
X130978455Y-101868950D01*
X131313984Y-102205064D01*
X131752597Y-102387192D01*
X132227520Y-102387607D01*
X132666450Y-102206245D01*
X133002564Y-101870716D01*
X133184692Y-101432103D01*
X133185107Y-100957180D01*
X133003745Y-100518250D01*
X132668216Y-100182136D01*
X132229603Y-100000008D01*
X131754680Y-99999593D01*
X131315750Y-100180955D01*
X130979636Y-100516484D01*
X130797508Y-100955097D01*
X130797093Y-101430020D01*
X130644693Y-101430020D01*
X130645107Y-100957180D01*
X130463745Y-100518250D01*
X130128216Y-100182136D01*
X129689603Y-100000008D01*
X129214680Y-99999593D01*
X128775750Y-100180955D01*
X128676800Y-100279733D01*
X128676800Y-99567711D01*
X128773984Y-99665064D01*
X129212597Y-99847192D01*
X129687520Y-99847607D01*
X130126450Y-99666245D01*
X130462564Y-99330716D01*
X130644692Y-98892103D01*
X130644693Y-98890020D01*
X130797093Y-98890020D01*
X130978455Y-99328950D01*
X131313984Y-99665064D01*
X131752597Y-99847192D01*
X132227520Y-99847607D01*
X132666450Y-99666245D01*
X133002564Y-99330716D01*
X133184692Y-98892103D01*
X133185039Y-98494820D01*
X133463178Y-98494820D01*
X133574353Y-98763885D01*
X133780032Y-98969923D01*
X133801236Y-98978728D01*
X133764451Y-99015448D01*
X133652806Y-99284318D01*
X133652552Y-99575446D01*
X133763727Y-99844511D01*
X133969406Y-100050549D01*
X134238276Y-100162194D01*
X134325967Y-100162271D01*
X134488827Y-100325131D01*
X134670114Y-100446264D01*
X134834425Y-100478947D01*
X134643427Y-100938921D01*
X134642973Y-101458798D01*
X134841503Y-101939276D01*
X135208791Y-102307205D01*
X135688921Y-102506573D01*
X136208798Y-102507027D01*
X136689276Y-102308497D01*
X137057205Y-101941209D01*
X137200105Y-101597068D01*
X137341503Y-101939276D01*
X137708791Y-102307205D01*
X138188921Y-102506573D01*
X138708798Y-102507027D01*
X139189276Y-102308497D01*
X139305343Y-102192632D01*
X140136973Y-102192632D01*
X140227280Y-102410803D01*
X140745648Y-102595209D01*
X141295127Y-102567207D01*
X141672720Y-102410803D01*
X141763027Y-102192632D01*
X140950000Y-101379605D01*
X140136973Y-102192632D01*
X139305343Y-102192632D01*
X139557205Y-101941209D01*
X139652147Y-101712563D01*
X139739197Y-101922720D01*
X139957368Y-102013027D01*
X140770395Y-101200000D01*
X140756253Y-101185858D01*
X140935858Y-101006253D01*
X140950000Y-101020395D01*
X140964143Y-101006253D01*
X141143748Y-101185858D01*
X141129605Y-101200000D01*
X141942632Y-102013027D01*
X142160803Y-101922720D01*
X142241238Y-101696616D01*
X142341503Y-101939276D01*
X142708791Y-102307205D01*
X143188921Y-102506573D01*
X143708798Y-102507027D01*
X144189276Y-102308497D01*
X144557205Y-101941209D01*
X144700105Y-101597068D01*
X144841503Y-101939276D01*
X145208791Y-102307205D01*
X145688921Y-102506573D01*
X146208798Y-102507027D01*
X146689276Y-102308497D01*
X147057205Y-101941209D01*
X147256573Y-101461079D01*
X147256574Y-101458798D01*
X149802973Y-101458798D01*
X150001503Y-101939276D01*
X150368791Y-102307205D01*
X150848921Y-102506573D01*
X151368798Y-102507027D01*
X151849276Y-102308497D01*
X152217205Y-101941209D01*
X152360105Y-101597068D01*
X152501503Y-101939276D01*
X152868791Y-102307205D01*
X153348921Y-102506573D01*
X153868798Y-102507027D01*
X154349276Y-102308497D01*
X154465343Y-102192632D01*
X155296973Y-102192632D01*
X155387280Y-102410803D01*
X155905648Y-102595209D01*
X156455127Y-102567207D01*
X156832720Y-102410803D01*
X156923027Y-102192632D01*
X156110000Y-101379605D01*
X155296973Y-102192632D01*
X154465343Y-102192632D01*
X154717205Y-101941209D01*
X154812147Y-101712563D01*
X154899197Y-101922720D01*
X155117368Y-102013027D01*
X155930395Y-101200000D01*
X155117368Y-100386973D01*
X154899197Y-100477280D01*
X154818762Y-100703384D01*
X154718497Y-100460724D01*
X154351209Y-100092795D01*
X153871079Y-99893427D01*
X153351202Y-99892973D01*
X152870724Y-100091503D01*
X152502795Y-100458791D01*
X152359895Y-100802932D01*
X152218497Y-100460724D01*
X151851209Y-100092795D01*
X151371079Y-99893427D01*
X150851202Y-99892973D01*
X150370724Y-100091503D01*
X150002795Y-100458791D01*
X149803427Y-100938921D01*
X149802973Y-101458798D01*
X147256574Y-101458798D01*
X147257027Y-100941202D01*
X147058497Y-100460724D01*
X146691209Y-100092795D01*
X146211079Y-99893427D01*
X145691202Y-99892973D01*
X145508660Y-99968398D01*
X144440131Y-98899869D01*
X144401182Y-98873844D01*
X144258844Y-98778736D01*
X144045000Y-98736200D01*
X135371672Y-98736200D01*
X134926957Y-98291485D01*
X134927032Y-98204970D01*
X134815857Y-97935905D01*
X134610178Y-97729867D01*
X134341308Y-97618222D01*
X134050180Y-97617968D01*
X133781115Y-97729143D01*
X133575077Y-97934822D01*
X133463432Y-98203692D01*
X133463178Y-98494820D01*
X133185039Y-98494820D01*
X133185107Y-98417180D01*
X133003745Y-97978250D01*
X132668216Y-97642136D01*
X132229603Y-97460008D01*
X131754680Y-97459593D01*
X131315750Y-97640955D01*
X130979636Y-97976484D01*
X130797508Y-98415097D01*
X130797093Y-98890020D01*
X130644693Y-98890020D01*
X130645107Y-98417180D01*
X130463745Y-97978250D01*
X130128216Y-97642136D01*
X129689603Y-97460008D01*
X129214680Y-97459593D01*
X128775750Y-97640955D01*
X128676800Y-97739733D01*
X128676800Y-97027711D01*
X128773984Y-97125064D01*
X129212597Y-97307192D01*
X129687520Y-97307607D01*
X130126450Y-97126245D01*
X130462564Y-96790716D01*
X130644692Y-96352103D01*
X130644693Y-96350020D01*
X130797093Y-96350020D01*
X130978455Y-96788950D01*
X131313984Y-97125064D01*
X131752597Y-97307192D01*
X132227520Y-97307607D01*
X132666450Y-97126245D01*
X133002564Y-96790716D01*
X133184692Y-96352103D01*
X133185107Y-95877180D01*
X133003745Y-95438250D01*
X132668216Y-95102136D01*
X132229603Y-94920008D01*
X131754680Y-94919593D01*
X131315750Y-95100955D01*
X130979636Y-95436484D01*
X130797508Y-95875097D01*
X130797093Y-96350020D01*
X130644693Y-96350020D01*
X130645107Y-95877180D01*
X130463745Y-95438250D01*
X130128216Y-95102136D01*
X129689603Y-94920008D01*
X129214680Y-94919593D01*
X128775750Y-95100955D01*
X128676800Y-95199733D01*
X128676800Y-94487711D01*
X128773984Y-94585064D01*
X129212597Y-94767192D01*
X129687520Y-94767607D01*
X130126450Y-94586245D01*
X130462564Y-94250716D01*
X130644692Y-93812103D01*
X130644693Y-93810020D01*
X130797093Y-93810020D01*
X130978455Y-94248950D01*
X131313984Y-94585064D01*
X131752597Y-94767192D01*
X132227520Y-94767607D01*
X132666450Y-94586245D01*
X133002564Y-94250716D01*
X133184692Y-93812103D01*
X133185107Y-93337180D01*
X133003745Y-92898250D01*
X132668216Y-92562136D01*
X132229603Y-92380008D01*
X131754680Y-92379593D01*
X131315750Y-92560955D01*
X130979636Y-92896484D01*
X130797508Y-93335097D01*
X130797093Y-93810020D01*
X130644693Y-93810020D01*
X130645107Y-93337180D01*
X130463745Y-92898250D01*
X130128216Y-92562136D01*
X129689603Y-92380008D01*
X129214680Y-92379593D01*
X128775750Y-92560955D01*
X128676800Y-92659733D01*
X128676800Y-91947711D01*
X128773984Y-92045064D01*
X129212597Y-92227192D01*
X129687520Y-92227607D01*
X130126450Y-92046245D01*
X130462564Y-91710716D01*
X130644692Y-91272103D01*
X130644693Y-91270020D01*
X130797093Y-91270020D01*
X130978455Y-91708950D01*
X131313984Y-92045064D01*
X131752597Y-92227192D01*
X132227520Y-92227607D01*
X132666450Y-92046245D01*
X133002564Y-91710716D01*
X133184692Y-91272103D01*
X133185107Y-90797180D01*
X133003745Y-90358250D01*
X132668216Y-90022136D01*
X132229603Y-89840008D01*
X131754680Y-89839593D01*
X131315750Y-90020955D01*
X130979636Y-90356484D01*
X130797508Y-90795097D01*
X130797093Y-91270020D01*
X130644693Y-91270020D01*
X130645107Y-90797180D01*
X130463745Y-90358250D01*
X130128216Y-90022136D01*
X129689603Y-89840008D01*
X129214680Y-89839593D01*
X128775750Y-90020955D01*
X128676800Y-90119733D01*
X128676800Y-89407711D01*
X128773984Y-89505064D01*
X129212597Y-89687192D01*
X129687520Y-89687607D01*
X130126450Y-89506245D01*
X130462564Y-89170716D01*
X130644692Y-88732103D01*
X130645107Y-88257180D01*
X130463745Y-87818250D01*
X130128216Y-87482136D01*
X129689603Y-87300008D01*
X129214680Y-87299593D01*
X128775750Y-87480955D01*
X128676800Y-87579733D01*
X128676800Y-86867711D01*
X128773984Y-86965064D01*
X129212597Y-87147192D01*
X129687520Y-87147607D01*
X130126450Y-86966245D01*
X130462564Y-86630716D01*
X130644692Y-86192103D01*
X130645107Y-85717180D01*
X130463745Y-85278250D01*
X130128216Y-84942136D01*
X129689603Y-84760008D01*
X129214680Y-84759593D01*
X128775750Y-84940955D01*
X128676800Y-85039733D01*
X128676800Y-84327711D01*
X128773984Y-84425064D01*
X129212597Y-84607192D01*
X129687520Y-84607607D01*
X130126450Y-84426245D01*
X130462564Y-84090716D01*
X130644692Y-83652103D01*
X130645107Y-83177180D01*
X130463745Y-82738250D01*
X130128216Y-82402136D01*
X129689603Y-82220008D01*
X129214680Y-82219593D01*
X128775750Y-82400955D01*
X128676800Y-82499733D01*
X128676800Y-81787711D01*
X128773984Y-81885064D01*
X129212597Y-82067192D01*
X129687520Y-82067607D01*
X130126450Y-81886245D01*
X130462564Y-81550716D01*
X130644692Y-81112103D01*
X130645107Y-80637180D01*
X130463745Y-80198250D01*
X130128216Y-79862136D01*
X129689603Y-79680008D01*
X129214680Y-79679593D01*
X128775750Y-79860955D01*
X128676800Y-79959733D01*
X128676800Y-79247711D01*
X128773984Y-79345064D01*
X129212597Y-79527192D01*
X129687520Y-79527607D01*
X130126450Y-79346245D01*
X130462564Y-79010716D01*
X130644692Y-78572103D01*
X130645107Y-78097180D01*
X130463745Y-77658250D01*
X130128216Y-77322136D01*
X129689603Y-77140008D01*
X129214680Y-77139593D01*
X128775750Y-77320955D01*
X128676800Y-77419733D01*
X128676800Y-76707711D01*
X128773984Y-76805064D01*
X129212597Y-76987192D01*
X129687520Y-76987607D01*
X130126450Y-76806245D01*
X130462564Y-76470716D01*
X130644692Y-76032103D01*
X130645107Y-75557180D01*
X130463745Y-75118250D01*
X130128216Y-74782136D01*
X129689603Y-74600008D01*
X129214680Y-74599593D01*
X128775750Y-74780955D01*
X128676800Y-74879733D01*
X128676800Y-74167711D01*
X128773984Y-74265064D01*
X129212597Y-74447192D01*
X129687520Y-74447607D01*
X130126450Y-74266245D01*
X130462564Y-73930716D01*
X130644692Y-73492103D01*
X130645107Y-73017180D01*
X130463745Y-72578250D01*
X130128216Y-72242136D01*
X129689603Y-72060008D01*
X129214680Y-72059593D01*
X128775750Y-72240955D01*
X128676800Y-72339733D01*
X128676800Y-71627711D01*
X128773984Y-71725064D01*
X129212597Y-71907192D01*
X129687520Y-71907607D01*
X130126450Y-71726245D01*
X130462564Y-71390716D01*
X130644692Y-70952103D01*
X130645107Y-70477180D01*
X130463745Y-70038250D01*
X130128216Y-69702136D01*
X129689603Y-69520008D01*
X129214680Y-69519593D01*
X128775750Y-69700955D01*
X128676800Y-69799733D01*
X128676800Y-69087711D01*
X128773984Y-69185064D01*
X129212597Y-69367192D01*
X129687520Y-69367607D01*
X129805922Y-69318684D01*
X130314868Y-69827631D01*
X130496156Y-69948764D01*
X130710000Y-69991300D01*
X131024899Y-69991300D01*
X130979636Y-70036484D01*
X130797508Y-70475097D01*
X130797093Y-70950020D01*
X130978455Y-71388950D01*
X131313984Y-71725064D01*
X131752597Y-71907192D01*
X132227520Y-71907607D01*
X132666450Y-71726245D01*
X132691200Y-71701538D01*
X132691200Y-72265160D01*
X132668216Y-72242136D01*
X132229603Y-72060008D01*
X131754680Y-72059593D01*
X131315750Y-72240955D01*
X130979636Y-72576484D01*
X130797508Y-73015097D01*
X130797093Y-73490020D01*
X130978455Y-73928950D01*
X131313984Y-74265064D01*
X131752597Y-74447192D01*
X132227520Y-74447607D01*
X132666450Y-74266245D01*
X132691200Y-74241538D01*
X132691200Y-74805160D01*
X132668216Y-74782136D01*
X132229603Y-74600008D01*
X131754680Y-74599593D01*
X131315750Y-74780955D01*
X130979636Y-75116484D01*
X130797508Y-75555097D01*
X130797093Y-76030020D01*
X130978455Y-76468950D01*
X131313984Y-76805064D01*
X131752597Y-76987192D01*
X132227520Y-76987607D01*
X132666450Y-76806245D01*
X132691200Y-76781538D01*
X132691200Y-77345160D01*
X132668216Y-77322136D01*
X132229603Y-77140008D01*
X131754680Y-77139593D01*
X131315750Y-77320955D01*
X130979636Y-77656484D01*
X130797508Y-78095097D01*
X130797093Y-78570020D01*
X130978455Y-79008950D01*
X131313984Y-79345064D01*
X131752597Y-79527192D01*
X132227520Y-79527607D01*
X132666450Y-79346245D01*
X132691200Y-79321538D01*
X132691200Y-79885160D01*
X132668216Y-79862136D01*
X132229603Y-79680008D01*
X131754680Y-79679593D01*
X131315750Y-79860955D01*
X130979636Y-80196484D01*
X130797508Y-80635097D01*
X130797093Y-81110020D01*
X130978455Y-81548950D01*
X131313984Y-81885064D01*
X131752597Y-82067192D01*
X132227520Y-82067607D01*
X132666450Y-81886245D01*
X132691200Y-81861538D01*
X132691200Y-82425160D01*
X132668216Y-82402136D01*
X132229603Y-82220008D01*
X131754680Y-82219593D01*
X131315750Y-82400955D01*
X130979636Y-82736484D01*
X130797508Y-83175097D01*
X130797093Y-83650020D01*
X130978455Y-84088950D01*
X131313984Y-84425064D01*
X131752597Y-84607192D01*
X132227520Y-84607607D01*
X132666450Y-84426245D01*
X132691200Y-84401538D01*
X132691200Y-84965160D01*
X132668216Y-84942136D01*
X132229603Y-84760008D01*
X131754680Y-84759593D01*
X131315750Y-84940955D01*
X130979636Y-85276484D01*
X130797508Y-85715097D01*
X130797093Y-86190020D01*
X130978455Y-86628950D01*
X131313984Y-86965064D01*
X131752597Y-87147192D01*
X132227520Y-87147607D01*
X132666450Y-86966245D01*
X132691200Y-86941538D01*
X132691200Y-87505160D01*
X132668216Y-87482136D01*
X132229603Y-87300008D01*
X131754680Y-87299593D01*
X131315750Y-87480955D01*
X130979636Y-87816484D01*
X130797508Y-88255097D01*
X130797093Y-88730020D01*
X130978455Y-89168950D01*
X131313984Y-89505064D01*
X131752597Y-89687192D01*
X132227520Y-89687607D01*
X132666450Y-89506245D01*
X133002564Y-89170716D01*
X133184692Y-88732103D01*
X133184816Y-88590078D01*
X134759869Y-90165131D01*
X134941156Y-90286264D01*
X135155000Y-90328800D01*
X144045000Y-90328800D01*
X144258844Y-90286264D01*
X144440131Y-90165131D01*
X144827737Y-89777525D01*
X145170524Y-89709341D01*
X145586369Y-89431481D01*
X145864229Y-89015636D01*
X145916301Y-88753847D01*
X151017978Y-88753847D01*
X151212709Y-89225133D01*
X151572971Y-89586024D01*
X152043916Y-89781577D01*
X152553847Y-89782022D01*
X153025133Y-89587291D01*
X153386024Y-89227029D01*
X153537073Y-88863263D01*
X153753537Y-89314734D01*
X154148024Y-89668487D01*
X154503057Y-89815535D01*
X154713000Y-89724431D01*
X154713000Y-88627000D01*
X154693000Y-88627000D01*
X154693000Y-88373000D01*
X154713000Y-88373000D01*
X154713000Y-87275569D01*
X154967000Y-87275569D01*
X154967000Y-88373000D01*
X154987000Y-88373000D01*
X154987000Y-88627000D01*
X154967000Y-88627000D01*
X154967000Y-89724431D01*
X155176943Y-89815535D01*
X155531976Y-89668487D01*
X155551200Y-89651248D01*
X155551200Y-98700000D01*
X155593736Y-98913844D01*
X155631691Y-98970647D01*
X155714869Y-99095131D01*
X156485366Y-99865628D01*
X156314352Y-99804791D01*
X155764873Y-99832793D01*
X155387280Y-99989197D01*
X155296973Y-100207368D01*
X156110000Y-101020395D01*
X156124143Y-101006253D01*
X156303748Y-101185858D01*
X156289605Y-101200000D01*
X157102632Y-102013027D01*
X157320803Y-101922720D01*
X157401238Y-101696616D01*
X157501503Y-101939276D01*
X157868791Y-102307205D01*
X158348921Y-102506573D01*
X158868798Y-102507027D01*
X159349276Y-102308497D01*
X159717205Y-101941209D01*
X159860105Y-101597068D01*
X160001503Y-101939276D01*
X160368791Y-102307205D01*
X160848921Y-102506573D01*
X161368798Y-102507027D01*
X161849276Y-102308497D01*
X162217205Y-101941209D01*
X162416573Y-101461079D01*
X162416600Y-101430020D01*
X163817093Y-101430020D01*
X163998455Y-101868950D01*
X164333984Y-102205064D01*
X164772597Y-102387192D01*
X165247520Y-102387607D01*
X165686450Y-102206245D01*
X166022564Y-101870716D01*
X166204692Y-101432103D01*
X166205107Y-100957180D01*
X166023745Y-100518250D01*
X165688216Y-100182136D01*
X165249603Y-100000008D01*
X164774680Y-99999593D01*
X164335750Y-100180955D01*
X163999636Y-100516484D01*
X163817508Y-100955097D01*
X163817093Y-101430020D01*
X162416600Y-101430020D01*
X162417027Y-100941202D01*
X162218497Y-100460724D01*
X161851209Y-100092795D01*
X161371079Y-99893427D01*
X160851202Y-99892973D01*
X160668660Y-99968398D01*
X160235131Y-99534869D01*
X160196182Y-99508844D01*
X160053844Y-99413736D01*
X159840000Y-99371200D01*
X158246462Y-99371200D01*
X157765282Y-98890020D01*
X163817093Y-98890020D01*
X163998455Y-99328950D01*
X164333984Y-99665064D01*
X164772597Y-99847192D01*
X165247520Y-99847607D01*
X165686450Y-99666245D01*
X166022564Y-99330716D01*
X166204692Y-98892103D01*
X166205107Y-98417180D01*
X166023745Y-97978250D01*
X165688216Y-97642136D01*
X165249603Y-97460008D01*
X164774680Y-97459593D01*
X164335750Y-97640955D01*
X163999636Y-97976484D01*
X163817508Y-98415097D01*
X163817093Y-98890020D01*
X157765282Y-98890020D01*
X157303800Y-98428538D01*
X157303800Y-96350020D01*
X163817093Y-96350020D01*
X163998455Y-96788950D01*
X164333984Y-97125064D01*
X164772597Y-97307192D01*
X165247520Y-97307607D01*
X165686450Y-97126245D01*
X166022564Y-96790716D01*
X166204692Y-96352103D01*
X166205107Y-95877180D01*
X166023745Y-95438250D01*
X165688216Y-95102136D01*
X165249603Y-94920008D01*
X164774680Y-94919593D01*
X164335750Y-95100955D01*
X163999636Y-95436484D01*
X163817508Y-95875097D01*
X163817093Y-96350020D01*
X157303800Y-96350020D01*
X157303800Y-90881194D01*
X157365028Y-90820073D01*
X157476673Y-90551203D01*
X157476927Y-90260075D01*
X157365752Y-89991010D01*
X157160073Y-89784972D01*
X157059271Y-89743115D01*
X157380000Y-89806912D01*
X157870524Y-89709341D01*
X158286369Y-89431481D01*
X158564229Y-89015636D01*
X158650000Y-88584435D01*
X158735771Y-89015636D01*
X159013631Y-89431481D01*
X159429476Y-89709341D01*
X159920000Y-89806912D01*
X160410524Y-89709341D01*
X160826369Y-89431481D01*
X161104229Y-89015636D01*
X161201800Y-88525112D01*
X161201800Y-88474888D01*
X161104229Y-87984364D01*
X160826369Y-87568519D01*
X160410524Y-87290659D01*
X159920000Y-87193088D01*
X159429476Y-87290659D01*
X159013631Y-87568519D01*
X158735771Y-87984364D01*
X158650000Y-88415565D01*
X158564229Y-87984364D01*
X158286369Y-87568519D01*
X157870524Y-87290659D01*
X157380000Y-87193088D01*
X156889476Y-87290659D01*
X156668800Y-87438111D01*
X156668800Y-86436194D01*
X156730028Y-86375073D01*
X156841673Y-86106203D01*
X156841927Y-85815075D01*
X156730752Y-85546010D01*
X156525073Y-85339972D01*
X156256203Y-85228327D01*
X155965075Y-85228073D01*
X155696010Y-85339248D01*
X155489972Y-85544927D01*
X155378327Y-85813797D01*
X155378073Y-86104925D01*
X155489248Y-86373990D01*
X155551200Y-86436050D01*
X155551200Y-87348752D01*
X155531976Y-87331513D01*
X155176943Y-87184465D01*
X154967000Y-87275569D01*
X154713000Y-87275569D01*
X154503057Y-87184465D01*
X154148024Y-87331513D01*
X153753537Y-87685266D01*
X153536933Y-88137029D01*
X153387291Y-87774867D01*
X153027029Y-87413976D01*
X152556084Y-87218423D01*
X152046153Y-87217978D01*
X151574867Y-87412709D01*
X151213976Y-87772971D01*
X151018423Y-88243916D01*
X151017978Y-88753847D01*
X145916301Y-88753847D01*
X145961800Y-88525112D01*
X145961800Y-88474888D01*
X145864229Y-87984364D01*
X145586369Y-87568519D01*
X145170524Y-87290659D01*
X144680000Y-87193088D01*
X144189476Y-87290659D01*
X143773631Y-87568519D01*
X143495771Y-87984364D01*
X143410000Y-88415565D01*
X143324229Y-87984364D01*
X143046369Y-87568519D01*
X142630524Y-87290659D01*
X142140000Y-87193088D01*
X141649476Y-87290659D01*
X141233631Y-87568519D01*
X140955771Y-87984364D01*
X140878467Y-88372998D01*
X140825060Y-88372998D01*
X140915546Y-88163055D01*
X140686463Y-87685266D01*
X140291976Y-87331513D01*
X139936943Y-87184465D01*
X139727000Y-87275569D01*
X139727000Y-88373000D01*
X139747000Y-88373000D01*
X139747000Y-88627000D01*
X139727000Y-88627000D01*
X139727000Y-88647000D01*
X139473000Y-88647000D01*
X139473000Y-88627000D01*
X139453000Y-88627000D01*
X139453000Y-88373000D01*
X139473000Y-88373000D01*
X139473000Y-87275569D01*
X139263057Y-87184465D01*
X138908024Y-87331513D01*
X138513537Y-87685266D01*
X138296933Y-88137029D01*
X138147291Y-87774867D01*
X137787029Y-87413976D01*
X137316084Y-87218423D01*
X136806153Y-87217978D01*
X136334867Y-87412709D01*
X135973976Y-87772971D01*
X135904121Y-87941200D01*
X135107040Y-87941200D01*
X134321590Y-87155750D01*
X134321590Y-85579000D01*
X142582000Y-85579000D01*
X142582000Y-85726048D01*
X142659339Y-85912759D01*
X142802242Y-86055662D01*
X142988953Y-86133000D01*
X143586000Y-86133000D01*
X143713000Y-86006000D01*
X143713000Y-85452000D01*
X143967000Y-85452000D01*
X143967000Y-86006000D01*
X144094000Y-86133000D01*
X144691047Y-86133000D01*
X144877758Y-86055662D01*
X145020661Y-85912759D01*
X145098000Y-85726048D01*
X145098000Y-85579000D01*
X151882000Y-85579000D01*
X151882000Y-85726048D01*
X151959339Y-85912759D01*
X152102242Y-86055662D01*
X152288953Y-86133000D01*
X152886000Y-86133000D01*
X153013000Y-86006000D01*
X153013000Y-85452000D01*
X153267000Y-85452000D01*
X153267000Y-86006000D01*
X153394000Y-86133000D01*
X153991047Y-86133000D01*
X154177758Y-86055662D01*
X154320661Y-85912759D01*
X154398000Y-85726048D01*
X154398000Y-85579000D01*
X154271000Y-85452000D01*
X153267000Y-85452000D01*
X153013000Y-85452000D01*
X152009000Y-85452000D01*
X151882000Y-85579000D01*
X145098000Y-85579000D01*
X144971000Y-85452000D01*
X143967000Y-85452000D01*
X143713000Y-85452000D01*
X142709000Y-85452000D01*
X142582000Y-85579000D01*
X134321590Y-85579000D01*
X134321590Y-84309000D01*
X142582000Y-84309000D01*
X142582000Y-84456048D01*
X142659339Y-84642759D01*
X142706580Y-84690000D01*
X142659339Y-84737241D01*
X142582000Y-84923952D01*
X142582000Y-85071000D01*
X142709000Y-85198000D01*
X143713000Y-85198000D01*
X143713000Y-84182000D01*
X143967000Y-84182000D01*
X143967000Y-85198000D01*
X144971000Y-85198000D01*
X145098000Y-85071000D01*
X145098000Y-84923952D01*
X145020661Y-84737241D01*
X144973420Y-84690000D01*
X145020661Y-84642759D01*
X145098000Y-84456048D01*
X145098000Y-84309000D01*
X151882000Y-84309000D01*
X151882000Y-84456048D01*
X151959339Y-84642759D01*
X152006580Y-84690000D01*
X151959339Y-84737241D01*
X151882000Y-84923952D01*
X151882000Y-85071000D01*
X152009000Y-85198000D01*
X153013000Y-85198000D01*
X153013000Y-84182000D01*
X153267000Y-84182000D01*
X153267000Y-85198000D01*
X154271000Y-85198000D01*
X154398000Y-85071000D01*
X154398000Y-84923952D01*
X154320661Y-84737241D01*
X154273420Y-84690000D01*
X154320661Y-84642759D01*
X154398000Y-84456048D01*
X154398000Y-84309000D01*
X154271000Y-84182000D01*
X153267000Y-84182000D01*
X153013000Y-84182000D01*
X152009000Y-84182000D01*
X151882000Y-84309000D01*
X145098000Y-84309000D01*
X144971000Y-84182000D01*
X143967000Y-84182000D01*
X143713000Y-84182000D01*
X142709000Y-84182000D01*
X142582000Y-84309000D01*
X134321590Y-84309000D01*
X134321590Y-82929925D01*
X138868073Y-82929925D01*
X138979248Y-83198990D01*
X139184927Y-83405028D01*
X139453797Y-83516673D01*
X139744925Y-83516927D01*
X140013990Y-83405752D01*
X140220028Y-83200073D01*
X140286911Y-83039000D01*
X142582000Y-83039000D01*
X142582000Y-83186048D01*
X142659339Y-83372759D01*
X142706580Y-83420000D01*
X142659339Y-83467241D01*
X142582000Y-83653952D01*
X142582000Y-83801000D01*
X142709000Y-83928000D01*
X143713000Y-83928000D01*
X143713000Y-82912000D01*
X143967000Y-82912000D01*
X143967000Y-83928000D01*
X144971000Y-83928000D01*
X145098000Y-83801000D01*
X145098000Y-83653952D01*
X145020661Y-83467241D01*
X144973420Y-83420000D01*
X145020661Y-83372759D01*
X145098000Y-83186048D01*
X145098000Y-83039000D01*
X151882000Y-83039000D01*
X151882000Y-83186048D01*
X151959339Y-83372759D01*
X152006580Y-83420000D01*
X151959339Y-83467241D01*
X151882000Y-83653952D01*
X151882000Y-83801000D01*
X152009000Y-83928000D01*
X153013000Y-83928000D01*
X153013000Y-82912000D01*
X153267000Y-82912000D01*
X153267000Y-83928000D01*
X154271000Y-83928000D01*
X154398000Y-83801000D01*
X154398000Y-83653952D01*
X154320661Y-83467241D01*
X154273420Y-83420000D01*
X154320661Y-83372759D01*
X154398000Y-83186048D01*
X154398000Y-83039000D01*
X154271000Y-82912000D01*
X153267000Y-82912000D01*
X153013000Y-82912000D01*
X152009000Y-82912000D01*
X151882000Y-83039000D01*
X145098000Y-83039000D01*
X144971000Y-82912000D01*
X143967000Y-82912000D01*
X143713000Y-82912000D01*
X142709000Y-82912000D01*
X142582000Y-83039000D01*
X140286911Y-83039000D01*
X140331673Y-82931203D01*
X140331927Y-82640075D01*
X140220752Y-82371010D01*
X140158800Y-82308950D01*
X140158800Y-81769000D01*
X142582000Y-81769000D01*
X142582000Y-81916048D01*
X142659339Y-82102759D01*
X142706580Y-82150000D01*
X142659339Y-82197241D01*
X142582000Y-82383952D01*
X142582000Y-82531000D01*
X142709000Y-82658000D01*
X143713000Y-82658000D01*
X143713000Y-81642000D01*
X143967000Y-81642000D01*
X143967000Y-82658000D01*
X144971000Y-82658000D01*
X145098000Y-82531000D01*
X145098000Y-82383952D01*
X145020661Y-82197241D01*
X144973420Y-82150000D01*
X145020661Y-82102759D01*
X145098000Y-81916048D01*
X145098000Y-81769000D01*
X151882000Y-81769000D01*
X151882000Y-81916048D01*
X151959339Y-82102759D01*
X152006580Y-82150000D01*
X151959339Y-82197241D01*
X151882000Y-82383952D01*
X151882000Y-82531000D01*
X152009000Y-82658000D01*
X153013000Y-82658000D01*
X153013000Y-81642000D01*
X153267000Y-81642000D01*
X153267000Y-82658000D01*
X154271000Y-82658000D01*
X154398000Y-82531000D01*
X154398000Y-82383952D01*
X154320661Y-82197241D01*
X154273420Y-82150000D01*
X154320661Y-82102759D01*
X154398000Y-81916048D01*
X154398000Y-81769000D01*
X154271000Y-81642000D01*
X153267000Y-81642000D01*
X153013000Y-81642000D01*
X152009000Y-81642000D01*
X151882000Y-81769000D01*
X145098000Y-81769000D01*
X144971000Y-81642000D01*
X143967000Y-81642000D01*
X143713000Y-81642000D01*
X142709000Y-81642000D01*
X142582000Y-81769000D01*
X140158800Y-81769000D01*
X140158800Y-79206462D01*
X141101462Y-78263800D01*
X142743416Y-78263800D01*
X142774419Y-78311980D01*
X142814346Y-78339261D01*
X142783020Y-78359419D01*
X142684427Y-78503715D01*
X142649741Y-78675000D01*
X142649741Y-79275000D01*
X142679850Y-79435015D01*
X142774419Y-79581980D01*
X142814346Y-79609261D01*
X142783020Y-79629419D01*
X142684427Y-79773715D01*
X142649741Y-79945000D01*
X142649741Y-80545000D01*
X142679850Y-80705015D01*
X142758828Y-80827752D01*
X142659339Y-80927241D01*
X142582000Y-81113952D01*
X142582000Y-81261000D01*
X142709000Y-81388000D01*
X143713000Y-81388000D01*
X143713000Y-81368000D01*
X143967000Y-81368000D01*
X143967000Y-81388000D01*
X144971000Y-81388000D01*
X145098000Y-81261000D01*
X145098000Y-81113952D01*
X145020661Y-80927241D01*
X144920126Y-80826706D01*
X144995573Y-80716285D01*
X145030259Y-80545000D01*
X145030259Y-80499000D01*
X151882000Y-80499000D01*
X151882000Y-80646048D01*
X151959339Y-80832759D01*
X152006580Y-80880000D01*
X151959339Y-80927241D01*
X151882000Y-81113952D01*
X151882000Y-81261000D01*
X152009000Y-81388000D01*
X153013000Y-81388000D01*
X153013000Y-80372000D01*
X153267000Y-80372000D01*
X153267000Y-81388000D01*
X154271000Y-81388000D01*
X154398000Y-81261000D01*
X154398000Y-81113952D01*
X154320661Y-80927241D01*
X154273420Y-80880000D01*
X154320661Y-80832759D01*
X154398000Y-80646048D01*
X154398000Y-80499000D01*
X154271000Y-80372000D01*
X153267000Y-80372000D01*
X153013000Y-80372000D01*
X152009000Y-80372000D01*
X151882000Y-80499000D01*
X145030259Y-80499000D01*
X145030259Y-79945000D01*
X145000150Y-79784985D01*
X144905581Y-79638020D01*
X144865654Y-79610739D01*
X144896980Y-79590581D01*
X144995573Y-79446285D01*
X145030259Y-79275000D01*
X145030259Y-78675000D01*
X145000150Y-78514985D01*
X144905581Y-78368020D01*
X144865654Y-78340739D01*
X144896980Y-78320581D01*
X144995573Y-78176285D01*
X145030259Y-78005000D01*
X145030259Y-77405000D01*
X145000150Y-77244985D01*
X144905581Y-77098020D01*
X144865654Y-77070739D01*
X144896980Y-77050581D01*
X144995573Y-76906285D01*
X145030259Y-76735000D01*
X145030259Y-76135000D01*
X145000150Y-75974985D01*
X144905581Y-75828020D01*
X144761285Y-75729427D01*
X144590000Y-75694741D01*
X143090000Y-75694741D01*
X142929985Y-75724850D01*
X142783020Y-75819419D01*
X142684427Y-75963715D01*
X142649741Y-76135000D01*
X142649741Y-76735000D01*
X142679850Y-76895015D01*
X142774419Y-77041980D01*
X142814346Y-77069261D01*
X142783020Y-77089419D01*
X142744223Y-77146200D01*
X140870000Y-77146200D01*
X140656156Y-77188736D01*
X140474869Y-77309869D01*
X139204869Y-78579869D01*
X139083736Y-78761156D01*
X139041200Y-78975000D01*
X139041200Y-82308806D01*
X138979972Y-82369927D01*
X138868327Y-82638797D01*
X138868073Y-82929925D01*
X134321590Y-82929925D01*
X134321590Y-69926194D01*
X134382818Y-69865073D01*
X134494463Y-69596203D01*
X134494717Y-69305075D01*
X134383542Y-69036010D01*
X134177863Y-68829972D01*
X133908993Y-68718327D01*
X133617865Y-68718073D01*
X133348800Y-68829248D01*
X133142762Y-69034927D01*
X133097996Y-69142734D01*
X132992631Y-69037369D01*
X132970103Y-69022317D01*
X132994764Y-68997656D01*
X132901824Y-68904716D01*
X133108279Y-68828297D01*
X133273781Y-68350936D01*
X133244006Y-67846577D01*
X133108279Y-67518903D01*
X132901822Y-67442483D01*
X132170705Y-68173600D01*
X132184848Y-68187743D01*
X132005243Y-68367348D01*
X131991100Y-68353205D01*
X131976958Y-68367348D01*
X131797353Y-68187743D01*
X131811495Y-68173600D01*
X131080378Y-67442483D01*
X130873921Y-67518903D01*
X130708419Y-67996264D01*
X130738194Y-68500623D01*
X130858267Y-68790504D01*
X130596331Y-68528569D01*
X130644692Y-68412103D01*
X130645107Y-67937180D01*
X130463745Y-67498250D01*
X130228783Y-67262878D01*
X131259983Y-67262878D01*
X131991100Y-67993995D01*
X132722217Y-67262878D01*
X132645797Y-67056421D01*
X132168436Y-66890919D01*
X131664077Y-66920694D01*
X131336403Y-67056421D01*
X131259983Y-67262878D01*
X130228783Y-67262878D01*
X130128216Y-67162136D01*
X129689603Y-66980008D01*
X129214680Y-66979593D01*
X128775750Y-67160955D01*
X128676800Y-67259733D01*
X128676800Y-66547711D01*
X128773984Y-66645064D01*
X129212597Y-66827192D01*
X129687520Y-66827607D01*
X130126450Y-66646245D01*
X130462564Y-66310716D01*
X130644692Y-65872103D01*
X130644693Y-65870020D01*
X130797093Y-65870020D01*
X130978455Y-66308950D01*
X131313984Y-66645064D01*
X131752597Y-66827192D01*
X132227520Y-66827607D01*
X132666450Y-66646245D01*
X133002564Y-66310716D01*
X133184692Y-65872103D01*
X133185107Y-65397180D01*
X133003745Y-64958250D01*
X132668216Y-64622136D01*
X132229603Y-64440008D01*
X131754680Y-64439593D01*
X131315750Y-64620955D01*
X130979636Y-64956484D01*
X130797508Y-65395097D01*
X130797093Y-65870020D01*
X130644693Y-65870020D01*
X130645107Y-65397180D01*
X130463745Y-64958250D01*
X130128216Y-64622136D01*
X129689603Y-64440008D01*
X129214680Y-64439593D01*
X128775750Y-64620955D01*
X128676800Y-64719733D01*
X128676800Y-64007711D01*
X128773984Y-64105064D01*
X129212597Y-64287192D01*
X129687520Y-64287607D01*
X130126450Y-64106245D01*
X130462564Y-63770716D01*
X130644692Y-63332103D01*
X130644693Y-63330020D01*
X130797093Y-63330020D01*
X130978455Y-63768950D01*
X131313984Y-64105064D01*
X131752597Y-64287192D01*
X132227520Y-64287607D01*
X132666450Y-64106245D01*
X133002564Y-63770716D01*
X133184692Y-63332103D01*
X133185107Y-62857180D01*
X133003745Y-62418250D01*
X132668216Y-62082136D01*
X132229603Y-61900008D01*
X131754680Y-61899593D01*
X131315750Y-62080955D01*
X130979636Y-62416484D01*
X130797508Y-62855097D01*
X130797093Y-63330020D01*
X130644693Y-63330020D01*
X130645107Y-62857180D01*
X130463745Y-62418250D01*
X130128216Y-62082136D01*
X129689603Y-61900008D01*
X129214680Y-61899593D01*
X128775750Y-62080955D01*
X128676800Y-62179733D01*
X128676800Y-61467711D01*
X128773984Y-61565064D01*
X129212597Y-61747192D01*
X129687520Y-61747607D01*
X130126450Y-61566245D01*
X130462564Y-61230716D01*
X130644692Y-60792103D01*
X130644693Y-60790020D01*
X130797093Y-60790020D01*
X130978455Y-61228950D01*
X131313984Y-61565064D01*
X131752597Y-61747192D01*
X132227520Y-61747607D01*
X132666450Y-61566245D01*
X133002564Y-61230716D01*
X133184692Y-60792103D01*
X133185107Y-60317180D01*
X133003745Y-59878250D01*
X132668216Y-59542136D01*
X132229603Y-59360008D01*
X131754680Y-59359593D01*
X131315750Y-59540955D01*
X130979636Y-59876484D01*
X130797508Y-60315097D01*
X130797093Y-60790020D01*
X130644693Y-60790020D01*
X130645107Y-60317180D01*
X130596184Y-60198778D01*
X131109832Y-59685131D01*
X131230965Y-59503843D01*
X131273500Y-59290000D01*
X131268800Y-59266371D01*
X131268800Y-58948142D01*
X131336403Y-59130779D01*
X131813764Y-59296281D01*
X132318123Y-59266506D01*
X132645797Y-59130779D01*
X132722217Y-58924322D01*
X131991100Y-58193205D01*
X131976958Y-58207348D01*
X131797353Y-58027743D01*
X131811495Y-58013600D01*
X132170705Y-58013600D01*
X132901822Y-58744717D01*
X133108279Y-58668297D01*
X133273781Y-58190936D01*
X133244006Y-57686577D01*
X133108279Y-57358903D01*
X132901822Y-57282483D01*
X132170705Y-58013600D01*
X131811495Y-58013600D01*
X131797353Y-57999458D01*
X131976958Y-57819853D01*
X131991100Y-57833995D01*
X132722217Y-57102878D01*
X132645797Y-56896421D01*
X132168436Y-56730919D01*
X131664077Y-56760694D01*
X131441711Y-56852801D01*
X131441927Y-56605075D01*
X131408567Y-56524338D01*
X131752597Y-56667192D01*
X132227520Y-56667607D01*
X132666450Y-56486245D01*
X133002564Y-56150716D01*
X133184692Y-55712103D01*
X133185107Y-55237180D01*
X133003745Y-54798250D01*
X132668216Y-54462136D01*
X132229603Y-54280008D01*
X131754680Y-54279593D01*
X131315750Y-54460955D01*
X130979636Y-54796484D01*
X130797508Y-55235097D01*
X130797093Y-55710020D01*
X130938624Y-56052551D01*
X130856203Y-56018327D01*
X130606481Y-56018109D01*
X130733781Y-55650936D01*
X130704006Y-55146577D01*
X130568279Y-54818903D01*
X130361822Y-54742483D01*
X129630705Y-55473600D01*
X129644848Y-55487743D01*
X129465243Y-55667348D01*
X129451100Y-55653205D01*
X129436958Y-55667348D01*
X129257353Y-55487743D01*
X129271495Y-55473600D01*
X129257353Y-55459458D01*
X129436958Y-55279853D01*
X129451100Y-55293995D01*
X130182217Y-54562878D01*
X130105797Y-54356421D01*
X129628436Y-54190919D01*
X129124077Y-54220694D01*
X128796403Y-54356421D01*
X128719984Y-54562876D01*
X128676800Y-54519692D01*
X128676800Y-48704924D01*
X129717771Y-47663952D01*
X157042000Y-47663952D01*
X157042000Y-48011000D01*
X157169000Y-48138000D01*
X158523000Y-48138000D01*
X158523000Y-47384000D01*
X158777000Y-47384000D01*
X158777000Y-48138000D01*
X160131000Y-48138000D01*
X160258000Y-48011000D01*
X160258000Y-47663952D01*
X160180661Y-47477241D01*
X160037758Y-47334338D01*
X159851047Y-47257000D01*
X158904000Y-47257000D01*
X158777000Y-47384000D01*
X158523000Y-47384000D01*
X158396000Y-47257000D01*
X157448953Y-47257000D01*
X157262242Y-47334338D01*
X157119339Y-47477241D01*
X157042000Y-47663952D01*
X129717771Y-47663952D01*
X132189923Y-45191800D01*
X161438857Y-45191800D01*
X161953200Y-45693598D01*
M02*
