G04 #@! TF.FileFunction,Soldermask,Top*
%FSLAX46Y46*%
G04 Gerber Fmt 4.6, Leading zero omitted, Abs format (unit mm)*
G04 Created by KiCad (PCBNEW 4.0.5) date Sunday, 19 February 2017 'PMt' 17:45:15*
%MOMM*%
%LPD*%
G01*
G04 APERTURE LIST*
%ADD10C,0.100000*%
%ADD11R,1.700000X1.900000*%
%ADD12R,1.900000X1.000000*%
%ADD13R,2.100000X2.100000*%
%ADD14O,2.100000X2.100000*%
%ADD15C,2.100000*%
%ADD16R,1.650000X2.400000*%
%ADD17C,1.900000*%
%ADD18R,2.600000X1.400000*%
%ADD19C,2.150000*%
%ADD20C,1.924000*%
G04 APERTURE END LIST*
D10*
D11*
X158650000Y-63020000D03*
X158650000Y-65720000D03*
D12*
X143840000Y-76435000D03*
X143840000Y-77705000D03*
X143840000Y-78975000D03*
X143840000Y-80245000D03*
X143840000Y-81515000D03*
X143840000Y-82785000D03*
X143840000Y-84055000D03*
X143840000Y-85325000D03*
X153140000Y-85325000D03*
X153140000Y-84055000D03*
X153140000Y-82785000D03*
X153140000Y-81515000D03*
X153140000Y-80245000D03*
X153140000Y-78975000D03*
X153140000Y-77705000D03*
X153140000Y-76435000D03*
D13*
X161825000Y-65640000D03*
D14*
X161825000Y-63100000D03*
D15*
X152300000Y-88500000D03*
D14*
X154840000Y-88500000D03*
X157380000Y-88500000D03*
X159920000Y-88500000D03*
D15*
X137060000Y-88500000D03*
D14*
X139600000Y-88500000D03*
X142140000Y-88500000D03*
X144680000Y-88500000D03*
D16*
X154490000Y-51490000D03*
X152490000Y-51490000D03*
X150490000Y-51490000D03*
X148490000Y-51490000D03*
X146490000Y-51490000D03*
X144490000Y-51490000D03*
X142490000Y-51490000D03*
X146490000Y-67090000D03*
X142490000Y-67090000D03*
X150490000Y-67090000D03*
X152490000Y-67090000D03*
X148490000Y-67090000D03*
X154490000Y-67090000D03*
X144490000Y-67090000D03*
D17*
X157150000Y-49765000D03*
D18*
X158650000Y-48265000D03*
X158650000Y-51265000D03*
D19*
X151110000Y-101200000D03*
X153610000Y-101200000D03*
X156110000Y-101200000D03*
X158610000Y-101200000D03*
X161110000Y-101200000D03*
X135950000Y-101200000D03*
X138450000Y-101200000D03*
X140950000Y-101200000D03*
X143450000Y-101200000D03*
X145950000Y-101200000D03*
D20*
X129451100Y-55473600D03*
X131991100Y-55473600D03*
X129451100Y-58013600D03*
X131991100Y-58013600D03*
X129451100Y-60553600D03*
X131991100Y-60553600D03*
X129451100Y-63093600D03*
X131991100Y-63093600D03*
X129451100Y-65633600D03*
X131991100Y-65633600D03*
X129451100Y-68173600D03*
X131991100Y-68173600D03*
X129451100Y-70713600D03*
X131991100Y-70713600D03*
X129451100Y-73253600D03*
X131991100Y-73253600D03*
X129451100Y-75793600D03*
X131991100Y-75793600D03*
X129451100Y-78333600D03*
X131991100Y-78333600D03*
X129451100Y-80873600D03*
X131991100Y-80873600D03*
X129451100Y-83413600D03*
X131991100Y-83413600D03*
X129451100Y-85953600D03*
X131991100Y-85953600D03*
X129451100Y-88493600D03*
X131991100Y-88493600D03*
X129451100Y-91033600D03*
X131991100Y-91033600D03*
X129451100Y-93573600D03*
X131991100Y-93573600D03*
X129451100Y-96113600D03*
X131991100Y-96113600D03*
X129451100Y-98653600D03*
X131991100Y-98653600D03*
X129451100Y-101193600D03*
X131991100Y-101193600D03*
X129451100Y-103733600D03*
X131991100Y-103733600D03*
X165011100Y-55473600D03*
X167551100Y-55473600D03*
X165011100Y-58013600D03*
X167551100Y-58013600D03*
X165011100Y-60553600D03*
X167551100Y-60553600D03*
X165011100Y-63093600D03*
X167551100Y-63093600D03*
X165011100Y-65633600D03*
X167551100Y-65633600D03*
X165011100Y-68173600D03*
X167551100Y-68173600D03*
X165011100Y-70713600D03*
X167551100Y-70713600D03*
X165011100Y-73253600D03*
X167551100Y-73253600D03*
X165011100Y-75793600D03*
X167551100Y-75793600D03*
X165011100Y-78333600D03*
X167551100Y-78333600D03*
X165011100Y-80873600D03*
X167551100Y-80873600D03*
X165011100Y-83413600D03*
X167551100Y-83413600D03*
X165011100Y-85953600D03*
X167551100Y-85953600D03*
X165011100Y-88493600D03*
X167551100Y-88493600D03*
X165011100Y-91033600D03*
X167551100Y-91033600D03*
X165011100Y-93573600D03*
X167551100Y-93573600D03*
X165011100Y-96113600D03*
X167551100Y-96113600D03*
X165011100Y-98653600D03*
X167551100Y-98653600D03*
X165011100Y-101193600D03*
X167551100Y-101193600D03*
X165011100Y-103733600D03*
X167551100Y-103733600D03*
M02*
